SplineFontDB: 3.2
FontName: RallyDisplay-SemiBold
FullName: Rally Display SemiBold
FamilyName: Rally Display
Weight: SemiBold
Copyright: Copyright (c) 2023-2024, Zamero Type Foundry
UComments: "2023-12-31: Created with FontForge (http://fontforge.org)+AAoACgAK-Magical cartoon rabbit. :)"
Version: 001.000
ItalicAngle: 0
UnderlinePosition: -100
UnderlineWidth: 50
Ascent: 800
Descent: 200
InvalidEm: 0
LayerCount: 2
Layer: 0 0 "Back" 1
Layer: 1 0 "Fore" 0
XUID: [1021 474 1118879153 10182]
StyleMap: 0x0040
FSType: 0
OS2Version: 0
OS2_WeightWidthSlopeOnly: 0
OS2_UseTypoMetrics: 1
CreationTime: 1704051534
ModificationTime: 1732898141
PfmFamily: 81
TTFWeight: 600
TTFWidth: 5
LineGap: 90
VLineGap: 90
OS2TypoAscent: 0
OS2TypoAOffset: 1
OS2TypoDescent: 0
OS2TypoDOffset: 1
OS2TypoLinegap: 90
OS2WinAscent: 0
OS2WinAOffset: 1
OS2WinDescent: 0
OS2WinDOffset: 1
HheadAscent: 0
HheadAOffset: 1
HheadDescent: 0
HheadDOffset: 1
OS2Vendor: 'ZAM '
Lookup: 1 0 0 "'subs' Subscript lookup 0" { "'subs' Subscript lookup 0 subtable" ("inferior") } ['subs' ('DFLT' <'dflt' > ) ]
Lookup: 1 0 0 "'onum' Oldstyle Figures lookup 27" { "'onum' Oldstyle Figures lookup 27-1" ("osf") } ['onum' ('DFLT' <'dflt' > 'grek' <'dflt' > 'latn' <'AZE ' 'CAT ' 'CRT ' 'KAZ ' 'MOL ' 'NLD ' 'ROM ' 'TAT ' 'TRK ' 'dflt' > ) ]
Lookup: 1 0 0 "'ss16' Style Set 16 lookup 26" { "'ss16' Style Set 16 lookup 26-1" ("ss16") } ['ss16' ('DFLT' <'dflt' > 'grek' <'dflt' > 'latn' <'AZE ' 'CAT ' 'CRT ' 'KAZ ' 'MOL ' 'NLD ' 'ROM ' 'TAT ' 'TRK ' 'dflt' > ) ]
Lookup: 1 0 0 "'init' Initial Forms lookup 24" { "'init' Initial Forms lookup 24-1" ("init") } ['init' ('DFLT' <'dflt' > 'grek' <'dflt' > 'latn' <'AZE ' 'CAT ' 'CRT ' 'KAZ ' 'MOL ' 'NLD ' 'ROM ' 'TAT ' 'TRK ' 'dflt' > ) ]
Lookup: 1 0 0 "'fina' Terminal Forms lookup 25" { "'fina' Terminal Forms lookup 25-1" ("fina") } ['fina' ('DFLT' <'dflt' > 'grek' <'dflt' > 'latn' <'AZE ' 'CAT ' 'CRT ' 'KAZ ' 'MOL ' 'NLD ' 'ROM ' 'TAT ' 'TRK ' 'dflt' > ) ]

StartChar: dotlessi
Encoding: 239 305 1
Width: 320
Flags: W
HStem: 0 21G<113.83 270.159> 376.084 120.927<13.6201 118.151>
VStem: 113.83 156.329<0 376.084>
LayerCount: 2
Back
SplineSet
274.729492188 496.93359375 m 5
 280.159179688 0 l 5
 83.830078125 0 l 5
 90 496.93359375 l 5
 274.729492188 496.93359375 l 5
EndSplineSet
Fore
SplineSet
264.729492188 497.010742188 m 1
 270.159179688 0 l 1
 113.830078125 0 l 1
 118.151367188 376.083984375 l 1
 10 374.080078125 l 1
 13.6201171875 497.010742188 l 1
 264.729492188 497.010742188 l 1
EndSplineSet
EndChar

StartChar: period
Encoding: 14 46 2
Width: 265
Flags: W
HStem: -10 184<72.5924 197.408>
VStem: 43 184<19.5924 144.408>
LayerCount: 2
Fore
SplineSet
43 82 m 0
 43 138.222585227 78.7774147728 174 135 174 c 0
 191.222585228 174 227 138.222585227 227 82 c 0
 227 25.7774147727 191.222585228 -10 135 -10 c 0
 78.7774147728 -10 43 25.7774147727 43 82 c 0
EndSplineSet
EndChar

StartChar: o
Encoding: 79 111 3
Width: 565
Flags: W
HStem: -10.0664 133.425<216.59 347.694> 373.509 133.425<213.328 350.968>
VStem: 25 144.375<170.979 327.456> 395.125 144.875<172.16 326.301>
LayerCount: 2
Fore
SplineSet
169.375 249.858398438 m 0
 169.375 172.552698396 213.183189458 123.358398438 282.025390625 123.358398438 c 0
 351.142112168 123.358398438 395.125 172.552698396 395.125 249.858398438 c 0
 395.125 325.422962836 351.142112168 373.508789062 282.025390625 373.508789062 c 0
 213.183189458 373.508789062 169.375 325.422962836 169.375 249.858398438 c 0
25 249.93359375 m 0
 25 406.989257812 124.944335938 506.93359375 282 506.93359375 c 0
 439.666992188 506.93359375 540 406.989257812 540 249.93359375 c 0
 540 91.0439453125 439.666992188 -10.06640625 282 -10.06640625 c 0
 124.944335938 -10.06640625 25 91.0439453125 25 249.93359375 c 0
EndSplineSet
EndChar

StartChar: slash
Encoding: 15 47 4
Width: 497
Flags: W
LayerCount: 2
Back
SplineSet
1 -123.994140625 m 1
 198.637695312 379 l 1
 317 815.001953125 l 1
 506 763.001953125 l 1
 328.983398438 331 l 1
 190 -175.994140625 l 1
 1 -123.994140625 l 1
EndSplineSet
Fore
SplineSet
21 -128.994140625 m 1
 337 810.001953125 l 1
 476 768.001953125 l 1
 160 -170.994140625 l 1
 21 -128.994140625 l 1
EndSplineSet
Substitution2: "'frac' Diagonal Fractions in Latin lookup 25 subtable" fraction
EndChar

StartChar: d
Encoding: 68 100 5
Width: 677
Flags: W
HStem: -10.0664 130<218.859 353.363> 0 120.927<566.849 663.38> 376.934 130<218.859 360.185> 735.002 20G<416.875 564.254>
VStem: 25 146.5<169.484 325.761> 407.5 159.349<169.322 326.378> 412.271 77.7295<121.651 416.323> 417 147.17<273.934 755.002>
LayerCount: 2
Back
SplineSet
387.270507812 755.001953125 m 5
 381.840820312 0 l 5
 578.169921875 0 l 5
 573.848632812 604.075195312 l 5
 672 602.071289062 l 5
 668.379882812 755.001953125 l 5
 387.270507812 755.001953125 l 5
EndSplineSet
Fore
SplineSet
407.5 246.93359375 m 0xbc
 407.5 326.378320313 361.805995197 376.93359375 290 376.93359375 c 0
 217.582602761 376.93359375 171.5 326.378320313 171.5 246.93359375 c 0
 171.5 169.32177231 217.582602761 119.93359375 290 119.93359375 c 0
 361.805995197 119.93359375 407.5 169.32177231 407.5 246.93359375 c 0xbc
490 273.93359375 m 0xba
 490 121.651121386 409.567318282 -10.06640625 258 -10.06640625 c 0
 115.610445792 -10.06640625 25 89.8779296875 25 246.93359375 c 0
 25 405.823242188 115.610445792 506.93359375 258 506.93359375 c 0
 399.778221366 506.93359375 490 416.323049502 490 273.93359375 c 0xba
412.270507812 0 m 1x7a
 417 755.001953125 l 1
 564.169921875 755.001953125 l 1x79
 566.848632812 120.926757812 l 1x7c
 667 122.930664062 l 1
 663.379882812 0 l 1
 412.270507812 0 l 1x7a
EndSplineSet
EndChar

StartChar: p
Encoding: 80 112 6
Width: 672
Flags: W
HStem: -10.0664 130<311.815 453.141> 376.084 120.927<13.6201 108.151> 376.934 130<314.709 453.141>
VStem: 182 72.7295<86.3774 382.173> 500.5 146.5<171.107 327.383>
LayerCount: 2
Fore
SplineSet
264.5 249.93359375 m 0xb8
 264.5 170.488706931 310.193779839 119.93359375 382 119.93359375 c 0
 454.417551185 119.93359375 500.5 170.488706931 500.5 249.93359375 c 0
 500.5 327.545477175 454.417551185 376.93359375 382 376.93359375 c 0
 310.193779839 376.93359375 264.5 327.545477175 264.5 249.93359375 c 0xb8
182 237.93359375 m 0
 182 382.172851562 262.432617188 506.93359375 414 506.93359375 c 0
 556.389648438 506.93359375 647 406.989257812 647 249.93359375 c 0
 647 91.0439453125 556.389648438 -10.06640625 414 -10.06640625 c 0
 272.221679688 -10.06640625 182 86.3774414062 182 237.93359375 c 0
254.729492188 497.010742188 m 1xd8
 260.159179688 -174 l 1
 103.830078125 -174 l 1
 108.151367188 376.083984375 l 1
 10 374.080078125 l 1
 13.6201171875 497.010742188 l 1
 254.729492188 497.010742188 l 1xd8
EndSplineSet
EndChar

StartChar: t
Encoding: 84 116 7
Width: 434
Flags: W
HStem: 373.5 123.5<12.5 262.125> 480 20G<181.5 404.067>
VStem: 111.33 145.799<168.478 471.647>
LayerCount: 2
Fore
SplineSet
12.5 497 m 1xa0
 181.5 493 l 1
 404.5 500 l 1x60
 401.5 361.5 l 1
 178.5 376 l 1
 8.5 373.5 l 1
 12.5 497 l 1xa0
257.12890625 267 m 0
 257.12890625 174.666242517 274.236976892 140.081349647 373.659179688 124.430664062 c 1
 345.0390625 -16 l 1
 153.436512483 33.078125 111.330078125 72 111.330078125 262 c 0
 111.330078125 362.741210938 125.651367188 651.046875 125.651367188 651.046875 c 1
 265.729492188 646 l 1
 265.729492188 646 257.12890625 394.377247431 257.12890625 267 c 0
EndSplineSet
EndChar

StartChar: l
Encoding: 76 108 8
Width: 397
Flags: W
HStem: 0 121.397<279.129 383.539> 634.075 120.927<23.6201 128.151>
VStem: 123.83 155.299<121.397 634.075>
LayerCount: 2
Back
SplineSet
105.334960938 140.244140625 m 5
 109.862304688 751.69921875 l 5
 349.01953125 797.84375 l 5
 404.7265625 645.374023438 l 5
 295.80859375 623.6875 l 5
 300.63671875 14.7734375 l 5
 48.3994140625 -44.3125 l 5
 -7.3076171875 108.157226562 l 5
 105.334960938 140.244140625 l 5
EndSplineSet
Fore
SplineSet
279.12890625 121.397460938 m 1
 387.159179688 122.930664062 l 1
 383.5390625 0 l 1
 123.830078125 0 l 1
 128.151367188 634.075195312 l 1
 20 632.071289062 l 1
 23.6201171875 755.001953125 l 1
 274.729492188 755.001953125 l 1
 279.12890625 121.397460938 l 1
EndSplineSet
EndChar

StartChar: e
Encoding: 69 101 9
Width: 541
Flags: W
HStem: -23.9004 120.301<284.286 426.819> 195.5 94.5<143.5 375> 387.934 119<212.874 340.817>
VStem: 25 494.619<198.52 378.44>
LayerCount: 2
Back
SplineSet
145 251.93359375 m 0
 145 118.399011671 234.924400059 91.0845098901 427.2890625 79.900390625 c 1
 411.819335938 -23.900390625 l 1
 195.319904327 -22.2919921875 30 49 30 259 c 0
 30 399.989257812 114.333684792 506.93359375 271 506.93359375 c 0
 466.952995619 506.93359375 517.619140625 377.117081999 517.619140625 261.659179688 c 0
 517.619140625 223.858398438 512 196 512 196 c 1
 130 193 l 1
 115 279 l 1
 404 283 l 1
 404 283 404.043226139 284.065301324 404.043226139 285.999999724 c 0
 404.043226139 306 397.916066056 408.93359375 277 408.93359375 c 0
 172.754005142 408.93359375 145 332.861387567 145 251.93359375 c 0
EndSplineSet
Fore
SplineSet
171 251.93359375 m 0
 171 133.184688841 252.376047599 109.025470314 441.7890625 96.400390625 c 1
 426.819335938 -23.900390625 l 1
 193.979492188 -22.2919921875 25 49 25 259 c 0
 25 399.989257812 111.083346302 506.93359375 271 506.93359375 c 0
 468.542109871 506.93359375 519.619140625 378.440258248 519.619140625 264.159179688 c 0
 519.619140625 226.358398438 514 198.5 514 198.5 c 1
 143.5 195.5 l 1
 128.5 290 l 1
 375 294 l 1
 375 294 374.94053129 297.174270817 374.364775743 301.999999828 c 0
 372.579542787 335.769249286 350.080193086 387.93359375 278 387.93359375 c 0
 193.497564774 387.93359375 171 322.036650815 171 251.93359375 c 0
EndSplineSet
Substitution2: "'ss17' Style Set 17 lookup 29-1" e.ss17
Substitution2: "'ss15' Style Set 15 lookup 23-1" e.ss15
Substitution2: "'ss04' Style Set 4 lookup 12-1" e.ss04
EndChar

StartChar: s
Encoding: 83 115 10
Width: 388
Flags: W
HStem: 495.9 20G<288.803 292.192>
VStem: 30 161.432<320.759 380.344> 198.438 159.852<129.01 195.256>
LayerCount: 2
Fore
SplineSet
288.802734375 515.900390625 m 1
 307.732421875 404.200195312 l 1
 307.732421875 404.200195312 191.431640625 397.692241938 191.431640625 352 c 0
 191.431640625 334.26988567 203.016190774 322.041004739 255.015625 299.580566406 c 0
 328.09365523 267.588461911 358.2890625 227.770884932 358.2890625 164.5 c 0
 358.2890625 -20.0535296764 68.0390625 -23.900390625 68.0390625 -23.900390625 c 1
 51.0693359375 94.400390625 l 1
 51.0693359375 94.400390625 198.4375 100.847032055 198.4375 159 c 0
 198.4375 184.295205032 179.611234841 197.540518947 132.036132812 218.200195312 c 0
 55.9599696402 253.138629969 30 287.050127813 30 343.5 c 0
 30 511.515973267 288.802734375 515.900390625 288.802734375 515.900390625 c 1
EndSplineSet
EndChar

StartChar: b
Encoding: 66 98 11
Width: 672
Flags: W
HStem: -10.0664 130<318.637 453.141> 0 21G<103.83 260.159> 376.934 130<311.815 453.141> 634.075 120.927<13.6201 108.151>
VStem: 108.151 146.578<273.934 634.075> 182 78.1592<121.651 416.323> 500.5 146.5<169.484 325.761>
LayerCount: 2
Fore
SplineSet
264.5 246.93359375 m 0xb2
 264.5 169.321710325 310.193779839 119.93359375 382 119.93359375 c 0
 454.417551185 119.93359375 500.5 169.321710325 500.5 246.93359375 c 0
 500.5 326.378480569 454.417551185 376.93359375 382 376.93359375 c 0
 310.193779839 376.93359375 264.5 326.378480569 264.5 246.93359375 c 0xb2
182 273.93359375 m 0xb6
 182 416.323242187 272.221679688 506.93359375 414 506.93359375 c 0
 556.389648438 506.93359375 647 405.823242188 647 246.93359375 c 0
 647 89.8779296875 556.389648438 -10.06640625 414 -10.06640625 c 0
 262.432617188 -10.06640625 182 121.650878906 182 273.93359375 c 0xb6
254.729492188 755.001953125 m 1x7a
 260.159179688 0 l 1x76
 103.830078125 0 l 1
 108.151367188 634.075195312 l 1
 10 632.071289062 l 1
 13.6201171875 755.001953125 l 1
 254.729492188 755.001953125 l 1x7a
EndSplineSet
EndChar

StartChar: grave
Encoding: 64 96 12
Width: 230
Flags: W
HStem: 521.72 218.784
VStem: 6 218.518
LayerCount: 2
Fore
SplineSet
84.6767578125 740.50390625 m 1
 224.517578125 577.465820312 l 1
 173.080078125 521.719726562 l 1
 6 655.18359375 l 1
 84.6767578125 740.50390625 l 1
EndSplineSet
EndChar

StartChar: q
Encoding: 81 113 13
Width: 682
Flags: W
HStem: -173.994 120.927<566.849 663.38> -10.0664 130<218.859 353.363> 376.934 130<218.859 360.185> 476.934 20G<416.859 564.267>
VStem: 25 146.5<169.484 325.761> 417 147.17<273.934 496.934> 417 73<121.651 416.323>
LayerCount: 2
Fore
SplineSet
407.5 246.93359375 m 0xe8
 407.5 326.378320313 361.805995197 376.93359375 290 376.93359375 c 0
 217.582602761 376.93359375 171.5 326.378320313 171.5 246.93359375 c 0
 171.5 169.32177231 217.582602761 119.93359375 290 119.93359375 c 0
 361.805995197 119.93359375 407.5 169.32177231 407.5 246.93359375 c 0xe8
490 273.93359375 m 0xea
 490 121.651121386 409.567318282 -10.06640625 258 -10.06640625 c 0
 115.610445792 -10.06640625 25 89.8779296875 25 246.93359375 c 0
 25 405.823242188 115.610445792 506.93359375 258 506.93359375 c 0
 399.778221366 506.93359375 490 416.323049502 490 273.93359375 c 0xea
412.270507812 -173.994140625 m 1
 417 496.93359375 l 1
 564.169921875 496.93359375 l 1xdc
 566.848632812 -53.0673828125 l 1
 667 -51.0634765625 l 1
 663.379882812 -173.994140625 l 1
 412.270507812 -173.994140625 l 1
EndSplineSet
EndChar

StartChar: a
Encoding: 65 97 14
Width: 677
Flags: W
HStem: -10.0664 130<218.859 353.363> 0 120.927<566.849 663.38> 376.934 130<218.859 360.185> 477.002 20G<416.81 564.312>
VStem: 25 146.5<169.484 325.761> 407.5 159.349<169.322 326.378> 417 147.17<273.934 497.002> 417 73<121.651 416.323>
LayerCount: 2
Back
SplineSet
434 246.93359375 m 0xac
 434 342.267265625 377.222768499 402.93359375 288 402.93359375 c 0
 200.610229493 402.93359375 145 342.267265625 145 246.93359375 c 0
 145 153.432738 200.610229493 93.93359375 288 93.93359375 c 0
 377.222768499 93.93359375 434 153.432738 434 246.93359375 c 0xac
505 263.93359375 m 0xa9
 505 117.013180272 422.833855314 -10.06640625 268 -10.06640625 c 0
 122.554875959 -10.06640625 30 89.8779296875 30 246.93359375 c 0
 30 405.823242188 122.554875959 506.93359375 268 506.93359375 c 0
 412.833786481 506.93359375 505 412.434184942 505 263.93359375 c 0xa9
442.270507812 0 m 1x5c
 447 497.001953125 l 1
 554.169921875 497.001953125 l 1x5a
 556.848632812 90.9267578125 l 1
 662 92.9306640625 l 1
 658.379882812 0 l 1
 442.270507812 0 l 1x5c
EndSplineSet
Fore
SplineSet
407.5 246.93359375 m 0xac
 407.5 326.378320313 361.805995197 376.93359375 290 376.93359375 c 0
 217.582602761 376.93359375 171.5 326.378320313 171.5 246.93359375 c 0
 171.5 169.32177231 217.582602761 119.93359375 290 119.93359375 c 0
 361.805995197 119.93359375 407.5 169.32177231 407.5 246.93359375 c 0xac
490 273.93359375 m 0xa9
 490 121.651121386 409.567318282 -10.06640625 258 -10.06640625 c 0
 115.610445792 -10.06640625 25 89.8779296875 25 246.93359375 c 0
 25 405.823242188 115.610445792 506.93359375 258 506.93359375 c 0
 399.778221366 506.93359375 490 416.323049502 490 273.93359375 c 0xa9
412.270507812 0 m 1x5c
 417 497.001953125 l 1
 564.169921875 497.001953125 l 1x5a
 566.848632812 120.926757812 l 1
 667 122.930664062 l 1
 663.379882812 0 l 1
 412.270507812 0 l 1x5c
EndSplineSet
Substitution2: "'ss03' Style Set 3 lookup 11-1" a.ss03
EndChar

StartChar: h
Encoding: 72 104 15
Width: 648
Flags: W
HStem: 0 21G<118.83 275.159> 377.934 129<310.885 431.757> 634.075 120.927<13.6201 123.151>
VStem: 118.83 156.329<0 634.075> 461 152<-1.22201 345.468>
LayerCount: 2
Fore
SplineSet
183 253.93359375 m 1
 204.532395967 411.989257812 272.444236289 506.93359375 413 506.93359375 c 0
 544.775878906 506.93359375 613 429.158167288 613 278.93359375 c 0
 613 134.376969868 595.159179688 -15 595.159179688 -15 c 1
 440.830078125 0 l 1
 440.830078125 0 461 138.278127927 461 251.93359375 c 0
 461 331.911019259 437.798828125 377.93359375 372 377.93359375 c 0
 300.586232228 377.93359375 265.999744862 332.658203125 251 216.93359375 c 1
 183 253.93359375 l 1
269.729492188 755.001953125 m 1
 275.159179688 0 l 1
 118.830078125 0 l 1
 123.151367188 634.075195312 l 1
 10 632.071289062 l 1
 13.6201171875 755.001953125 l 1
 269.729492188 755.001953125 l 1
EndSplineSet
EndChar

StartChar: n
Encoding: 78 110 16
Width: 643
Flags: W
HStem: 0 21G<113.83 270.159> 376.075 120.927<13.6201 118.151> 377.934 129<305.885 426.757>
VStem: 113.83 156.329<0 253.934> 456 152<-1.22201 345.468>
LayerCount: 2
Fore
SplineSet
178 253.93359375 m 1xb8
 199.532395967 411.989257812 267.444236289 506.93359375 408 506.93359375 c 0
 539.775878906 506.93359375 608 429.158167288 608 278.93359375 c 0
 608 134.376969868 590.159179688 -15 590.159179688 -15 c 1
 435.830078125 0 l 1
 435.830078125 0 456 138.278127927 456 251.93359375 c 0
 456 331.911019259 432.798828125 377.93359375 367 377.93359375 c 0
 295.586232228 377.93359375 260.999744862 332.658203125 246 216.93359375 c 1
 178 253.93359375 l 1xb8
264.729492188 497.001953125 m 1xd8
 270.159179688 0 l 1
 113.830078125 0 l 1
 118.151367188 376.075195312 l 1
 10 374.071289062 l 1
 13.6201171875 497.001953125 l 1
 264.729492188 497.001953125 l 1xd8
EndSplineSet
EndChar

StartChar: I
Encoding: 41 73 17
Width: 468
Flags: W
HStem: 0 134<23.958 143.084 317.21 445.287> 588.08 142.931<28.748 146.279 314.135 435.857>
VStem: 143.084 174.126<134 589>
LayerCount: 2
Back
SplineSet
339.857421875 731.010742188 m 5
 345.287109375 0 l 5
 128.958007812 0 l 5
 133.279296875 560.083984375 l 5
 15.1279296875 558.080078125 l 5
 18.748046875 731.010742188 l 5
 339.857421875 731.010742188 l 5
EndSplineSet
Fore
SplineSet
435.857421875 731.010742188 m 1
 442.127929688 586 l 1
 314.134765625 589 l 1
 317.209960938 134 l 1
 448.26953125 138 l 1
 445.287109375 0 l 1
 23.9580078125 0 l 1
 20 136 l 1
 143.083984375 134 l 1
 146.279296875 590.083984375 l 1
 25.1279296875 588.080078125 l 1
 28.748046875 731.010742188 l 1
 435.857421875 731.010742188 l 1
EndSplineSet
EndChar

StartChar: c
Encoding: 67 99 18
Width: 471
Flags: W
HStem: -10.0664 131.5<228.412 409.427> 376.434 130.5<228.26 385.897>
VStem: 25 152<172.802 326.019>
LayerCount: 2
Back
SplineSet
20 249.93359375 m 0
 20 406.989257812 127.722105271 506.93359375 297 506.93359375 c 0
 415.535915516 506.93359375 465.916992188 450.782226562 465.916992188 450.782226562 c 1
 409.647460938 308.369140625 l 1
 409.647460938 308.369140625 373.776884975 346.93359375 318 346.93359375 c 4
 252.610710758 346.93359375 211 309.211914062 211 249.93359375 c 0
 211 180.822265625 247.426625003 154.52486356 323.040039062 139.244140625 c 0
 407.435563152 122.917258333 455.553710938 87 455.553710938 1.279296875 c 0
 455.553710938 -81.1748046875 404 -147 404 -147 c 1
 280 -97 l 1
 280 -97 295.76171875 -74 295.76171875 -54 c 0
 295.76171875 -29.5654296875 282.579369985 -17.3599949932 223.834960938 -5.6943359375 c 0
 112.853515625 16.3447265625 20 91.0439453125 20 249.93359375 c 0
EndSplineSet
Fore
SplineSet
25 249.93359375 m 0
 25 406.989257812 129.805441771 506.93359375 294.5 506.93359375 c 0
 407.772860835 506.93359375 455.916992188 455.782226562 455.916992188 455.782226562 c 1
 409.647460938 338.869140625 l 1
 409.647460938 338.869140625 368.884417743 376.43359375 305.5 376.43359375 c 0
 226.971741425 376.43359375 177 327.239856838 177 249.93359375 c 0
 177 171.40553711 222.336230468 121.43359375 311 121.43359375 c 0
 392.080585143 121.43359375 433.1484375 158.364257812 433.1484375 158.364257812 c 1
 465.146484375 30.81640625 l 1
 465.146484375 30.81640625 421.722253421 -10.06640625 287 -10.06640625 c 0
 126.888778272 -10.06640625 25 91.0439453125 25 249.93359375 c 0
EndSplineSet
EndChar

StartChar: equal
Encoding: 29 61 19
Width: 450
Flags: W
HStem: 182 116.5<155.333 416> 192.5 114.5<27.5 285.667> 358 124.5<95.8824 422> 366.5 111.5<28.5 352.118>
LayerCount: 2
Fore
SplineSet
27.5 307 m 1x40
 418.5 298.5 l 1
 416 182 l 1x80
 25 192.5 l 1
 27.5 307 l 1x40
28.5 478 m 1x10
 424.5 482.5 l 1
 422 358 l 1x20
 26 366.5 l 1
 28.5 478 l 1x10
EndSplineSet
EndChar

StartChar: k
Encoding: 75 107 20
Width: 613
Flags: W
HStem: 0 21G<118.83 275.159> 494 20G<446.31 488.34> 634.075 120.927<13.6201 123.151>
VStem: 118.83 156.329<0 634.075>
LayerCount: 2
Fore
SplineSet
466 514 m 25
 571 420 l 25
 391 255 l 25
 593 87 l 25
 481 -17 l 25
 212 256 l 25
 466 514 l 25
269.729492188 755.001953125 m 1
 275.159179688 0 l 1
 118.830078125 0 l 1
 123.151367188 634.075195312 l 1
 10 632.071289062 l 1
 13.6201171875 755.001953125 l 1
 269.729492188 755.001953125 l 1
EndSplineSet
Substitution2: "'ss06' Style Set 6 lookup 14-1" k.ss06
EndChar

StartChar: m
Encoding: 77 109 21
Width: 948
Flags: W
HStem: 0 21G<113.83 270.159> 376.075 120.927<13.6201 118.151> 377.934 129<311.215 420.118 633.756 739.112>
VStem: 113.83 156.329<0 253.934> 441 152<-0.407206 392.043> 761 152<-1.73913 356.044>
LayerCount: 2
Fore
SplineSet
498 253.93359375 m 1xbc
 518.204589844 411.989257812 601.112304688 506.93359375 733 506.93359375 c 0
 851.598144531 506.93359375 913 439.391601562 913 308.93359375 c 0
 913 149.623046875 895.159179688 -15 895.159179688 -15 c 1
 740.830078125 0 l 1
 740.830078125 0 761 154.744140625 761 281.93359375 c 0
 761 342.868164062 740.405273438 377.93359375 682 377.93359375 c 0
 627.094726563 377.93359375 581.375976562 332.658203125 566 216.93359375 c 1
 498 253.93359375 l 1xbc
178 253.93359375 m 1
 197.774902344 411.989257812 278.918457031 506.93359375 408 506.93359375 c 0
 529.892578125 506.93359375 593 439.391601562 593 308.93359375 c 0
 593 154.541015625 580.159179688 -5 580.159179688 -5 c 1
 430.830078125 0 l 1
 430.830078125 0 441 157.48828125 441 286.93359375 c 0
 441 344.694335938 420.405273438 377.93359375 362 377.93359375 c 0
 307.094726563 377.93359375 261.375976562 332.658203125 246 216.93359375 c 1
 178 253.93359375 l 1
264.729492188 497.001953125 m 1xdc
 270.159179688 0 l 1
 113.830078125 0 l 1
 118.151367188 376.075195312 l 1
 10 374.071289062 l 1
 13.6201171875 497.001953125 l 1
 264.729492188 497.001953125 l 1xdc
EndSplineSet
EndChar

StartChar: hyphen
Encoding: 13 45 23
Width: 380
Flags: W
HStem: 190 142<108.921 356.5> 199.5 130<23.5 268.079>
LayerCount: 2
Fore
SplineSet
23.5 329.5 m 1x40
 359.5 332 l 1
 356.5 190 l 1x80
 20.5 199.5 l 1
 23.5 329.5 l 1x40
EndSplineSet
EndChar

StartChar: three
Encoding: 19 51 24
Width: 581
Flags: W
HStem: -10.0664 141<101.555 336.859> 575.008 156<40 312.348>
VStem: 376.417 173.5<168.739 281.256>
LayerCount: 2
Fore
SplineSet
355 421 m 1
 363.86163051 421 380.226869913 419.334815859 399.439964191 413.999734681 c 0
 467.552643274 397.124999248 549.916992188 343.487946167 549.916992188 217.4921875 c 0
 549.916992188 68.4062239336 439.861541435 -10.06640625 266.916992188 -10.06640625 c 0
 92.2420733216 -10.06640625 18 34.0849609375 18 34.0849609375 c 1
 55 171 l 1
 55 171 132.277277523 130.93359375 239.916992188 130.93359375 c 0
 336.101347081 130.93359375 376.416992188 166.589485307 376.416992188 226.9921875 c 0
 376.416992188 277.930649039 335.93280736 312.9921875 255.916992188 312.9921875 c 0
 190.208231203 312.9921875 155.2578125 298.43359375 155.2578125 298.43359375 c 1
 129 387 l 1
 312.34765625 579.0078125 l 1
 31.5 575.0078125 l 1
 40 731.0078125 l 1
 519.016601562 731.0078125 l 1
 529.016601562 614.0078125 l 1
 355 421 l 1
EndSplineSet
Substitution2: "'onum' Oldstyle Figures lookup 27-1" three.osf
Substitution2: "'ss01' Style Set 1 lookup 9-1" three.ss01
Substitution2: "'frac' Diagonal Fractions in Latin lookup 26 subtable" three.numr
Substitution2: "'dnom' Denominators lookup 0 subtable" three.dnom
Substitution2: "'numr' Numerators lookup 0 subtable" three.numr
Substitution2: "'sinf' Scientific Inferiors lookup 0 subtable" three.inferior
Substitution2: "'sups' Superscript lookup 0 subtable" three.superior
EndChar

StartChar: eight
Encoding: 24 56 25
Width: 608
Flags: W
HStem: -10.0078 140.239<222.977 380.129> 603.656 135.336<239.317 376.002>
VStem: 30 158.311<162.232 277.234> 56.6787 157.621<484.718 580.161> 403.723 146.435<470.57 577.72> 409.193 169.735<160.281 259.734>
LayerCount: 2
Fore
SplineSet
299.500976562 130.231445312 m 0xe4
 367.522946884 130.231445312 409.193359375 160.377340876 409.193359375 209.586914062 c 0xe4
 409.193359375 256.902418453 374.204143745 284.989943467 269.251953125 319.103515625 c 0
 126.981732559 366.29489618 56.6787109375 431.691189157 56.6787109375 536 c 0
 56.6787109375 660.085723141 154.585604715 738.9921875 308.55078125 738.9921875 c 0
 456.610246149 738.9921875 550.157226562 669.31262037 550.157226562 543.611328125 c 0
 550.157226562 399.935756231 379.053710938 347 379.053710938 347 c 1
 295.579101562 401.384765625 l 1
 295.579101562 401.384765625 403.72265625 453.239169711 403.72265625 522.682617188 c 0
 403.72265625 573.036786049 367.536804178 603.65625 308.02734375 603.65625 c 0
 250.223105034 603.65625 214.299804688 575.235860705 214.299804688 529.504882812 c 0xd8
 214.299804688 488.088046043 242.254884511 468.214421019 333.245117188 441.96484375 c 0
 512.943588987 391.108438327 578.928710938 330.722611525 578.928710938 211.379882812 c 0
 578.928710938 73.3772636656 475.986297642 -10.0078125 305.616210938 -10.0078125 c 0
 140.088647488 -10.0078125 30 72.9892081908 30 197.782226562 c 0
 30 346.337831349 193.459960938 394.984375 193.459960938 394.984375 c 1
 282.620117188 333.284179688 l 1
 282.620117188 333.284179688 188.310546875 295.705721518 188.310546875 214.694335938 c 0
 188.310546875 163.547412206 232.169058547 130.231445312 299.500976562 130.231445312 c 0xe4
EndSplineSet
Substitution2: "'onum' Oldstyle Figures lookup 27-1" eight.osf
Substitution2: "'frac' Diagonal Fractions in Latin lookup 26 subtable" eight.numr
Substitution2: "'dnom' Denominators lookup 0 subtable" eight.dnom
Substitution2: "'numr' Numerators lookup 0 subtable" eight.numr
Substitution2: "'sinf' Scientific Inferiors lookup 0 subtable" eight.inferior
Substitution2: "'sups' Superscript lookup 0 subtable" eight.superior
EndChar

StartChar: g
Encoding: 71 103 26
Width: 606
Flags: W
HStem: -196.994 119.931<163.891 282.492> 24.9336 121.5<217.581 357.438> 383.434 123.5<217.581 356.194> 477.934 20G<408.601 554.271>
VStem: 25 146.5<192.65 337.536> 413.922 147.078<7.25771 496.264>
LayerCount: 2
Back
SplineSet
382.270507812 -173.994140625 m 5
 387 496.93359375 l 5
 574.169921875 496.93359375 l 5xf8
 576.848632812 -23.0673828125 l 5
 672 -21.0634765625 l 5
 668.379882812 -173.994140625 l 5
 382.270507812 -173.994140625 l 5
EndSplineSet
Fore
SplineSet
399.5 264.93359375 m 0xec
 399.5 337.350517579 355.944863506 383.43359375 287.5 383.43359375 c 0
 216.610395952 383.43359375 171.5 337.739404298 171.5 265.93359375 c 0
 171.5 192.905147592 216.610395952 146.43359375 287.5 146.43359375 c 0
 355.944863506 146.43359375 399.5 192.516264296 399.5 264.93359375 c 0xec
477 281.43359375 m 0
 477 143.896783322 419.32082014 24.93359375 251.5 24.93359375 c 0
 113.082686575 24.93359375 25 118.07238152 25 264.43359375 c 0
 25 412.628746619 113.082686575 506.93359375 251.5 506.93359375 c 0
 389.305986715 506.93359375 477 419.239697922 477 281.43359375 c 0
561 83 m 0
 561 -58 517.547114824 -180.994140625 163.890625 -196.994140625 c 1
 140.270507812 -77.0634765623 l 1
 356.803660097 -59.8013462497 413.921875 -19.7676572372 413.921875 96.9326171875 c 0
 413.921875 281 408.600585938 494.93359375 408.600585938 494.93359375 c 1
 554.270507812 497.93359375 l 1xdc
 554.270507812 497.93359375 561 247 561 83 c 0
EndSplineSet
Substitution2: "'ss05' Style Set 5 lookup 13-1" g.ss05
EndChar

StartChar: u
Encoding: 85 117 27
Width: 643
Flags: W
HStem: -9.93164 129<215.654 323.058> 0 120.927<527.849 629.38> 477.002 20G<54.3408 207.17 377.81 525.312>
VStem: 35 152<151.119 499.319> 378 147.17<213.068 497.002>
LayerCount: 2
Fore
SplineSet
373.270507812 0 m 1x78
 378 497.001953125 l 1
 525.169921875 497.001953125 l 1
 527.848632812 120.926757812 l 1
 633 122.930664062 l 1
 629.379882812 0 l 1
 373.270507812 0 l 1x78
455 213.068359375 m 1
 436.798319328 122 382.885569853 -9.931640625 227 -9.931640625 c 0
 104.9296875 -9.931640625 35 67.8438216743 35 227.034179688 c 0
 35 361.887266178 54.3408203125 510.501953125 54.3408203125 510.501953125 c 1
 207.169921875 498.501953125 l 1
 207.169921875 498.501953125 187 359.400717679 187 245.068359375 c 0
 187 165.090752181 210.201016192 119.068359375 276 119.068359375 c 0xb8
 343.712096496 119.068359375 378.461538461 161.781675433 387 250.068359375 c 1
 455 213.068359375 l 1
EndSplineSet
EndChar

StartChar: exclam
Encoding: 1 33 28
Width: 256
Flags: W
HStem: -10 184<65.5924 190.408> 234.635 496.365<65.5163 189.487>
VStem: 36 184<19.5924 144.408>
LayerCount: 2
Fore
SplineSet
37.5 731 m 1
 218.5 731 l 1
 189.5 227 l 1
 189.5 227 171.56849315 234.634765625 130 234.634765625 c 0
 87.8269230769 234.634765625 65.5 225 65.5 225 c 1
 37.5 731 l 1
36 82 m 0
 36 138.222585227 71.7774147728 174 128 174 c 0
 184.222585228 174 220 138.222585227 220 82 c 0
 220 25.7774147727 184.222585228 -10 128 -10 c 0
 71.7774147728 -10 36 25.7774147727 36 82 c 0
EndSplineSet
Substitution2: "'ss16' Style Set 16 lookup 26-1" exclam.ss16
EndChar

StartChar: r
Encoding: 82 114 29
Width: 488
Flags: W
HStem: 0 21G<113.83 270.159> 376.075 120.927<13.6201 118.151> 496.934 20G<387.626 426.343>
VStem: 113.83 156.329<0 284.607>
LayerCount: 2
Fore
SplineSet
417 516.93359375 m 1xb0
 480.068359375 381.926757812 l 1
 248.962890625 284.607421875 l 1
 210.669921875 376.447265625 l 1
 417 516.93359375 l 1xb0
264.729492188 497.001953125 m 1xd0
 270.159179688 0 l 1
 113.830078125 0 l 1
 118.151367188 376.075195312 l 1
 10 374.071289062 l 1
 13.6201171875 497.001953125 l 1
 264.729492188 497.001953125 l 1xd0
EndSplineSet
Substitution2: "'ss07' Style Set 7 lookup 15-1" r.ss07
EndChar

StartChar: f
Encoding: 70 102 30
Width: 433
Flags: W
HStem: 0 21G<113.335 268.637> 373.5 123.5<21 232.053> 480 20G<190 403.559>
VStem: 94.8691 153.533<495.76 622.913> 115.994 148.644<0 479.012>
LayerCount: 2
Fore
SplineSet
21 497 m 1xc0
 190 493 l 1
 404 500 l 1xa0
 401 364 l 1
 187 378.5 l 1
 17 373.5 l 1
 21 497 l 1xc0
115.984375 412.096679688 m 2
 115.990869527 413.106855112 115.994108927 414.107764169 115.994108927 415.099599442 c 0x88
 115.994108927 495.588729918 94.869140625 516.320445797 94.869140625 580 c 0
 94.869140625 711.412976765 188.061410155 767.86158329 352.01953125 797.84375 c 1
 374.2265625 672.374023438 l 1
 282.677464788 653.591561854 248.40234375 621.441549288 248.40234375 561 c 0x90
 248.40234375 518.413263121 263.84734668 479.012059197 264.637695312 399.96484375 c 2
 268.63671875 0 l 1
 113.334960938 0 l 1
 115.984375 412.096679688 l 2
EndSplineSet
EndChar

StartChar: one
Encoding: 17 49 32
Width: 359
Flags: W
HStem: 0 21G<145.83 317.159> 593.084 137.927<23.6201 150.151>
VStem: 145.83 171.329<0 593.084>
LayerCount: 2
Fore
SplineSet
311.729492188 731.010742188 m 1
 317.159179688 0 l 1
 145.830078125 0 l 1
 150.151367188 593.083984375 l 1
 20 591.080078125 l 1
 23.6201171875 731.010742188 l 1
 311.729492188 731.010742188 l 1
EndSplineSet
Substitution2: "'onum' Oldstyle Figures lookup 27-1" one.osf
Substitution2: "'frac' Diagonal Fractions in Latin lookup 26 subtable" one.numr
Substitution2: "'dnom' Denominators lookup 0 subtable" one.dnom
Substitution2: "'numr' Numerators lookup 0 subtable" one.numr
Substitution2: "'sinf' Scientific Inferiors lookup 0 subtable" one.inferior
Substitution2: "'sups' Superscript lookup 0 subtable" one.superior
EndChar

StartChar: zero
Encoding: 16 48 33
Width: 675
Flags: W
HStem: -10.0664 156.351<266.998 407.195> 582.583 156.351<266.998 407.195>
VStem: 25 162.987<241.587 484.391> 487.013 162.987<241.587 484.391>
LayerCount: 2
Fore
SplineSet
187.987304688 361.704101562 m 0
 187.987304688 230.058347701 245.818565698 146.284179688 336.697265625 146.284179688 c 0
 428.557085078 146.284179688 487.012695312 230.058347701 487.012695312 361.704101562 c 0
 487.012695312 496.686435636 428.557085078 582.583007812 336.697265625 582.583007812 c 0
 245.818565698 582.583007812 187.987304688 496.686435636 187.987304688 361.704101562 c 0
25 361.93359375 m 0
 25 592.322641811 146.333201605 738.93359375 337 738.93359375 c 0
 528.278172693 738.93359375 650 592.322641811 650 361.93359375 c 0
 650 134.599173678 528.278172693 -10.06640625 337 -10.06640625 c 0
 146.333201605 -10.06640625 25 134.599173678 25 361.93359375 c 0
EndSplineSet
Substitution2: "'onum' Oldstyle Figures lookup 27-1" zero.osf
Substitution2: "'frac' Diagonal Fractions in Latin lookup 26 subtable" zero.numr
Substitution2: "'dnom' Denominators lookup 0 subtable" zero.dnom
Substitution2: "'numr' Numerators lookup 0 subtable" zero.numr
Substitution2: "'sinf' Scientific Inferiors lookup 0 subtable" zero.inferior
Substitution2: "'sups' Superscript lookup 0 subtable" zero.superior
EndChar

StartChar: uni0237
Encoding: 424 567 35
Width: 320
Flags: W
HStem: 376.084 120.927<13.6201 118.151>
VStem: 113.83 156.329<20 376.084>
LayerCount: 2
Fore
SplineSet
264.729492188 497.010742188 m 1
 270.159179688 0 l 1
 146 -194 l 1
 6 -118 l 1
 113.830078125 20 l 1
 118.151367188 376.083984375 l 1
 10 374.080078125 l 1
 13.6201171875 497.010742188 l 1
 264.729492188 497.010742188 l 1
EndSplineSet
EndChar

StartChar: y
Encoding: 89 121 36
Width: 593
Flags: W
HStem: 491 20G<10 234.591 434.026 524.167>
LayerCount: 2
Fore
SplineSet
337.905273438 149.1328125 m 1
 322 35 l 1
 232.174804688 35 l 1
 120.151367188 380.5 l 1
 17.0458984375 372 l 1
 10 497 l 1
 228.546875 511 l 1
 337.905273438 149.1328125 l 1
287.469726563 64.8740234375 m 2
 440.904296875 511 l 1
 582.450195312 477 l 1
 423.607421875 50 l 2
 359.977937467 -121.052508076 279 -225 279 -225 c 1
 149 -153.994140625 l 1
 149 -153.994140625 256.314938119 -24.9360935541 287.469726563 64.8740234375 c 2
EndSplineSet
Substitution2: "'ss08' Style Set 8 lookup 16-1" y.ss08
EndChar

StartChar: x
Encoding: 88 120 37
Width: 568
Flags: W
HStem: 494 20G<117.404 225.269 408.115 453.194>
LayerCount: 2
Fore
SplineSet
421.884277344 514 m 1
 553.384277344 430 l 1
 407.384277344 254 l 1
 568.384277344 73 l 1
 439.384277344 -17 l 1
 242.884277344 254 l 1
 421.884277344 514 l 1
136.526855469 373.638671875 m 1
 29.5649414062 348.97265625 l 1
 5.61572265625 470.3359375 l 1
 211.884277344 514 l 1
 385.884277344 254 l 1
 189.384277344 -17 l 1
 60.3842773438 73 l 1
 221.384277344 254 l 1
 136.526855469 373.638671875 l 1
EndSplineSet
EndChar

StartChar: S
Encoding: 51 83 38
Width: 487
Flags: W
HStem: 718.393 20G<370.19 373.339>
VStem: 30 187.269<475.327 547.18> 268.121 189.215<193.781 279.546>
LayerCount: 2
Fore
SplineSet
370.190429688 738.392578125 m 1
 392.041015625 599.592773438 l 1
 392.041015625 599.592773438 217.268554687 584.967059755 217.268554688 516.93359375 c 0
 217.268554688 485.494443112 237.273030975 465.252626219 333.284179688 420.150390625 c 0
 425.161354488 376.962565669 457.3359375 324.819999357 457.3359375 241.044921875 c 0
 457.3359375 -14.2261042506 80.4423828125 -19.8779296875 80.4423828125 -19.8779296875 c 1
 61.220703125 131.682617188 l 1
 61.220703125 131.682617188 268.12109375 142.125786314 268.12109375 236 c 0
 268.12109375 266.15960009 253.8383563 285.926045852 181.401367188 317.655273438 c 0
 58.5449218749 374.770569464 30 427.553045434 30 507.547851562 c 0
 30 732.312313228 370.190429688 738.392578125 370.190429688 738.392578125 c 1
EndSplineSet
EndChar

StartChar: v
Encoding: 86 118 39
Width: 593
Flags: W
HStem: 0 21G<240.498 412.064> 491 20G<10 234.743 434.492 524.167>
LayerCount: 2
Fore
SplineSet
404.607421875 0 m 1
 247.174804688 0 l 1
 120.151367188 380.5 l 1
 17.0458984375 372 l 1
 10 497 l 1
 228.546875 511 l 1
 332.905273438 174.1328125 l 1
 440.904296875 511 l 1
 582.450195312 477 l 1
 404.607421875 0 l 1
EndSplineSet
EndChar

StartChar: w
Encoding: 87 119 40
Width: 862
Flags: W
HStem: 0 21G<237.656 406.322 543.588 704.889> 491 20G<10 234.783 433.52 526.108 713.695 800.225>
LayerCount: 2
Fore
SplineSet
398.607421875 0 m 1
 244.174804688 0 l 1
 120.151367188 380.5 l 1
 17.0458984375 372 l 1
 10 497 l 1
 228.546875 511 l 1
 331.405273438 181.1328125 l 1
 439.904296875 521 l 1
 586.450195312 487 l 1
 398.607421875 0 l 1
698.107421875 0 m 1
 551.174804688 0 l 1
 417.651367188 352 l 1
 525 453 l 1
 620.905273438 182.1328125 l 1
 719.904296875 501 l 1
 856.450195312 467 l 1
 698.107421875 0 l 1
EndSplineSet
EndChar

StartChar: six
Encoding: 22 54 41
Width: 619
Flags: W
HStem: -10 140.358<246.325 385.515> 360.509 124.218<245.979 385.67> 601.533 147.459<386.194 494.198>
VStem: 30 172.375<173.069 316.931> 429.125 159.691<173.71 318.053>
LayerCount: 2
Back
SplineSet
498.310546875 748.9921875 m 1
 512 637.533203125 l 1
 175.065365254 610.146952891 170.458007812 416.932617188 170.458007812 416.932617188 c 1
 170.458007812 416.932617188 215.209080523 483.7265625 336.600585938 483.7265625 c 0
 472.674581172 483.7265625 572.31640625 388.819152798 572.31640625 245.249023438 c 0
 572.31640625 100.798835154 490.925518401 -10 316.310546875 -10 c 0
 170.896357089 -10 45 80.6409024463 45 300.348632812 c 4
 45 516.020480109 153.586977651 728.185507446 498.310546875 748.9921875 c 1
176.375 242.858398438 m 0
 176.375 154.857510653 229.905346038 98.8583984375 314.025390625 98.8583984375 c 0
 398.725511696 98.8583984375 452.625 154.857510653 452.625 242.858398438 c 0
 452.625 329.728081597 398.725511696 385.008789062 314.025390625 385.008789062 c 0
 229.905346038 385.008789062 176.375 329.728081597 176.375 242.858398438 c 0
EndSplineSet
Fore
SplineSet
493.310546875 748.9921875 m 1
 512 601.533203125 l 1
 221.593184233 581.378289458 210.958007812 440.432617188 210.958007812 440.432617188 c 1
 210.958007812 440.432617188 250.995395558 484.7265625 359.600585938 484.7265625 c 0
 496.814288037 484.7265625 588.81640625 391.411041243 588.81640625 250.249023438 c 0
 588.81640625 107.969241796 512.950474537 -10 316.310546875 -10 c 0
 144.85247288 -10 30 87.3932717406 30 306.348632812 c 0
 30 519.13616121 140.982399032 728.463768616 493.310546875 748.9921875 c 1
202.375 246.358398438 m 0
 202.375 175.468794389 246.572075721 130.358398438 316.025390625 130.358398438 c 0
 385.142112168 130.358398438 429.125 175.468794389 429.125 246.358398438 c 0
 429.125 316.116970486 385.142112168 360.508789062 316.025390625 360.508789062 c 0
 246.572075721 360.508789062 202.375 316.116970486 202.375 246.358398438 c 0
EndSplineSet
Substitution2: "'onum' Oldstyle Figures lookup 27-1" six.osf
Substitution2: "'frac' Diagonal Fractions in Latin lookup 26 subtable" six.numr
Substitution2: "'dnom' Denominators lookup 0 subtable" six.dnom
Substitution2: "'numr' Numerators lookup 0 subtable" six.numr
Substitution2: "'sinf' Scientific Inferiors lookup 0 subtable" six.inferior
Substitution2: "'sups' Superscript lookup 0 subtable" six.superior
EndChar

StartChar: z
Encoding: 90 122 42
Width: 461
Flags: W
HStem: 0 132.5<222.669 423.017> 366 131<38 229.348>
LayerCount: 2
Fore
SplineSet
30 366 m 1
 38 497 l 1
 394.016601562 497 l 1
 421.016601562 395.5 l 1
 222.668945312 132.5 l 1
 431.016601562 137 l 1
 423.016601562 0 l 1
 46 0 l 1
 22 96.5 l 1
 229.34765625 370.5 l 1
 30 366 l 1
EndSplineSet
EndChar

StartChar: O
Encoding: 47 79 43
Width: 785
Flags: W
HStem: -10.0664 162.851<299.594 478.254> 576.083 162.851<299.594 478.254>
VStem: 30 171.487<258.997 466.685> 583.513 171.487<261.252 464.372>
LayerCount: 2
Back
SplineSet
295.487304688 361.704101562 m 0
 295.487304688 247.780273438 320.957605563 175.284179688 376.697265625 175.284179688 c 0
 439.529183996 175.284179688 469.512695312 247.780273438 469.512695312 361.704101562 c 0
 469.512695312 478.963867188 439.529183996 553.583007812 376.697265625 553.583007812 c 0
 320.957605563 553.583007812 295.487304688 478.963867188 295.487304688 361.704101562 c 0
90 361.93359375 m 0
 90 592.322265625 195.499874605 738.93359375 377 738.93359375 c 0
 565.222610829 738.93359375 675 592.322265625 675 361.93359375 c 0
 675 134.599609375 565.222610829 -10.06640625 377 -10.06640625 c 0
 195.499874605 -10.06640625 90 134.599609375 90 361.93359375 c 0
EndSplineSet
Fore
SplineSet
201.487304688 361.704101562 m 0
 201.487304688 233.258865694 277.53671448 152.784179688 386.697265625 152.784179688 c 0
 503.019131283 152.784179688 583.512695312 233.258865694 583.512695312 361.704101562 c 0
 583.512695312 493.481337689 503.019131283 576.083007812 386.697265625 576.083007812 c 0
 277.53671448 576.083007812 201.487304688 493.481337689 201.487304688 361.704101562 c 0
30 361.93359375 m 0
 30 592.322641811 168.833182606 738.93359375 387 738.93359375 c 0
 611.889353198 738.93359375 755 592.322641811 755 361.93359375 c 0
 755 134.599173678 611.889353198 -10.06640625 387 -10.06640625 c 0
 168.833182606 -10.06640625 30 134.599173678 30 361.93359375 c 0
EndSplineSet
EndChar

StartChar: L
Encoding: 44 76 44
Width: 620
Flags: W
HStem: 0 141.293<309.065 601.539> 590.084 140.927<18.6201 138.151>
VStem: 133.43 175.635<141.293 590.084>
LayerCount: 2
Fore
SplineSet
309.06462409 141.292850645 m 1
 605.159179688 142.930664062 l 1
 601.5390625 0 l 1
 133.4296875 0 l 1
 138.151367188 590.083984375 l 1
 15 588.080078125 l 1
 18.6201171875 731.010742188 l 1
 304.729492188 731.009882812 l 1
 309.06462409 141.292850645 l 1
EndSplineSet
EndChar

StartChar: K
Encoding: 43 75 45
Width: 757
Flags: W
HStem: 0 21G<133.83 310.159> 590.084 140.927<13.6201 138.151>
VStem: 133.83 176.329<0 590.084>
LayerCount: 2
Fore
SplineSet
304.729492188 731.010742188 m 1
 310.159179688 0 l 1
 133.830078125 0 l 1
 138.151367188 590.083984375 l 1
 10 588.080078125 l 1
 13.6201171875 731.010742188 l 1
 304.729492188 731.010742188 l 1
563 745.0078125 m 1
 707 641.0078125 l 1
 453.5 361.5 l 1
 732 88 l 1
 588 -27 l 1
 246.5 361.5 l 1
 563 745.0078125 l 1
EndSplineSet
EndChar

StartChar: J
Encoding: 42 74 46
Width: 370
Flags: W
HStem: 590.084 140.927<23.6201 148.151>
VStem: 143.83 176.329<65 590.084>
LayerCount: 2
Fore
SplineSet
314.729492188 731.010742188 m 1
 320.159179688 30 l 1
 163 -192 l 1
 10 -105 l 1
 143.830078125 65 l 1
 148.151367188 590.083984375 l 1
 20 588.080078125 l 1
 23.6201171875 731.010742188 l 1
 314.729492188 731.010742188 l 1
EndSplineSet
Substitution2: "'ss12' Style Set 12 lookup 20-1" J.ss12
EndChar

StartChar: H
Encoding: 40 72 47
Width: 780
Flags: W
HStem: 0 21G<133.83 310.159 553.83 730.159> 265 142<371.091 604> 276 127<242 470.909> 590.084 140.927<23.6201 138.151 443.62 558.151>
VStem: 133.83 176.329<0 276 403 590.084> 238 72.1592<276 403> 553.83 176.329<0 265 407 590.084>
LayerCount: 2
Back
SplineSet
252 393 m 1xb6
 608 397 l 1
 604 285 l 1xd6
 248 296 l 1
 252 393 l 1xb6
704.729492188 731.010742188 m 1
 710.159179688 0 l 1
 573.830078125 0 l 1
 578.151367188 620.083984375 l 1
 440 618.080078125 l 5
 443.620117188 731.010742188 l 5
 704.729492188 731.010742188 l 1
294.729492188 731.010742188 m 1
 300.159179688 0 l 1
 163.830078125 0 l 1x9a
 168.151367188 620.083984375 l 1
 30 618.080078125 l 5
 33.6201171875 731.010742188 l 5
 294.729492188 731.010742188 l 1
EndSplineSet
Fore
SplineSet
242 403 m 1xb6
 608 407 l 1
 604 265 l 1xd6
 238 276 l 1
 242 403 l 1xb6
724.729492188 731.010742188 m 1
 730.159179688 0 l 1
 553.830078125 0 l 1
 558.151367188 590.083984375 l 1
 440 588.080078125 l 1
 443.620117188 731.010742188 l 1
 724.729492188 731.010742188 l 1
304.729492188 731.010742188 m 1
 310.159179688 0 l 1
 133.830078125 0 l 1x9a
 138.151367188 590.083984375 l 1
 20 588.080078125 l 1
 23.6201171875 731.010742188 l 1
 304.729492188 731.010742188 l 1
EndSplineSet
EndChar

StartChar: backslash
Encoding: 60 92 48
Width: 497
Flags: W
LayerCount: 2
Back
SplineSet
506 -123.994140625 m 1
 317 -175.994140625 l 1
 178.016601562 331 l 1
 1 763.001953125 l 1
 190 815.001953125 l 1
 308.362304688 379 l 1
 506 -123.994140625 l 1
EndSplineSet
Fore
SplineSet
476 -128.994140625 m 1
 337 -170.994140625 l 1
 21 768.001953125 l 1
 160 810.001953125 l 1
 476 -128.994140625 l 1
EndSplineSet
EndChar

StartChar: F
Encoding: 38 70 49
Width: 620
Flags: W
HStem: 0 21G<133.83 310.159> 250 142<281.684 544> 259.5 130<192 450.316> 588.08 142.931<23.6201 138.151 306.104 588.729>
VStem: 188 122.159<259.5 389.5>
LayerCount: 2
Fore
SplineSet
192 389.5 m 1xb8
 548 392 l 1
 544 250 l 1xd8
 188 259.5 l 1
 192 389.5 l 1xb8
588.729492188 731.010742188 m 1
 594.61328125 584 l 1
 306.103515625 588 l 1
 310.159179688 0 l 1
 133.830078125 0 l 1
 138.151367188 590.083984375 l 1
 20 588.080078125 l 1
 23.6201171875 731.010742188 l 1
 588.729492188 731.010742188 l 1
EndSplineSet
EndChar

StartChar: E
Encoding: 37 69 50
Width: 620
Flags: W
HStem: 0 141.481<309.017 596.539> 293 142<281.684 544> 302.5 130<192 450.316> 588.08 142.931<23.6201 138.151 306.104 588.729>
VStem: 188 121.017<302.5 432.5>
LayerCount: 2
Fore
SplineSet
192 432.5 m 1xb8
 548 435 l 1
 544 293 l 1xd8
 188 302.5 l 1
 192 432.5 l 1xb8
588.729492188 731.010742188 m 1
 594.61328125 584 l 1
 306.103515625 588 l 1
 309.017416519 141.480670331 l 1
 329.06462409 141.292850645 l 1
 600.159179688 142.930664062 l 1
 596.5390625 0 l 1
 133.4296875 0 l 1
 138.151367188 590.083984375 l 1
 20 588.080078125 l 1
 23.6201171875 731.010742188 l 1
 588.729492188 731.010742188 l 1
EndSplineSet
Substitution2: "'ss15' Style Set 15 lookup 23-1" E.ss15
EndChar

StartChar: N
Encoding: 46 78 51
Width: 790
Flags: W
HStem: -10 21G<571.376 740.539> 0 21G<140.21 306.539> 588.08 142.931<24.3799 144.531>
VStem: 140.21 166.329<0 426.793> 578.151 162.388<294.889 731.011>
LayerCount: 2
Fore
SplineSet
735.109375 731.010742188 m 1x78
 740.5390625 0 l 1x78
 584.209960938 -10 l 1xb8
 303.92578125 426.79296875 l 1
 306.5390625 0 l 1
 140.209960938 0 l 1
 144.53125 594.083984375 l 1
 24.3798828125 588.080078125 l 1
 20 731.010742188 l 1
 321.109375 741.010742188 l 1
 578.151367188 294.888671875 l 1
 582 731.010742188 l 1
 735.109375 731.010742188 l 1x78
EndSplineSet
EndChar

StartChar: bar
Encoding: 92 124 52
Width: 246
Flags: W
VStem: 50 146.329<-170 788.992>
LayerCount: 2
Back
SplineSet
220.899414062 788.9921875 m 1
 193.418945312 334 l 1
 226.329101562 -170 l 1
 30 -170 l 1
 63.3330078125 338 l 1
 36.169921875 788.9921875 l 1
 220.899414062 788.9921875 l 1
EndSplineSet
Fore
SplineSet
190.899414062 788.9921875 m 1
 196.329101562 -170 l 1
 50 -170 l 1
 56.169921875 788.9921875 l 1
 190.899414062 788.9921875 l 1
EndSplineSet
EndChar

StartChar: U
Encoding: 53 85 53
Width: 767
Flags: W
HStem: -10 152<351.721 505.149> 590.084 140.927<23.6201 145.151 430.62 547.151>
VStem: 133.517 168.643<193.352 589.079> 555.83 166.812<195.472 587.664>
LayerCount: 2
Fore
SplineSet
722.641601562 270.946289062 m 0
 722.641601562 85.0810974475 612.748120724 -10 428.830078125 -10 c 0
 236.367548744 -10 133.516601562 84.5172625506 133.516601562 290.099609375 c 0
 133.516601562 407.202459787 145.151367188 590.083984375 145.151367188 590.083984375 c 1
 20 588.080078125 l 1
 23.6201171875 731.010742188 l 1
 310.729492188 731.010742188 l 1
 310.729492188 731.010742188 302.159179688 403.488572129 302.159179688 289 c 0
 302.159179688 201.444063626 335.344828278 142 430 142 c 0
 517.733881177 142 555.830078125 195.445134091 555.830078125 289 c 0
 555.830078125 405.386271147 547.151367188 590.083984375 547.151367188 590.083984375 c 1
 427 588.080078125 l 1
 430.620117188 731.010742188 l 1
 709.729492188 731.010742188 l 1
 709.729492188 731.010742188 722.641601562 450.456085293 722.641601562 270.946289062 c 0
EndSplineSet
EndChar

StartChar: A
Encoding: 33 65 54
Width: 670
Flags: W
HStem: 143 143.5<241.684 504> 152.5 135<152 410.316> 564.069 156.931<55.8193 202.508> 711 20G<51.4395 430.375>
LayerCount: 2
Fore
SplineSet
152 287.5 m 1x40
 508 286.5 l 1
 504 143 l 1x80
 148 152.5 l 1
 152 287.5 l 1x40
202.5078125 569.112304688 m 1
 55.8193359375 564.069335938 l 1
 51.439453125 721 l 1x20
 423.548828125 731 l 1x10
 668.450195312 13.4111328125 l 1
 500.676757812 -15 l 1
 336.818359375 526.8671875 l 1
 166.319335938 -15 l 1
 0.2734375 17.5 l 1
 202.5078125 569.112304688 l 1
EndSplineSet
Substitution2: "'fina' Terminal Forms lookup 25-1" A.fina
Substitution2: "'init' Initial Forms lookup 24-1" A.init
Substitution2: "'ss14' Style Set 14 lookup 22-1" A.ss14
EndChar

StartChar: B
Encoding: 34 66 55
Width: 739
Flags: W
HStem: -10.0664 140.5<309.006 505.336> 312.492 113.941<309.098 477.897> 508.928 21G<43.9756 49.2695> 593.492 145.5<184.814 473.647> 593.492 20.7578<189.119 305.67>
VStem: 138 169.714<137.246 304.934 433.377 614.25> 508.917 166<455.733 563.065> 545.917 169<166.692 276.863>
LayerCount: 2
Fore
SplineSet
269.696289062 433.376953125 m 1xed
 269.696289062 433.376953125 303.447622081 426.43359375 387.916992188 426.43359375 c 0
 473.024658203 426.43359375 508.916992188 461.074069783 508.916992188 506.93359375 c 0
 508.916992188 563.413663 467.948585594 593.4921875 380.916992188 593.4921875 c 0
 189.119122721 593.4921875 49.26953125 508.927734375 49.26953125 508.927734375 c 1
 8 664.840820312 l 1
 8 664.840820312 121.015455494 738.9921875 386.916992188 738.9921875 c 0
 562.917098843 738.9921875 674.916992188 654.581054688 674.916992188 521.93359375 c 0xf6
 674.916992188 410.292034634 576.275390625 380.96875 576.275390625 380.96875 c 1
 576.275390625 380.96875 714.916992188 351.144528977 714.916992188 196.9921875 c 0
 714.916992188 70.4560546875 602.917098843 -10.06640625 426.916992188 -10.06640625 c 0
 224.172487982 -10.06640625 138 24.0849609375 138 24.0849609375 c 1
 143.940429688 614.25 l 1
 305.669921875 614.25 l 1
 307.713867188 137.24609375 l 1
 307.713867188 137.24609375 330.129605997 130.43359375 403.916992188 130.43359375 c 0
 499.301210207 130.43359375 545.916992188 163.211251549 545.916992188 220.9921875 c 0
 545.916992188 271.3171875 509.906561007 312.4921875 405 312.4921875 c 0
 306.529016578 312.4921875 269.7578125 304.93359375 269.7578125 304.93359375 c 1
 269.696289062 433.376953125 l 1xed
EndSplineSet
EndChar

StartChar: C
Encoding: 35 67 56
Width: 651
Flags: W
HStem: -10.0664 162<316.821 543.603> 580.992 158<324.946 528.637>
VStem: 30 184<254.358 465.452>
LayerCount: 2
Fore
SplineSet
30 361.93359375 m 0
 30 592.358449127 172.722067273 738.9921875 397 738.9921875 c 0
 571.675165443 738.9921875 645.916992188 662.840820312 645.916992188 662.840820312 c 1
 589.647460938 523.927734375 l 1
 589.647460938 523.927734375 525.20487634 580.9921875 425 580.9921875 c 0
 296.054766075 580.9921875 214 495.803959601 214 361.93359375 c 0
 214 233.599804686 283.019335937 151.93359375 418 151.93359375 c 0
 548.200847534 151.93359375 614.1484375 211.364257812 614.1484375 211.364257812 c 1
 661.146484375 57.31640625 l 1
 661.146484375 57.31640625 594.321700857 -10.06640625 387 -10.06640625 c 0
 168.833182606 -10.06640625 30 134.599173678 30 361.93359375 c 0
EndSplineSet
EndChar

StartChar: D
Encoding: 36 68 57
Width: 783
Flags: W
HStem: -10.0664 158.5<311.77 485.959> 508.928 21G<43.9756 49.2695> 577.492 161.5<315.123 480.909> 577.492 41.7578<177.51 305.67>
VStem: 143.94 161.729<153.847 619.25> 587.917 171<253.478 471.651>
LayerCount: 2
Fore
SplineSet
758.916992188 361.93359375 m 0xec
 758.916992188 134.599609375 618.139544489 -10.06640625 396.916992188 -10.06640625 c 0
 200.939310566 -10.06640625 137.770507812 37.31640625 137.770507812 37.31640625 c 1
 143.940429688 619.25 l 1
 305.669921875 619.25 l 1xdc
 309.002929688 153.846679688 l 1
 309.002929688 153.846679688 341.534741817 148.43359375 383.916992188 148.43359375 c 0
 518.897782337 148.43359375 587.916992188 231.4603125 587.916992188 361.93359375 c 0
 587.916992188 493.664896359 518.650147963 577.4921875 376.916992188 577.4921875 c 0
 177.510211451 577.4921875 49.26953125 508.927734375 49.26953125 508.927734375 c 1
 8 664.840820312 l 1
 8 664.840820312 121.015455494 738.9921875 386.916992188 738.9921875 c 0
 614.250875447 738.9921875 758.916992188 592.358398438 758.916992188 361.93359375 c 0xec
EndSplineSet
EndChar

StartChar: P
Encoding: 48 80 58
Width: 721
Flags: W
HStem: 0 21G<137.771 309.003> 189.934 145<308.706 480.851> 508.928 21G<44.4756 49.7695> 580.492 158.5<311.88 473.04> 580.492 38.7578<200.555 305.67>
VStem: 137.771 171.232<0 234.434 365.877 619.25> 529.917 167<383.865 530.371>
LayerCount: 2
Fore
SplineSet
309.002929688 0 m 1xee
 137.770507812 0 l 1
 143.940429688 619.25 l 1
 305.669921875 619.25 l 1
 309.002929688 0 l 1xee
274.196289062 365.876953125 m 1
 274.196289062 365.876953125 308.402821252 334.93359375 396.916992188 334.93359375 c 0
 484.089189637 334.93359375 529.916992188 380.437593502 529.916992188 453.93359375 c 0
 529.916992188 538.675659742 480.052916984 580.4921875 369.916992188 580.4921875 c 0
 200.554642436 580.4921875 49.76953125 508.927734375 49.76953125 508.927734375 c 1
 8.5 664.840820312 l 1
 8.5 664.840820312 121.366325925 738.9921875 386.916992188 738.9921875 c 0xf6
 578.165349082 738.9921875 696.916992188 633.401220836 696.916992188 448.93359375 c 0
 696.916992188 291.853719075 593.716779118 189.93359375 426.916992188 189.93359375 c 0
 313.528692805 189.93359375 245.2578125 234.43359375 245.2578125 234.43359375 c 1
 274.196289062 365.876953125 l 1
EndSplineSet
EndChar

StartChar: M
Encoding: 45 77 59
Width: 877
VWidth: 1111
Flags: W
HStem: 579.08 151.931<23 148.817>
LayerCount: 2
Back
SplineSet
198.817382812 545.212890625 m 1
 93 539.080078125 l 1
 88.6201171875 731.010742188 l 1
 430.729492188 741.010742188 l 1
 483 547 l 1
 552 740 l 1
 766 731 l 1
 825 5 l 1
 613 -9 l 1
 584 361 l 5
 486 160 l 5
 390 352 l 5
 356 -6 l 1
 155 9 l 1
 198.817382812 545.212890625 l 1
EndSplineSet
Fore
SplineSet
148.817432294 585.212921297 m 1
 23 579.080078125 l 1
 18.6201171875 731.010742188 l 1
 350.729492188 741.010742188 l 1
 477 452 l 1
 625 740 l 1
 799 731 l 1
 858 5 l 1
 681 -9 l 1
 652 466 l 1
 470 135 l 1
 300 457 l 1
 261 -6 l 1
 100 9 l 1
 148.817432294 585.212921297 l 1
EndSplineSet
Substitution2: "'fina' Terminal Forms lookup 25-1" M.fina
Substitution2: "'init' Initial Forms lookup 24-1" M.init
EndChar

StartChar: G
Encoding: 39 71 60
Width: 794
Flags: W
HStem: -10.0664 165<314.045 501.479> 256.319 142.931<683.565 770.097> 521.428 21G<604.647 611.898> 578.492 160.5<323.649 537.98>
VStem: 30 184<258.288 465.629> 518.558 169.329<-87.7607 122.316 222.364 258.323>
LayerCount: 2
Fore
SplineSet
523.987304688 399.25 m 1
 770.096679688 399.25 l 1
 773.716796875 256.319335938 l 1
 683.565429688 258.323242188 l 1
 687.88671875 -87.7607421875 l 1
 518.557617188 -87.7607421875 l 1
 523.987304688 399.25 l 1
30 361.93359375 m 0
 30 592.358449127 172.722067273 738.9921875 397 738.9921875 c 0
 578.692571684 738.9921875 655.916992188 662.840820312 655.916992188 662.840820312 c 1
 604.647460938 521.427734375 l 1
 604.647460938 521.427734375 532.376928769 578.4921875 420 578.4921875 c 0
 294.110340338 578.4921875 214 495.442817728 214 364.93359375 c 0
 214 236.599804686 281.327685547 154.93359375 413 154.93359375 c 0
 526.606164294 154.93359375 584.1484375 222.364257812 584.1484375 222.364257812 c 1
 641.146484375 122.31640625 l 1
 641.146484375 122.31640625 575.540479636 -10.06640625 372 -10.06640625 c 0
 162.999855605 -10.06640625 30 134.599173678 30 361.93359375 c 0
EndSplineSet
Substitution2: "'ss11' Style Set 11 lookup 19-1" G.ss11
EndChar

StartChar: T
Encoding: 52 84 61
Width: 590
Flags: W
HStem: 0 21G<201.83 378.159> 588 30<206.151 374.104> 588.08 142.931<18.6201 206.151 374.104 563.729>
VStem: 201.83 176.329<0 618>
LayerCount: 2
Fore
SplineSet
374.103515625 618 m 1xd0
 378.159179688 0 l 1
 201.830078125 0 l 1
 206.151367188 620.083984375 l 1
 374.103515625 618 l 1xd0
292.103515625 588 m 1
 15 588.080078125 l 1
 18.6201171875 731.010742188 l 1
 563.729492188 731.010742188 l 1xb0
 569.61328125 584 l 1
 292.103515625 588 l 1
EndSplineSet
EndChar

StartChar: V
Encoding: 54 86 62
Width: 774
Flags: W
HStem: 0 21G<323.116 511.089>
LayerCount: 2
Fore
SplineSet
503.607421875 0 m 1
 329.174804688 0 l 1
 150.151367188 591 l 1
 27.0458984375 583 l 1
 20 732 l 1
 278.546875 746 l 1
 428.905273438 214.1328125 l 1
 595.404296875 746 l 1
 769.950195312 712 l 1
 503.607421875 0 l 1
EndSplineSet
Substitution2: "'fina' Terminal Forms lookup 25-1" V.fina
Substitution2: "'init' Initial Forms lookup 24-1" V.init
EndChar

StartChar: W
Encoding: 55 87 63
Width: 1134
Flags: W
HStem: 0 21G<313.938 506.441 702.785 895.983> 716 20G<950.17 1058.58>
LayerCount: 2
Fore
SplineSet
499.107421875 0 m 1
 319.674804688 0 l 1
 150.151367188 591 l 1
 27.0458984375 583 l 1
 20 732 l 1
 278.546875 746 l 1
 424.405273438 204.1328125 l 1
 583.904296875 759 l 1
 764.950195312 725 l 1
 499.107421875 0 l 1
889.107421875 0 m 1
 709.674804688 0 l 1
 560.5 433 l 1
 671.395507812 623 l 1
 803.405273438 204.1328125 l 1
 955.904296875 736 l 1
 1130.45019531 702 l 1
 889.107421875 0 l 1
EndSplineSet
Substitution2: "'fina' Terminal Forms lookup 25-1" W.fina
Substitution2: "'init' Initial Forms lookup 24-1" W.init
EndChar

StartChar: Q
Encoding: 49 81 64
Width: 785
Flags: W
HStem: -10.0664 162.851<299.594 478.254> 576.083 162.851<299.594 478.254>
VStem: 30 171.487<258.997 466.685> 583.513 171.487<261.252 464.372>
LayerCount: 2
Fore
SplineSet
107.5 151.5 m 1
 811.5 -1.5 l 1
 770 -164 l 1
 74 34 l 1
 107.5 151.5 l 1
EndSplineSet
Refer: 43 79 N 1 0 0 1 0 0 2
Substitution2: "'ss10' Style Set 10 lookup 18-1" Q.ss10
EndChar

StartChar: underscore
Encoding: 63 95 65
Width: 580
Flags: W
HStem: -125 129<87.5 556.5> -117 117<23.5 489.5>
LayerCount: 2
Fore
SplineSet
23.5 0 m 1x40
 559.5 4 l 1
 556.5 -125 l 1x80
 20.5 -117 l 1
 23.5 0 l 1x40
EndSplineSet
EndChar

StartChar: R
Encoding: 50 82 66
Width: 729
Flags: W
HStem: 0 21G<132.771 304.003> 513.928 21G<39.617 44.2695> 582.992 156<305.06 462.9> 582.992 51.2578<222.607 300.67>
VStem: 132.771 171.232<0 269.934 375.877 634.25> 518.417 170.5<404.091 536.052>
LayerCount: 2
Back
SplineSet
289.002929688 0 m 5xb8
 157.770507812 0 l 5
 163.940429688 669.25 l 1
 285.669921875 669.25 l 1
 289.002929688 0 l 5xb8
274.196289062 355.876953125 m 1
 274.196289062 355.876953125 298.311785784 334.93359375 373.916992188 334.93359375 c 0
 487.119605202 334.93359375 551.916992188 395.921142577 551.916992188 475.93359375 c 0
 551.916992188 563.722489841 489.063645233 617.9921875 353 617.9921875 c 0
 219.214256452 617.9921875 49.26953125 556.427734375 49.26953125 556.427734375 c 1
 18 674.840820312 l 1
 18 674.840820312 122.067681352 738.9921875 366.916992188 738.9921875 c 0xd8
 557.583984375 738.9921875 678.916992188 638.247073955 678.916992188 479.93359375 c 0
 678.916992188 277.943443494 474.740234375 245.040039062 474.740234375 245.040039062 c 1
 701.770507812 69 l 1
 625.770507812 -37 l 1
 235.2578125 285.43359375 l 1
 274.196289062 355.876953125 l 1
EndSplineSet
Fore
SplineSet
304.002929688 0 m 1xdc
 132.770507812 0 l 1
 138.940429688 634.25 l 1
 300.669921875 634.25 l 1
 304.002929688 0 l 1xdc
274.196289062 375.876953125 m 1
 274.196289062 375.876953125 299.883683332 354.93359375 380.416992188 354.93359375 c 0
 468.18081576 354.93359375 518.416992188 403.810139973 518.416992188 467.93359375 c 0
 518.416992188 539.037119868 469.308678085 582.9921875 363 582.9921875 c 0
 222.607128226 582.9921875 44.26953125 513.927734375 44.26953125 513.927734375 c 1
 8 669.840820312 l 1
 8 669.840820312 118.032864113 738.9921875 376.916992188 738.9921875 c 0xec
 567.583984375 738.9921875 688.916992188 638.247073955 688.916992188 479.93359375 c 0
 688.916992188 358.075910839 612.631929768 298.782508949 559.233753721 272.409831574 c 0
 528.91784536 257.62062139 504.740234375 253.040039062 504.740234375 253.040039062 c 1
 711.770507812 102 l 1
 610.770507812 -37 l 1
 230.2578125 269.93359375 l 1
 274.196289062 375.876953125 l 1
EndSplineSet
EndChar

StartChar: five
Encoding: 21 53 67
Width: 581
Flags: W
HStem: -10.0664 141<111.824 335.801> 343.492 132.008<202.003 339.247> 584.5 146.508<214 509.017>
VStem: 380.917 169<173.939 304.374>
LayerCount: 2
Back
SplineSet
529.016601562 549.0078125 m 5
 239 550 l 29
 224 471 l 21
 224 471 248.642857143 479 316 479 c 4
 492.46964774 479 559.916992188 386.635747331 559.916992188 246.9921875 c 4
 559.916992188 68.1744133844 445.97265625 -10.06640625 266.916992188 -10.06640625 c 4
 85.2246769868 -10.06640625 8 44.0849609375 8 44.0849609375 c 5
 50 207 l 5
 50 207 126.85984585 163.93359375 233.916992188 163.93359375 c 4
 305.791015625 163.93359375 340.916992188 195.456256431 340.916992188 244.9921875 c 4
 340.916992188 289.603298611 303.700683594 317.9921875 230.916992188 317.9921875 c 4
 164.966339317 317.9921875 125.2578125 288.43359375 125.2578125 288.43359375 c 5
 19 392 l 5
 80 731.0078125 l 5
 365 731.0078125 l 5
 362 798.0078125 l 5
 515.016601562 800.0078125 l 5
 529.016601562 549.0078125 l 5
EndSplineSet
Fore
SplineSet
509.016601562 583.5078125 m 1
 214 584.5 l 1
 191.5 447 l 1
 191.5 447 224.714285715 475.5 315.5 475.5 c 0
 480.096565064 475.5 549.916992188 382.538584772 549.916992188 241.9921875 c 0
 549.916992188 66.6525654179 439.861541435 -10.06640625 266.916992188 -10.06640625 c 0
 92.2420733216 -10.06640625 18 44.0849609375 18 44.0849609375 c 1
 56 176 l 1
 56 176 134.740418723 130.93359375 244.416992188 130.93359375 c 0
 336.106751058 130.93359375 380.916992188 173.345102564 380.916992188 239.9921875 c 0
 380.916992188 303.2421875 337.949072266 343.4921875 253.916992188 343.4921875 c 0
 176.731047171 343.4921875 130.2578125 298.43359375 130.2578125 298.43359375 c 1
 29 377 l 1
 90 731.0078125 l 1
 509.016601562 731.0078125 l 1
 509.016601562 583.5078125 l 1
EndSplineSet
Substitution2: "'onum' Oldstyle Figures lookup 27-1" five.osf
Substitution2: "'ss02' Style Set 2 lookup 10-1" five.ss02
Substitution2: "'frac' Diagonal Fractions in Latin lookup 26 subtable" five.numr
Substitution2: "'dnom' Denominators lookup 0 subtable" five.dnom
Substitution2: "'numr' Numerators lookup 0 subtable" five.numr
Substitution2: "'sinf' Scientific Inferiors lookup 0 subtable" five.inferior
Substitution2: "'sups' Superscript lookup 0 subtable" five.superior
EndChar

StartChar: Z
Encoding: 58 90 68
Width: 601
Flags: W
HStem: 0 155.5<252.669 562.017> 570.008 161<39 346.848>
LayerCount: 2
Fore
SplineSet
31 570.0078125 m 1
 39 731.0078125 l 1
 554.016601562 731.0078125 l 1
 579.016601562 611.0078125 l 1
 252.668945312 155.5 l 1
 570.016601562 162 l 1
 562.016601562 0 l 1
 47 0 l 1
 22 120 l 1
 346.84765625 576.5078125 l 1
 31 570.0078125 l 1
EndSplineSet
EndChar

StartChar: Y
Encoding: 57 89 69
Width: 744
Flags: W
HStem: 0 21G<318.33 500.659>
VStem: 318.33 182.329<0 265.155>
LayerCount: 2
Fore
SplineSet
322.123046875 265.155273438 m 1
 153.151367188 589 l 1
 37.0458984375 571 l 1
 20 722 l 1
 271.546875 746 l 1
 417.905273438 434.1328125 l 1
 573.404296875 746 l 1
 739.950195312 685 l 1
 497.234375 271.650390625 l 1
 500.659179688 0 l 1
 318.330078125 0 l 1
 322.123046875 265.155273438 l 1
EndSplineSet
Substitution2: "'ss13' Style Set 13 lookup 21-1" Y.ss13
EndChar

StartChar: X
Encoding: 56 88 70
Width: 776
Flags: W
LayerCount: 2
Fore
SplineSet
267 745.0078125 m 1
 511 364 l 1
 232 -27 l 1
 78 83 l 1
 314 364 l 1
 174.5 564.0078125 l 1
 47.5 531.93359375 l 1
 8 681 l 1
 267 745.0078125 l 1
597 745.0078125 m 1
 751 641.0078125 l 1
 535 364 l 1
 771 83 l 1
 617 -27 l 1
 338 364 l 1
 597 745.0078125 l 1
EndSplineSet
EndChar

StartChar: comma
Encoding: 12 44 71
Width: 270
Flags: W
HStem: -124.5 314
VStem: -8.5 256
LayerCount: 2
Fore
SplineSet
104.5 189.5 m 25
 247.5 109 l 25
 83.5 -124.5 l 25
 -8.5 -72.5 l 25
 104.5 189.5 l 25
EndSplineSet
EndChar

StartChar: nine
Encoding: 25 57 73
Width: 619
Flags: W
HStem: -20 147.459<124.619 232.622> 244.266 124.218<233.244 372.932> 598.634 140.358<233.583 372.775>
VStem: 30 159.691<410.939 555.282> 416.441 172.375<412.061 555.923>
LayerCount: 2
Fore
SplineSet
125.505859375 -20 m 1
 106.81640625 127.458984375 l 1
 397.223287431 147.613054154 407.858398438 288.559570312 407.858398438 288.559570312 c 1
 407.858398438 288.559570312 367.820926265 244.265625 259.215820312 244.265625 c 0
 122.04381848 244.265625 30 337.581146257 30 478.743164062 c 0
 30 621.022945704 106.005054329 738.9921875 303.005859375 738.9921875 c 0
 474.164197993 738.9921875 588.81640625 641.598632812 588.81640625 422.643554688 c 0
 588.81640625 209.85546875 477.833386542 0.528320312488 125.505859375 -20 c 1
416.44140625 482.633789062 m 0
 416.44140625 553.523393111 372.438773661 598.633789062 303.291015625 598.633789062 c 0
 233.868737228 598.633789062 189.69140625 553.523393111 189.69140625 482.633789062 c 0
 189.69140625 412.875217014 233.868737228 368.483398438 303.291015625 368.483398438 c 0
 372.438773661 368.483398438 416.44140625 412.875217014 416.44140625 482.633789062 c 0
EndSplineSet
Substitution2: "'onum' Oldstyle Figures lookup 27-1" nine.osf
Substitution2: "'frac' Diagonal Fractions in Latin lookup 26 subtable" nine.numr
Substitution2: "'dnom' Denominators lookup 0 subtable" nine.dnom
Substitution2: "'numr' Numerators lookup 0 subtable" nine.numr
Substitution2: "'sinf' Scientific Inferiors lookup 0 subtable" nine.inferior
Substitution2: "'sups' Superscript lookup 0 subtable" nine.superior
EndChar

StartChar: at
Encoding: 32 64 74
Width: 925
Flags: W
HStem: -159.727 95.877<337.137 667.601> -21 20G<793 799.068> 48.4209 119.636<379.186 504.91> 48.4209 103.558<695.744 776.847> 375.86 117.646<378.306 505.798> 614.433 93.2939<330.632 606.14>
VStem: 25 103<140.447 403.178> 212.529 132.595<204.097 342.858> 538.856 141.911<208.942 335.933> 556.985 74.3086<127.216 383.729> 804.404 95.8828<180.566 421.431>
LayerCount: 2
Back
SplineSet
365.124023438 363.1875 m 4
 365.124023438 312.997070312 392.912109375 281.056640625 436.578125 281.056640625 c 4
 480.749023438 281.056640625 508.856445312 312.997070312 508.856445312 363.1875 c 4
 508.856445312 411.876953125 480.749023438 442.860351562 436.578125 442.860351562 c 4
 392.912109375 442.860351562 365.124023438 411.876953125 365.124023438 363.1875 c 4
207.529296875 362.254882812 m 4
 207.529296875 497.463867188 289.260742188 583.505859375 417.694335938 583.505859375 c 4
 542.1171875 583.505859375 621.293945312 489.212890625 621.293945312 341.037109375 c 4
 621.293945312 217.215820312 542.1171875 138.420898438 417.694335938 138.420898438 c 4
 289.260742188 138.420898438 207.529296875 225.466796875 207.529296875 362.254882812 c 4
482.713867188 -69.7265625 m 4
 196.205078125 -69.7265625 20 94.120869497 20 358.08984375 c 4
 20 614.04161915 179.602962903 797.7265625 458.420898438 797.7265625 c 4
 719.309753403 797.7265625 905.287109375 654.481445312 905.287109375 383.712890625 c 4
 905.287109375 234.838867187 845.620117188 138.420898438 718.064453125 138.420898438 c 4
 609.642578125 138.420898438 536.985351562 205.224609375 536.985351562 370.025390625 c 4xbec0
 536.985351562 473.729492188 566.369140625 581.030273438 566.369140625 581.030273438 c 5
 721.677734375 569.944335938 l 5
 721.677734375 569.944335938 689.767578125 428.384765625 689.767578125 333.604492188 c 4
 689.767578125 282.138671875 704.185546875 254.978515625 740.811523438 254.978515625 c 4xbf40
 782.825195312 254.978515625 804.404296875 305.185546875 804.404296875 383.712890625 c 4
 804.404296875 614.064453125 662.40625 699.432617188 459.420898438 699.432617188 c 4
 248.553710938 699.432617188 128 560.595703125 128 361.93359375 c 4
 128 157.513671875 252.708984375 31.150390625 483.713867188 31.150390625 c 4
 665.813476562 31.150390625 793 94 793 94 c 5
 818.250976562 5.7744140625 l 5
 818.250976562 5.7744140625 708.095703125 -69.7265625 482.713867188 -69.7265625 c 4
EndSplineSet
Fore
SplineSet
345.124023438 273.1875 m 0xefa0
 345.124023438 208.941697074 382.634464471 168.056640625 441.578125 168.056640625 c 0
 501.027082699 168.056640625 538.856445312 208.941697074 538.856445312 273.1875 c 0
 538.856445312 335.932649638 501.027082699 375.860351562 441.578125 375.860351562 c 0
 382.634464471 375.860351562 345.124023438 335.932649638 345.124023438 273.1875 c 0xefa0
212.529296875 272.254882812 m 0
 212.529296875 407.463867188 295.232971509 493.505859375 425.194335938 493.505859375 c 0
 551.144975937 493.505859375 631.293945312 399.212890625 631.293945312 251.037109375 c 0xef60
 631.293945312 127.215820312 551.144975937 48.4208984375 425.194335938 48.4208984375 c 0
 295.232971509 48.4208984375 212.529296875 135.466796875 212.529296875 272.254882812 c 0
482.713867188 -159.7265625 m 0
 199.301038819 -159.7265625 25 4.12109375 25 268.08984375 c 0
 25 524.041992188 182.782341398 707.7265625 458.420898438 707.7265625 c 0
 716.390478809 707.7265625 900.287109375 564.481445312 900.287109375 293.712890625 c 0
 900.287109375 144.838867188 842.213593997 48.4208984375 718.064453125 48.4208984375 c 0
 621.617662391 48.4208984375 556.985351562 115.224609375 556.985351562 280.025390625 c 0xdf60
 556.985351562 383.729492188 583.369140625 491.030273438 583.369140625 491.030273438 c 1
 707.677734375 481.944335938 l 1
 707.677734375 481.944335938 680.767578125 336.381486275 680.767578125 239.604492188 c 0
 680.767578125 182.967915041 699.185546875 151.978515625 735.811523438 151.978515625 c 0xdfa0
 781.128532279 151.978515625 804.404296875 203.35556144 804.404296875 283.712890625 c 0
 804.404296875 525.008569525 662.40625 614.432617188 459.420898438 614.432617188 c 0
 248.553710938 614.432617188 128 473.538854002 128 271.93359375 c 0
 128 64.4237338137 252.708984375 -63.849609375 483.713867188 -63.849609375 c 0
 665.813476562 -63.849609375 793 -1 793 -1 c 1
 818.250976562 -84.2255859375 l 1
 818.250976562 -84.2255859375 708.095703125 -159.7265625 482.713867188 -159.7265625 c 0
EndSplineSet
EndChar

StartChar: percent
Encoding: 5 37 75
Width: 889
Flags: W
HStem: -10 112.058<622.88 725.432> 253.725 112.154<622.317 726> 363.113 112.058<162.88 265.432> 626.838 112.154<162.317 266>
VStem: 24.5205 119.304<494.943 607.999> 284.784 119.336<494.943 607.999> 484.521 119.304<121.83 234.885> 744.784 119.336<121.83 234.885>
LayerCount: 2
Fore
SplineSet
603.82421875 178.756835938 m 0xdf
 603.82421875 131.88520065 631.120358388 102.057617188 674.015625 102.057617188 c 0
 717.263132496 102.057617188 744.784179688 131.88520065 744.784179688 178.756835938 c 0
 744.784179688 224.570695945 717.263132496 253.724609375 674.015625 253.724609375 c 0
 631.120358388 253.724609375 603.82421875 224.570695945 603.82421875 178.756835938 c 0xdf
484.520507812 178.899414062 m 0
 484.520507812 293.164955328 558.206676998 365.87890625 674 365.87890625 c 0
 790.184715955 365.87890625 864.120117188 293.164955328 864.120117188 178.899414062 c 0
 864.120117188 63.4606861612 790.184715955 -10 674 -10 c 0
 558.206676998 -10 484.520507812 63.4606861612 484.520507812 178.899414062 c 0
143.82421875 551.870117188 m 0
 143.82421875 504.9984819 171.120358388 475.170898438 214.015625 475.170898438 c 0xbf
 257.263132496 475.170898438 284.784179688 504.9984819 284.784179688 551.870117188 c 0
 284.784179688 597.683977195 257.263132496 626.837890625 214.015625 626.837890625 c 0
 171.120358388 626.837890625 143.82421875 597.683977195 143.82421875 551.870117188 c 0
24.5205078125 552.012695312 m 0
 24.5205078125 666.278236578 98.2066769981 738.9921875 214 738.9921875 c 0
 330.184715955 738.9921875 404.120117188 666.278236578 404.120117188 552.012695312 c 0
 404.120117188 436.573967411 330.184715955 363.11328125 214 363.11328125 c 0
 98.2066769981 363.11328125 24.5205078125 436.573967411 24.5205078125 552.012695312 c 0
EndSplineSet
Refer: 168 8260 N 1 0 0 1 304 0 2
EndChar

StartChar: ampersand
Encoding: 6 38 76
Width: 715
Flags: W
HStem: -9.99805 139.998<235.406 423.532> 270 142<544 683> 301 130<260.183 352.5> 610 135<278.749 370.778>
VStem: 30 173<159.329 264.928> 48 166<468.41 563.664> 425.5 162.5<149 276.5 410 549.5> 538 43<276.5 410>
LayerCount: 2
Fore
SplineSet
685 412 m 1xd1
 683 270 l 1
 538 276.5 l 1
 544 410 l 1
 685 412 l 1xd1
370 745 m 1
 385 610 l 1
 303.958904109 603.032282859 214 581.894520028 214 517.93359375 c 0xb4
 214 469.992568273 255.51572526 438.387475021 357 431 c 1
 352.5 301 l 1
 256.666666667 294.732394366 203 278.436619718 203 212 c 0
 203 162.262295082 239 130 323 130 c 0
 395.556179776 130 425.5 149 425.5 149 c 1xba
 431 556 l 1
 581 549.5 l 1xb1
 588 41.5 l 1
 588 41.5 491.577363824 -9.998046875 320 -9.998046875 c 0
 150.915254237 -9.998046875 30 48.9660983365 30 201 c 0xba
 30 340.414762099 175.5 373 175.5 373 c 1
 175.5 373 48 410.420346027 48 533.5 c 0xb4
 48 640.266826923 132.685015291 728.730769231 370 745 c 1
EndSplineSet
Substitution2: "'ss18' Style Set 18 lookup 30-1" ampersand.ss18
Substitution2: "'ss09' Style Set 9 lookup 17-1" ampersand.ss09
EndChar

StartChar: two
Encoding: 18 50 77
Width: 595
Flags: W
HStem: 0 151<307.152 558> 522 21G<77.9674 86.4639> 586 153<148.567 324.514>
VStem: 369.364 175.6<385.417 539.97>
LayerCount: 2
Fore
SplineSet
307.15234375 151 m 1
 565 157 l 1
 558 0 l 1
 39.9833984375 0 l 1
 29.9833984375 115 l 1
 29.9833984375 115 369.364257812 282.728934672 369.364257812 464 c 0
 369.364257812 546.108915441 322.658308066 586 243.955078125 586 c 0
 145.369164382 586 86.4638671875 522 86.4638671875 522 c 1
 26.5634765625 663 l 1
 26.5634765625 663 120.095838637 739 277.03125 739 c 0
 450.197723729 739 544.963867188 646.292324216 544.963867188 498.93359375 c 0
 544.963867188 270.706861682 307.15234375 151 307.15234375 151 c 1
EndSplineSet
Substitution2: "'onum' Oldstyle Figures lookup 27-1" two.osf
Substitution2: "'frac' Diagonal Fractions in Latin lookup 26 subtable" two.numr
Substitution2: "'dnom' Denominators lookup 0 subtable" two.dnom
Substitution2: "'numr' Numerators lookup 0 subtable" two.numr
Substitution2: "'sinf' Scientific Inferiors lookup 0 subtable" two.inferior
Substitution2: "'sups' Superscript lookup 0 subtable" two.superior
EndChar

StartChar: three.ss01
Encoding: 736 -1 78
Width: 579
Flags: W
HStem: -10.0664 139<106.018 336.636> 311.492 122.941<145.272 326.249> 595.992 143<115.988 327.234>
VStem: 357.917 173<464.292 565.98> 380.917 169<167.979 276.312>
LayerCount: 2
Fore
SplineSet
55 171.5 m 1xe8
 55 171.5 129.770320436 128.93359375 233.916992188 128.93359375 c 0
 332.659809433 128.93359375 380.916992188 165.317348454 380.916992188 222.4921875 c 0xe8
 380.916992188 276.881076389 336.517352765 311.4921875 236.916992188 311.4921875 c 0
 164.724609375 311.4921875 145.2578125 304.93359375 145.2578125 304.93359375 c 1
 145.196289062 438.376953125 l 1
 145.196289062 438.376953125 163.407226562 434.43359375 222.916992188 434.43359375 c 0
 318.824167351 434.43359375 357.916992188 466.217511858 357.916992188 513.93359375 c 0
 357.916992188 564.889000182 319.198242188 595.9921875 231.916992188 595.9921875 c 0
 132.610237537 595.9921875 67.26953125 551.427734375 67.26953125 551.427734375 c 1
 31 694.840820312 l 1
 31 694.840820312 99.2762138838 738.9921875 259.916992188 738.9921875 c 0
 427.885870774 738.9921875 530.916992188 663.358398438 530.916992188 542.93359375 c 0xf0
 530.916992188 415.472240138 410.775390625 380.96875 410.775390625 380.96875 c 1
 410.775390625 380.96875 549.916992188 351.144528977 549.916992188 196.9921875 c 0
 549.916992188 70.4560546875 439.861541435 -10.06640625 266.916992188 -10.06640625 c 0
 92.2420733216 -10.06640625 18 34.0849609375 18 34.0849609375 c 1
 55 171.5 l 1xe8
EndSplineSet
Substitution2: "'dnom' Denominators lookup 0 subtable" three.ss01.dnom
Substitution2: "'numr' Numerators lookup 0 subtable" three.ss01.numr
Substitution2: "'subs' Subscript lookup 0 subtable" three.ss01.subscript
Substitution2: "'sinf' Scientific Inferiors lookup 0 subtable" three.ss01.inferior
Substitution2: "'sups' Superscript lookup 0 subtable" three.ss01.superior
EndChar

StartChar: four
Encoding: 20 52 79
Width: 694
Flags: W
HStem: 0 21G<384 548.329> 177.12 136.96<218.72 656.76>
LayerCount: 2
Fore
SplineSet
542.899414062 603.43359375 m 1
 548.329101562 0 l 1
 384 0 l 1
 390.169921875 603.43359375 l 1
 542.899414062 603.43359375 l 1
333.559570312 752.280273438 m 1
 466.759765625 670.900390625 l 1
 218.719726562 314.080078125 l 1
 660.639648438 316.459960938 l 1
 656.759765625 172.1796875 l 1
 52.759765625 177.120117188 l 1
 23.5595703125 269.360351562 l 1
 333.559570312 752.280273438 l 1
EndSplineSet
Substitution2: "'onum' Oldstyle Figures lookup 27-1" four.osf
Substitution2: "'frac' Diagonal Fractions in Latin lookup 26 subtable" four.numr
Substitution2: "'dnom' Denominators lookup 0 subtable" four.dnom
Substitution2: "'numr' Numerators lookup 0 subtable" four.numr
Substitution2: "'sinf' Scientific Inferiors lookup 0 subtable" four.inferior
Substitution2: "'sups' Superscript lookup 0 subtable" four.superior
EndChar

StartChar: seven
Encoding: 23 55 80
Width: 568
Flags: W
HStem: 578.213 152.795<182.5 378.848>
LayerCount: 2
Fore
SplineSet
17 439.0078125 m 1
 44.5 731.0078125 l 1
 522.016601562 731.0078125 l 1
 567.016601562 633.0078125 l 1
 321 -16 l 1
 153.5 36 l 1
 378.84765625 579.5078125 l 1
 182.5 578.212890625 l 1
 166 426 l 1
 17 439.0078125 l 1
EndSplineSet
Substitution2: "'onum' Oldstyle Figures lookup 27-1" seven.osf
Substitution2: "'frac' Diagonal Fractions in Latin lookup 26 subtable" seven.numr
Substitution2: "'dnom' Denominators lookup 0 subtable" seven.dnom
Substitution2: "'numr' Numerators lookup 0 subtable" seven.numr
Substitution2: "'sinf' Scientific Inferiors lookup 0 subtable" seven.inferior
Substitution2: "'sups' Superscript lookup 0 subtable" seven.superior
EndChar

StartChar: dollar
Encoding: 4 36 81
Width: 408
Flags: W
HStem: 0 21G<158 275> 719 20G<123 240>
VStem: 217.438 160.852<249.844 313.75>
LayerCount: 2
Fore
SplineSet
275 0 m 1
 158 0 l 1
 170 190 l 1
 261 190 l 1
 275 0 l 1
123 739 m 1
 240 739 l 1
 228 549 l 1
 137 549 l 1
 123 739 l 1
297.302734375 645.848632812 m 1
 316.232421875 528.830078125 l 1
 316.232421875 528.830078125 194.431640625 514.862534632 194.431640625 471.592773438 c 0
 194.431640625 450.717992121 222.364299695 442.0277711 287.732421875 412.459960938 c 0
 352.629495456 382.921060368 378.2890625 347.781944239 378.2890625 290.793945312 c 0
 378.2890625 106.536116711 83.0390625 87.0791015625 83.0390625 87.0791015625 c 1
 66.5693359375 216.671875 l 1
 66.5693359375 216.671875 217.4375 223.282931715 217.4375 282.923828125 c 0
 217.4375 308.122093583 190.058581229 320.709439181 132.036132812 341.897460938 c 0
 55.0612316113 370.415633146 30 407.421537095 30 461.14453125 c 0
 30 630.006964116 297.302734375 645.848632812 297.302734375 645.848632812 c 1
EndSplineSet
EndChar

StartChar: quotesingle
Encoding: 7 39 82
Width: 256
Flags: W
HStem: 465 300<77 173>
VStem: 77 96<465 512.727>
LayerCount: 2
Fore
SplineSet
39 765 m 25
 217 765 l 25
 173 465 l 25
 77 465 l 25
 39 765 l 25
EndSplineSet
EndChar

StartChar: quotedbl
Encoding: 2 34 83
Width: 462
VWidth: 1111
Flags: W
HStem: 454 313
LayerCount: 2
Fore
SplineSet
24 756 m 1
 186 767 l 1
 176 461 l 1
 81 454 l 1
 24 756 l 1
266 766 m 1
 432 752 l 1
 366 455 l 1
 264 459 l 1
 266 766 l 1
EndSplineSet
EndChar

StartChar: plus
Encoding: 11 43 84
Width: 450
Flags: W
HStem: 160.5 152<152.5 291.5> 308 124<21 265.833>
VStem: 169 116<294.076 557.633>
LayerCount: 2
Fore
SplineSet
292.5 569.5 m 1xa0
 285 391.5 l 1
 291.5 158.5 l 1
 152.5 160.5 l 1
 169 392.5 l 1
 161.5 572.5 l 1
 292.5 569.5 l 1xa0
21 432 m 1x60
 223 428.5 l 1
 432 435 l 1
 430.5 296 l 1
 222.5 312.5 l 1xa0
 18.5 308 l 1
 21 432 l 1x60
EndSplineSet
EndChar

StartChar: minus
Encoding: 719 8722 85
Width: 450
Flags: W
HStem: 302.5 137<129.711 421.5> 312 125<28.5 317.289>
LayerCount: 2
Fore
SplineSet
28.5 437 m 1x40
 424.5 439.5 l 1
 421.5 302.5 l 1x80
 25.5 312 l 1
 28.5 437 l 1x40
EndSplineSet
EndChar

StartChar: question
Encoding: 31 63 86
Width: 437
Flags: W
HStem: -10 184<83.5924 208.408> 235.135 187.839<83.5163 207.487> 614.5 130.884<54.127 147.276>
VStem: 54 184<19.5924 144.408> 245.5 161.5<450.232 554.674>
LayerCount: 2
Fore
SplineSet
30 614.5 m 1
 55.490234375 745.383789062 l 1
 296.547338278 712.414266652 407 638.8046875 407 497.010742188 c 0
 407 389.3272584 327.070503953 339.909331192 258.719238281 321.276367188 c 0
 236.729342369 315.023417431 215.827148438 313 215.827148438 313 c 1
 207.5 227.5 l 1
 207.5 227.5 189.56849315 235.134765625 148 235.134765625 c 0
 105.826923077 235.134765625 83.5 225.5 83.5 225.5 c 1
 74.4052734375 425.5 l 1
 74.4052734375 425.5 95.329989214 422.973632812 137 422.973632812 c 0
 200.192307692 422.973632812 245.5 445.370448055 245.5 505 c 0
 245.5 567.669451031 181.866658895 596.09594206 30 614.5 c 1
54 82 m 0
 54 138.222585227 89.7774147725 174 146 174 c 0
 202.222585228 174 238 138.222585227 238 82 c 0
 238 25.7774147727 202.222585228 -10 146 -10 c 0
 89.7774147725 -10 54 25.7774147727 54 82 c 0
EndSplineSet
EndChar

StartChar: parenleft
Encoding: 8 40 87
Width: 361
Flags: W
VStem: 30 161.137<114.007 475.677>
LayerCount: 2
Fore
SplineSet
191.13671875 300.836914062 m 0
 191.13671875 14.4896068814 330 -138.994140625 330 -138.994140625 c 1
 210 -198.994140625 l 1
 210 -198.994140625 30 -37 30 301.005859375 c 0
 30 613 210 791.001953125 210 791.001953125 c 1
 330 731.001953125 l 1
 330 731.001953125 191.13671875 583.572728815 191.13671875 300.836914062 c 0
EndSplineSet
EndChar

StartChar: parenright
Encoding: 9 41 88
Width: 361
Flags: W
VStem: 169.863 161.137<116.331 478.001>
LayerCount: 2
Fore
SplineSet
169.86328125 291.170898438 m 0
 169.86328125 577.518205619 31 731.001953125 31 731.001953125 c 1
 151 791.001953125 l 1
 151 791.001953125 331 629.0078125 331 291.001953125 c 0
 331 -20.9921875 151 -198.994140625 151 -198.994140625 c 1
 31 -138.994140625 l 1
 31 -138.994140625 169.86328125 8.43508368473 169.86328125 291.170898438 c 0
EndSplineSet
EndChar

StartChar: bracketleft
Encoding: 59 91 89
Width: 394
Flags: W
HStem: -190 120<198.747 371.824> 661 130.011<195.672 362.395>
VStem: 40 158.747<-70 663>
LayerCount: 2
Fore
SplineSet
362.39453125 791.010742188 m 1
 368.665039062 661 l 1
 195.671875 663 l 1
 198.747070312 -70 l 1
 374.806640625 -67 l 1
 371.82421875 -190 l 1
 40 -190 l 1
 42.69140625 791.010742188 l 1
 362.39453125 791.010742188 l 1
EndSplineSet
EndChar

StartChar: bracketright
Encoding: 61 93 90
Width: 394
Flags: W
HStem: -190 123<22.9824 196.06> 661 130.011<32.4121 199.135>
VStem: 196.06 158.747<-71 664>
LayerCount: 2
Fore
SplineSet
32.412109375 791.010742188 m 1
 352.115234375 791.010742188 l 1
 354.806640625 -190 l 1
 22.982421875 -190 l 1
 20 -67 l 1
 196.059570312 -71 l 1
 199.134765625 664 l 1
 26.1416015625 661 l 1
 32.412109375 791.010742188 l 1
EndSplineSet
EndChar

StartChar: less
Encoding: 28 60 91
Width: 450
Flags: W
LayerCount: 2
Fore
SplineSet
249.37109375 341.5 m 1
 425.349609375 246 l 1
 370.349609375 122 l 1
 24.650390625 332 l 1
 370.349609375 561 l 1
 425.349609375 437 l 1
 249.37109375 341.5 l 1
EndSplineSet
EndChar

StartChar: greater
Encoding: 30 62 92
Width: 450
Flags: W
LayerCount: 2
Fore
SplineSet
200.62890625 343.5 m 1
 24.650390625 437 l 1
 79.650390625 561 l 1
 425.349609375 351 l 1
 79.650390625 122 l 1
 24.650390625 246 l 1
 200.62890625 343.5 l 1
EndSplineSet
EndChar

StartChar: asciicircum
Encoding: 62 94 93
Width: 392
Flags: W
HStem: 416 332
LayerCount: 2
Fore
SplineSet
194 748 m 25
 392 492 l 25
 289 416 l 25
 195 570 l 25
 104 422 l 25
 0 481 l 25
 194 748 l 25
EndSplineSet
EndChar

StartChar: asterisk
Encoding: 10 42 94
Width: 401
Flags: W
LayerCount: 2
Fore
SplineSet
141.857421875 765 m 1
 257.857421875 765 l 1
 249.416992188 643.537109375 l 1
 352.330078125 685.889648438 l 1
 385.1640625 579.8046875 l 1
 272.74609375 548.580078125 l 1
 353.587890625 450.25 l 1
 260.510742188 386.579101562 l 1
 201.842773438 489.431640625 l 1
 142.2734375 386.579101562 l 1
 50.1962890625 450.25 l 1
 131.038085938 548.580078125 l 1
 16 588.254882812 l 1
 54.8681640625 685.889648438 l 1
 154.368164062 643.537109375 l 1
 141.857421875 765 l 1
EndSplineSet
EndChar

StartChar: sterling
Encoding: 97 163 95
Width: 576
Flags: W
HStem: 0 141.293<224.064 546.539> 260 142<162.636 421> 271 127<19 273.364>
LayerCount: 2
Fore
SplineSet
19 398 m 1xa0
 425 402 l 1
 421 260 l 1xc0
 15 271 l 1
 19 398 l 1xa0
224.064453125 141.29296875 m 1
 550.159179688 142.930664062 l 1
 546.5390625 0 l 1
 38.4296875 0 l 1
 59.6821020855 452.125433501 151.902785269 633.005046291 441.930664062 747.6640625 c 1
 508.798828125 617.854492188 l 1
 328.562792165 547.958868507 239.55884971 407.837941484 224.064453125 141.29296875 c 1
EndSplineSet
EndChar

StartChar: braceleft
Encoding: 91 123 96
Width: 474
Flags: W
HStem: -199.681 127.12<269.214 435.611> 240.602 120.4<20.031 146.549> 673.927 127.12<266.143 435.608>
VStem: 83.3398 165.227<-54.1425 59.3815 524.501 654.216> 152.296 150.451<117.229 233.766 365.544 466.167>
LayerCount: 2
Fore
SplineSet
296.986328125 801.046875 m 0xf0
 395.017407365 801.046875 452.4609375 773.2265625 452.4609375 773.2265625 c 1
 433.530273438 656.016601562 l 1
 433.530273438 656.016601562 395.151263163 673.926757812 340.157226562 673.926757812 c 0
 279.766924405 673.926757812 248.56640625 653.429598307 248.56640625 602 c 0xf0
 248.56640625 522.854965908 305.350585938 510.47444714 305.350585938 389.743164062 c 0
 305.350585938 320.680364452 239.905273438 296.681640625 239.905273438 296.681640625 c 1
 239.905273438 296.681640625 302.747070312 266.810162193 302.747070312 204.143554688 c 0xe8
 302.747070312 119.411206563 248.56640625 90.6367445966 248.56640625 1 c 0
 248.56640625 -52.1816050719 280.132093981 -72.560546875 340.157226562 -72.560546875 c 0
 403.400803449 -72.560546875 433.530273438 -54.650390625 433.530273438 -54.650390625 c 1
 452.4609375 -171.860351562 l 1
 452.4609375 -171.860351562 395.017407365 -199.680664062 296.986328125 -199.680664062 c 0
 159.900838623 -199.680664062 83.33984375 -145.895507812 83.33984375 -39 c 0xf0
 83.33984375 66.2391402391 152.295898438 114.976593344 152.295898438 193.765625 c 0
 152.295898438 226.829566593 131.878244371 240.6015625 98.7431640623 240.6015625 c 0
 58.8778274702 240.6015625 20 238.721679688 20 238.721679688 c 1
 20 365 l 1
 20 365 62.4948271817 361.001953125 103.982421875 361.001953125 c 0
 132.357330232 361.001953125 152.295898438 370.859009197 152.295898438 398.12109375 c 0xe8
 152.295898438 466.70904189 83.33984375 496.605098784 83.33984375 622 c 0
 83.33984375 733.947265625 159.900838623 801.046875 296.986328125 801.046875 c 0xf0
EndSplineSet
EndChar

StartChar: braceright
Encoding: 93 125 97
Width: 474
Flags: W
HStem: -199.681 127.12<38.392 208.476> 240.364 121.4<325.717 453.967> 673.927 127.12<38.3891 208.42>
VStem: 168.649 153.055<139.262 236.558 367.064 481.049> 225.434 165.227<-55.8725 78.6824 539.775 656.119>
LayerCount: 2
Fore
SplineSet
177.013671875 -199.680664062 m 0xe8
 78.9825926355 -199.680664062 21.5390625 -171.860351562 21.5390625 -171.860351562 c 1
 40.4697265625 -54.650390625 l 1
 40.4697265625 -54.650390625 78.8487368371 -72.560546875 133.842773438 -72.560546875 c 0
 194.233075595 -72.560546875 225.43359375 -53.4882506699 225.43359375 -5.6337890625 c 0xe8
 225.43359375 75.3756145267 168.649414062 103.047773343 168.649414062 211.623046875 c 0xf0
 168.649414062 280.685846486 234.094726562 304.684570312 234.094726562 304.684570312 c 1
 234.094726562 304.684570312 171.252929688 334.556048745 171.252929688 397.22265625 c 0
 171.252929688 484.040533208 225.43359375 513.523224928 225.43359375 605.366210938 c 0
 225.43359375 654.932997515 193.867906019 673.926757812 133.842773438 673.926757812 c 0
 70.5991965504 673.926757812 40.4697265625 656.016601562 40.4697265625 656.016601562 c 1
 21.5390625 773.2265625 l 1
 21.5390625 773.2265625 78.9825926355 801.046875 177.013671875 801.046875 c 0
 314.099161377 801.046875 390.66015625 747.26171875 390.66015625 640.366210938 c 0xe8
 390.66015625 533.318571006 321.704101562 483.743580948 321.704101562 403.600585938 c 0
 321.704101562 374.06640625 340.215442692 361.764648438 370.256835938 361.764648438 c 0
 412.653524747 361.764648438 454 363.64453125 454 363.64453125 c 1
 454 236.366210938 l 1
 454 236.366210938 408.975189387 240.364257812 365.017578125 240.364257812 c 0
 339.579211534 240.364257812 321.704101562 231.834960938 321.704101562 208.245117188 c 0xf0
 321.704101562 138.125359971 390.66015625 107.561619431 390.66015625 -20.6337890625 c 0
 390.66015625 -132.581054688 314.099161377 -199.680664062 177.013671875 -199.680664062 c 0xe8
EndSplineSet
EndChar

StartChar: cent
Encoding: 96 162 98
Width: 391
Flags: W
HStem: 0 21G<188 305> 158.934 55.0664<200 291> 524 52.9336<198 289> 719 20G<184 301>
VStem: 30 139<305.81 431.381>
LayerCount: 2
Fore
SplineSet
305 0 m 1
 188 0 l 1
 200 214 l 1
 291 214 l 1
 305 0 l 1
184 739 m 1
 301 739 l 1
 289 524 l 1
 198 524 l 1
 184 739 l 1
30 369.93359375 m 0
 30 496.433681147 110.499912603 576.93359375 237 576.93359375 c 0
 341.501103034 576.93359375 385.916992188 534.782226562 385.916992188 534.782226562 c 1
 347.647460938 435.869140625 l 1
 347.647460938 435.869140625 312.559679731 458.93359375 258 458.93359375 c 0
 203.610778107 458.93359375 169 424.322980429 169 369.93359375 c 0
 169 311.877832031 200.822500682 274.93359375 270 274.93359375 c 0
 336.919982706 274.93359375 374.1484375 300.364257812 374.1484375 300.364257812 c 1
 401.146484375 191.31640625 l 1
 401.146484375 191.31640625 343.572391561 158.93359375 247 158.93359375 c 0
 114.38879727 158.93359375 30 240.988532903 30 369.93359375 c 0
EndSplineSet
EndChar

StartChar: asciitilde
Encoding: 94 126 99
Width: 524
Flags: W
HStem: 226.96 255.04
LayerCount: 2
Fore
SplineSet
346.821289062 367.668945312 m 1
 453.98046875 455.780273438 l 1
 523.66015625 364 l 1
 346.280273438 226.959960938 l 1
 182.83984375 338.791015625 l 1
 73.6806640625 245.6796875 l 1
 1 334.959960938 l 1
 179.380859375 482 l 1
 346.821289062 367.668945312 l 1
EndSplineSet
EndChar

StartChar: numbersign
Encoding: 3 35 100
Width: 704
Flags: W
HStem: 186 116<248.364 648> 197 101<24 419.636> 438 116<288 680> 449 101<68 456> 719.508 20G<231.088 345 491.088 605>
LayerCount: 2
Fore
SplineSet
24 298 m 1x48
 652 302 l 1
 648 186 l 1x88
 20 197 l 1
 24 298 l 1x48
68 550 m 1x18
 684 554 l 1
 680 438 l 1x28
 64 449 l 1
 68 550 l 1x18
352 8.5 m 1
 495 739.5078125 l 1
 605 722.5078125 l 1
 472 -8.5 l 1
 352 8.5 l 1
92 8.5 m 1
 235 739.5078125 l 1
 345 722.5078125 l 1
 212 -8.5 l 1
 92 8.5 l 1
EndSplineSet
EndChar

StartChar: five.ss02
Encoding: 737 -1 101
Width: 581
Flags: W
HStem: -10.0664 141<111.824 335.801> 343.492 132.008<202.003 339.247> 584.5 146.508<214 384>
VStem: 380.917 169<173.939 304.374> 391 118.017<731.008 798.008>
LayerCount: 2
Fore
SplineSet
509.016601562 583.5078125 m 1xe8
 214 584.5 l 1
 191.5 447 l 1
 191.5 447 224.714285715 475.5 315.5 475.5 c 0
 480.096565064 475.5 549.916992188 382.538584772 549.916992188 241.9921875 c 0
 549.916992188 66.6525654179 439.861541435 -10.06640625 266.916992188 -10.06640625 c 0
 92.2420733216 -10.06640625 18 44.0849609375 18 44.0849609375 c 1
 56 176 l 1
 56 176 134.740418723 130.93359375 244.416992188 130.93359375 c 0
 336.106751058 130.93359375 380.916992188 173.345102564 380.916992188 239.9921875 c 0xf0
 380.916992188 303.2421875 337.949072266 343.4921875 253.916992188 343.4921875 c 0
 176.731047171 343.4921875 130.2578125 298.43359375 130.2578125 298.43359375 c 1
 29 377 l 1
 90 731.0078125 l 1
 384 731.0078125 l 1
 391 798.0078125 l 1
 509.016601562 800.0078125 l 1
 509.016601562 583.5078125 l 1xe8
EndSplineSet
Substitution2: "'dnom' Denominators lookup 0 subtable" five.ss02.dnom
Substitution2: "'numr' Numerators lookup 0 subtable" five.ss02.numr
Substitution2: "'subs' Subscript lookup 0 subtable" five.ss02.subscript
Substitution2: "'sinf' Scientific Inferiors lookup 0 subtable" five.ss02.inferior
Substitution2: "'sups' Superscript lookup 0 subtable" five.ss02.superior
EndChar

StartChar: yen
Encoding: 99 165 102
Width: 744
Flags: W
HStem: 0 21G<318.33 500.659> 117.712 95<172.5 449.423> 250.712 104<437.875 656> 258 88.7119<175.5 620.463> 258.712 95<175.5 406.5>
VStem: 318.33 182.329<0 265.155>
LayerCount: 2
Fore
SplineSet
172.5 212.711914062 m 1xc4
 403.5 211.711914062 l 1
 654.5 213.711914062 l 1
 653 109.711914062 l 1
 394 123 l 1
 171 117.711914062 l 1
 172.5 212.711914062 l 1xc4
175.5 353.711914062 m 1xcc
 406.5 346.711914062 l 1xd4
 657.5 354.711914062 l 1
 656 250.711914062 l 1xe4
 397 258 l 1xd4
 174 258.711914062 l 1
 175.5 353.711914062 l 1xcc
EndSplineSet
Refer: 69 89 N 1 0 0 1 0 0 2
EndChar

StartChar: brokenbar
Encoding: 100 166 103
Width: 246
Flags: W
VStem: 52.3164 141.975<-170 239.44 355.92 788.992>
LayerCount: 2
Back
SplineSet
188.022460938 355.919921875 m 5
 58.7568359375 355.919921875 l 5
 31.169921875 788.9921875 l 5
 215.899414062 788.9921875 l 5
 188.022460938 355.919921875 l 5
189.291015625 239.440429688 m 5
 221.329101562 -170 l 5
 25 -170 l 5
 57.31640625 239.440429688 l 5
 189.291015625 239.440429688 l 5
EndSplineSet
Fore
SplineSet
193.022460938 355.919921875 m 1
 53.7568359375 355.919921875 l 1
 56.169921875 788.9921875 l 1
 190.899414062 788.9921875 l 1
 193.022460938 355.919921875 l 1
194.291015625 239.440429688 m 1
 196.329101562 -170 l 1
 50 -170 l 1
 52.31640625 239.440429688 l 1
 194.291015625 239.440429688 l 1
EndSplineSet
EndChar

StartChar: section
Encoding: 101 167 104
Width: 609
Flags: W
VStem: 110.253 174.099<538.8 615.624> 325.004 174.099<55.3761 132.21>
LayerCount: 2
Fore
SplineSet
69.890625 438.674804688 m 1
 119.677734375 355.385674027 202.50137192 324.521752305 326.131835938 283.893554688 c 0
 448.437219852 243.702566052 499.102539062 183.570042433 499.102539062 102.5 c 0
 499.102539062 -108.239257812 175.088867188 -114.163085938 175.088867188 -114.163085938 c 1
 156.552734375 16.9765625 l 1
 156.552734375 16.9765625 325.00390625 17.3547191975 325.00390625 94.279296875 c 0
 325.00390625 120.23119254 303.879639551 147.065755045 198.58984375 185.873046875 c 0
 102.054980157 224.403939447 30 280.180813086 30 347.936523438 c 0
 30 398.380604624 69.890625 438.674804688 69.890625 438.674804688 c 1
539.46484375 232.325195312 m 1
 489.677734375 315.614325973 406.680654092 346.100426299 283.223632812 387.106445312 c 0
 160.755402419 427.782281457 110.252929688 487.429957567 110.252929688 568.5 c 0
 110.252929688 779.239257812 434.266601562 785.163085938 434.266601562 785.163085938 c 1
 452.802734375 654.0234375 l 1
 452.802734375 654.0234375 284.3515625 653.645280802 284.3515625 576.720703125 c 0
 284.3515625 550.76880746 305.475829199 523.934244954 410.765625 485.126953125 c 0
 507.300488593 446.596060553 579.35546875 390.819186914 579.35546875 323.063476562 c 0
 579.35546875 272.619395376 539.46484375 232.325195312 539.46484375 232.325195312 c 1
EndSplineSet
EndChar

StartChar: currency
Encoding: 98 164 105
Width: 465
Flags: W
HStem: 153.532 118.966<195.469 274.894> 441.688 118.967<195.469 274.894>
VStem: 30.2803 120.989<297.115 417.603> 313.991 120.988<297.115 417.603>
LayerCount: 2
Fore
SplineSet
276.239257812 213.436523438 m 1
 369.889648438 246.325195312 l 1
 459.259765625 114.765625 l 1
 335.580078125 66.1455078125 l 1
 276.239257812 213.436523438 l 1
194.020507812 213.436523438 m 1
 134.6796875 66.1455078125 l 1
 6 114.765625 l 1
 95.3701171877 246.325195312 l 1
 194.020507812 213.436523438 l 1
276.239257812 497.74609375 m 1
 335.580078125 645.036132812 l 1
 459.259765625 596.416015625 l 1
 369.889648438 464.856445312 l 1
 276.239257812 497.74609375 l 1
194.020507812 497.74609375 m 1
 95.3701171877 464.856445312 l 1
 6 596.416015625 l 1
 134.6796875 645.036132812 l 1
 194.020507812 497.74609375 l 1
151.26953125 355.671875 m 0
 151.26953125 302.09167807 186.318979726 272.498046875 232.629882812 272.498046875 c 0
 278.944489304 272.498046875 313.991210938 302.09167807 313.991210938 355.671875 c 0
 313.991210938 410.057484444 278.944489304 441.688476562 232.629882812 441.688476562 c 0
 186.318979726 441.688476562 151.26953125 410.057484444 151.26953125 355.671875 c 0
30.2802734375 355.590820312 m 0
 30.2802734375 485.24609375 117.58205615 560.655273438 232.629882812 560.655273438 c 0
 347.677709474 560.655273438 434.979492188 485.24609375 434.979492188 355.590820312 c 0
 434.979492188 225.424804688 347.677709474 153.532226562 232.629882812 153.532226562 c 0
 117.58205615 153.532226562 30.2802734375 225.424804688 30.2802734375 355.590820312 c 0
EndSplineSet
EndChar

StartChar: dieresis
Encoding: 102 168 106
Width: 450
Flags: W
HStem: 589.008 150<69.1085 180.891 269.109 380.891>
VStem: 50 150<608.116 719.899> 250 150<608.116 719.899>
LayerCount: 2
Fore
SplineSet
250 664.0078125 m 0
 250 709.841441762 279.166370738 739.0078125 325 739.0078125 c 0
 370.833629262 739.0078125 400 709.841441762 400 664.0078125 c 0
 400 618.174183238 370.833629262 589.0078125 325 589.0078125 c 0
 279.166370738 589.0078125 250 618.174183238 250 664.0078125 c 0
50 664.0078125 m 0
 50 709.841441762 79.1663707387 739.0078125 125 739.0078125 c 0
 170.833629262 739.0078125 200 709.841441762 200 664.0078125 c 0
 200 618.174183238 170.833629262 589.0078125 125 589.0078125 c 0
 79.1663707387 589.0078125 50 618.174183238 50 664.0078125 c 0
EndSplineSet
EndChar

StartChar: guillemotleft
Encoding: 105 171 107
Width: 632
Flags: W
HStem: 491 20G<260.024 303.128>
LayerCount: 2
Fore
SplineSet
485.720703125 268 m 1
 621.69921875 144 l 1
 542.69921875 53.5 l 1
 311 260 l 1
 546.69921875 474 l 1
 621.69921875 395 l 1
 485.720703125 268 l 1
190.720703125 261.5 m 1
 371.69921875 96 l 1
 281.69921875 2 l 1
 1 252 l 1
 281.69921875 511 l 1
 371.69921875 427 l 1
 190.720703125 261.5 l 1
EndSplineSet
EndChar

StartChar: guillemotright
Encoding: 121 187 108
Width: 632
Flags: W
HStem: 491 20G<330.851 372.456>
LayerCount: 2
Fore
SplineSet
145.978515625 245 m 1
 10 369 l 1
 89 459.5 l 1
 320.69921875 253 l 1
 85 39 l 1
 10 118 l 1
 145.978515625 245 l 1
440.978515625 251.5 m 1
 260 417 l 1
 350 511 l 1
 630.69921875 261 l 1
 350 2 l 1
 260 86 l 1
 440.978515625 251.5 l 1
EndSplineSet
EndChar

StartChar: logicalnot
Encoding: 106 172 109
Width: 497
Flags: W
HStem: 272.5 124<31 335.5>
VStem: 331.5 136.5<143.824 266.466>
LayerCount: 2
Fore
SplineSet
31 396.5 m 1
 465.5 399 l 1
 468 140.5 l 1
 331.5 143.82421875 l 1
 335.5 266.465820312 l 1
 28 272.5 l 1
 31 396.5 l 1
EndSplineSet
EndChar

StartChar: macron
Encoding: 109 175 111
Width: 330
Flags: W
HStem: 624.008 107<123.136 311.5> 635.008 92<18.5 203.864>
VStem: 18.5 296
LayerCount: 2
Fore
SplineSet
18.5 727.0078125 m 1x60
 314.5 731.0078125 l 1
 311.5 624.0078125 l 1xa0
 15.5 635.0078125 l 1
 18.5 727.0078125 l 1x60
EndSplineSet
EndChar

StartChar: mu
Encoding: 115 181 112
Width: 643
Flags: W
HStem: -9.93164 118.5<220.265 338.754> 0 120.927<527.849 629.38> 490.502 6.5G<52.8408 207.17 377.81 525.312>
VStem: 35 152<-92.6481 499.123> 378 147.17<213.068 497.002>
LayerCount: 2
Fore
SplineSet
187 235.068359375 m 0x38
 187 4.92836574607 216 -167 216 -167 c 1
 62 -187 l 1
 62 -187 35 -6.66644428042 35 208.068359375 c 0
 35 356.805268415 52.8408203125 510.501953125 52.8408203125 510.501953125 c 1
 207.169921875 498.501953125 l 1
 207.169921875 498.501953125 187 353.912051659 187 235.068359375 c 0x38
266 -9.931640625 m 0xb8
 157.628171419 -9.931640625 110.491596638 107.209457329 97 188.068359375 c 1
 175 285.068359375 l 1
 174.615384616 165.651396194 214.388092377 108.568359375 276 108.568359375 c 0
 337.492058723 108.568359375 376.615384616 142.739733064 385 285.068359375 c 1
 430 213.068359375 l 1
 405.245283019 90 384.652969501 -9.931640625 266 -9.931640625 c 0xb8
373.270507812 0 m 1x78
 378 497.001953125 l 1
 525.169921875 497.001953125 l 1
 527.848632812 120.926757812 l 1
 633 122.930664062 l 1
 629.379882812 0 l 1
 373.270507812 0 l 1x78
EndSplineSet
EndChar

StartChar: acute
Encoding: 114 180 113
Width: 230
Flags: W
HStem: 521.72 218.784
VStem: 6 218.518
LayerCount: 2
Fore
SplineSet
145.840820312 740.50390625 m 1
 224.517578125 655.18359375 l 1
 57.4375 521.719726562 l 1
 6 577.465820312 l 1
 145.840820312 740.50390625 l 1
EndSplineSet
EndChar

StartChar: plusminus
Encoding: 111 177 114
Width: 450
Flags: W
HStem: 99 126<223 430> 111 111<21 258.333> 185.5 32.5<152.5 291.5> 348 124<21 265.833>
VStem: 169.5 115<330.794 587.25>
LayerCount: 2
Fore
SplineSet
21 472 m 1x18
 223 468.5 l 1
 432 475 l 1
 430.5 336 l 1
 222.5 352.5 l 1
 18.5 348 l 1
 21 472 l 1x18
292.5 609.5 m 1
 284.5 431.5 l 1
 291.5 183.5 l 1
 152.5 185.5 l 1x38
 169.5 432.5 l 1
 161.5 612.5 l 1
 292.5 609.5 l 1
21 222 m 1x58
 223 218 l 1x38
 432 225 l 1
 430 99 l 1x98
 18 111 l 1
 21 222 l 1x58
EndSplineSet
EndChar

StartChar: copyright
Encoding: 103 169 116
Width: 795
Flags: W
HStem: -10.0664 85.877<280.157 516.269> 139.745 103.5<352 520.348> 487.631 101.55<357.496 508.228> 655.64 83.2939<284.742 516.269>
VStem: 25 93<243.323 482.912> 190.479 118.35<286.171 436.74> 684.117 85.8828<243.323 482.912>
LayerCount: 2
Fore
SplineSet
190.479492188 362.9453125 m 0
 190.479492188 501.200345084 276.696141206 589.180664062 412.1796875 589.180664062 c 0
 516.984375589 589.180664062 561.529296875 543.489257812 561.529296875 543.489257812 c 1
 527.017578125 453.167114258 l 1
 527.017578125 453.167114258 489.232824358 487.630859375 430.479492188 487.630859375 c 0
 356.137355434 487.630859375 308.829467774 439.142732975 308.829467774 362.9453125 c 0
 308.829467774 289.795082573 348.566277628 243.245361328 426.279296875 243.245361328 c 0
 503.404383693 243.245361328 542.46875 278.75402832 542.46875 278.75402832 c 1
 570.666992188 179.424804688 l 1
 570.666992188 179.424804688 530.572264902 139.745117188 406.1796875 139.745117188 c 0
 274.362810406 139.745117188 190.479492188 226.544541099 190.479492188 362.9453125 c 0
25 361.93359375 m 0
 25 592.322641811 169.666509605 738.93359375 397 738.93359375 c 0
 624.944915062 738.93359375 770 592.322641811 770 361.93359375 c 0
 770 134.599173678 624.944915062 -10.06640625 397 -10.06640625 c 0
 169.666509605 -10.06640625 25 134.599173678 25 361.93359375 c 0
118 361.93359375 m 0
 118 187.080244542 226.887916667 75.810546875 398 75.810546875 c 0
 572.849853685 75.810546875 684.1171875 187.080244542 684.1171875 361.93359375 c 0
 684.1171875 541.422047698 572.849853685 655.639648438 398 655.639648438 c 0
 226.887916667 655.639648438 118 541.422047698 118 361.93359375 c 0
EndSplineSet
EndChar

StartChar: registered
Encoding: 108 174 117
Width: 795
Flags: W
HStem: -10.0664 85.877<280.157 516.269> 484.943 98.8506<368.832 471.364> 484.943 30.7549<316.777 366.856> 655.64 83.2939<284.742 516.269>
VStem: 25 93<243.323 482.912> 263.818 103.038<140.398 300.033 368.925 515.698> 488.729 108.825<374.349 466.91> 684.117 85.8828<243.323 482.912>
LayerCount: 2
Fore
SplineSet
368.85546875 140.3984375 m 1xbf
 260.116210938 140.3984375 l 1
 263.818359375 515.698242188 l 1
 366.856445312 515.698242188 l 1
 368.85546875 140.3984375 l 1xbf
348.721679688 368.924804688 m 1
 348.721679688 368.924804688 364.00726747 356.358398438 411.92956543 356.358398438 c 0
 460.771916944 356.358398438 488.729370117 383.867770821 488.729370117 419.958618164 c 0
 488.729370117 460.117671855 461.326051726 484.943359375 402.00390625 484.943359375 c 0
 316.777113952 484.943359375 208.515625 442.379882812 208.515625 442.379882812 c 1
 186.00390625 541.552734375 l 1
 186.00390625 541.552734375 252.91851864 583.793945312 410.354492188 583.793945312 c 0xdf
 524.754806858 583.793945312 597.5546875 523.346725276 597.5546875 428.358398438 c 0
 597.5546875 355.101613348 551.797793795 319.671927654 520.979248047 304.232788086 c 0
 504.468276874 296.068736383 491.547851562 293.422607422 491.547851562 293.422607422 c 1
 605.016601562 212.798583984 l 1
 540.666015625 124.448242188 l 1
 321.608398438 300.033447266 l 1
 348.721679688 368.924804688 l 1
25 361.93359375 m 0
 25 592.322641811 169.666509605 738.93359375 397 738.93359375 c 0
 624.944915062 738.93359375 770 592.322641811 770 361.93359375 c 0
 770 134.599173678 624.944915062 -10.06640625 397 -10.06640625 c 0
 169.666509605 -10.06640625 25 134.599173678 25 361.93359375 c 0
118 361.93359375 m 0
 118 187.080244542 226.887916667 75.810546875 398 75.810546875 c 0
 572.849853685 75.810546875 684.1171875 187.080244542 684.1171875 361.93359375 c 0
 684.1171875 541.422047698 572.849853685 655.639648438 398 655.639648438 c 0
 226.887916667 655.639648438 118 541.422047698 118 361.93359375 c 0
EndSplineSet
EndChar

StartChar: degree
Encoding: 110 176 118
Width: 429
Flags: W
HStem: 362.113 108.303<161.659 267.608> 630.593 108.399<161.659 267.608>
VStem: 23 117.384<491.054 608.579> 289.184 117.416<491.054 608.579>
LayerCount: 2
Fore
SplineSet
140.383789062 551.416015625 m 0
 140.383789062 501.916800363 169.197614569 470.416015625 214.479492188 470.416015625 c 0
 260.132081912 470.416015625 289.18359375 501.916800363 289.18359375 551.416015625 c 0
 289.18359375 599.802367087 260.132081912 630.592773438 214.479492188 630.592773438 c 0
 169.197614569 630.592773438 140.383789062 599.802367087 140.383789062 551.416015625 c 0
23 551.512695312 m 0
 23 666.083442413 97.4641935452 738.9921875 214.479492188 738.9921875 c 0
 331.886390726 738.9921875 406.599609375 666.083442413 406.599609375 551.512695312 c 0
 406.599609375 435.768125763 331.886390726 362.11328125 214.479492188 362.11328125 c 0
 97.4641935452 362.11328125 23 435.768125763 23 551.512695312 c 0
EndSplineSet
EndChar

StartChar: AE
Encoding: 132 198 119
Width: 960
Flags: W
HStem: 0 141.48<649.018 936.539> 153 142<311.684 574> 162.5 130<257 480.316> 293 142<621.684 884> 302.5 130<532 790.316> 583.08 147.928<194 477.988 646.104 928.729>
VStem: 528 121.018<302.5 432.5>
LayerCount: 2
Fore
SplineSet
257 292.5 m 1xa6
 578 295 l 1
 574 153 l 1xc6
 218 162.5 l 1
 257 292.5 l 1xa6
928.729492188 731.010742188 m 1
 934.61328125 584 l 1
 646.103515625 588 l 1
 649.017578125 141.48046875 l 1
 669.064453125 141.29296875 l 1
 940.159179688 142.930664062 l 1
 936.5390625 0 l 1
 473.4296875 0 l 1
 478.151367188 590.083984375 l 1
 185 583.080078125 l 1
 194 731.0078125 l 1
 928.729492188 731.010742188 l 1
532 432.5 m 1x8e
 888 435 l 1
 884 293 l 1x96
 528 302.5 l 1
 532 432.5 l 1x8e
547 620 m 1
 149.319335938 -15 l 1
 0.2734375 82 l 1
 435 683 l 1
 547 620 l 1
EndSplineSet
EndChar

StartChar: ae
Encoding: 164 230 120
Width: 880
Flags: W
HStem: -23.9004 120.301<634.286 776.819> -10.0664 109.5<189.267 319.203> 195.5 94.5<493.5 725> 240.434 96.5<187.901 322.487> 387.934 119<562.874 690.817> 501 20G<169.577 173>
VStem: 25 139<122.021 217.272> 344 113<122.358 192.107> 375 494.619<198.52 378.44>
LayerCount: 2
Fore
SplineSet
344 172.43359375 m 0x53
 344 211.779923349 309.1942995 240.43359375 254.5 240.43359375 c 0
 199.194300035 240.43359375 164 211.779923349 164 172.43359375 c 0
 164 128.451929552 199.194300035 99.43359375 254.5 99.43359375 c 0
 309.1942995 99.43359375 344 128.451929552 344 172.43359375 c 0x53
457 143.93359375 m 0
 457 93.4409857858 396.87864333 -10.06640625 238 -10.06640625 c 0
 107.833111103 -10.06640625 25 60.3221497616 25 170.93359375 c 0
 25 272.378779872 101.99920005 336.93359375 223 336.93359375 c 0
 385.180727721 336.93359375 457 222.897845789 457 143.93359375 c 0
473.848632812 150.926757812 m 1
 347.270507812 151 l 1
 347.270507812 151 352 244.29296875 352 304.5 c 0
 352 398.610957278 154 410 154 410 c 1
 173 521 l 1x06
 173 521 471.169921875 513.875646888 471.169921875 297.001953125 c 0
 471.169921875 241.854141501 473.848632812 150.926757812 473.848632812 150.926757812 c 1
EndSplineSet
Refer: 9 101 N 1 0 0 1 350 0 2
EndChar

StartChar: cedilla
Encoding: 118 184 121
Width: 227
Flags: W
HStem: -248 73<12 98.9791> -100.5 120.5<37 100.931>
VStem: 108 94<-164.22 -110.337>
LayerCount: 2
Fore
SplineSet
37 20 m 1
 120 17 l 1
 101 -48 l 1
 101 -48 202 -54.2003284072 202 -136 c 0
 202 -216.730463477 137.38071066 -242 12 -248 c 1
 6 -175 l 1
 78.3272727273 -174.475 108 -164.045548181 108 -136.5 c 0
 108 -112.252066116 86.0829367579 -101.933084351 21 -100.5 c 1
 13 -59.5 l 1
 37 20 l 1
EndSplineSet
EndChar

StartChar: paragraph
Encoding: 116 182 124
Width: 823
Flags: W
HStem: 590.992 148<427.6 515 664.261 699.116>
VStem: 30 397.6<375.734 589.839> 266 161.6<-173.994 19.6661> 281 146.6<47.3319 243.185> 515 160<-173.994 321.744> 515 149.261<90.8189 586.557>
LayerCount: 2
Fore
SplineSet
793 714.984375 m 1xc0
 782 577.984375 l 1
 782 577.984375 708.022576368 585.9921875 664.260742188 586.556640625 c 1xc4
 675 -173.994140625 l 1
 515 -173.994140625 l 1x88
 515 590.9921875 l 1
 427.599609375 590.9921875 l 1x94
 427.599609375 -173.994140625 l 1
 266 -173.994140625 l 1xa0
 281 240.9921875 l 1x90
 133.967604156 253.871308694 30 324.077035731 30 485.9921875 c 0
 30 667.805875713 153.448210343 738.9921875 388 738.9921875 c 0
 644.02336238 738.9921875 793 714.984375 793 714.984375 c 1xc0
EndSplineSet
EndChar

StartChar: Eth
Encoding: 142 208 125
Width: 783
Flags: W
HStem: -10.0664 158.5<311.77 485.959> 280 142<185.909 457> 291 127<34 302.091> 508.928 21G<43.9756 49.2695> 577.492 41.7578<177.51 305.67> 577.492 161.5<315.123 480.909>
VStem: 143.94 161.729<153.847 619.25> 587.917 171<253.478 471.651>
LayerCount: 2
Fore
SplineSet
34 418 m 1xb3
 460 422 l 1
 457 280 l 1xd3
 31 291 l 1
 34 418 l 1xb3
EndSplineSet
Refer: 57 68 N 1 0 0 1 0 0 2
EndChar

StartChar: eth
Encoding: 174 240 126
Width: 585
Flags: W
HStem: -10.0664 134.925<220.677 354.978> 370.009 136.925<216.286 358.698> 513.966 21G<175.923 222.323>
VStem: 25 148.375<172.91 325.492> 401.625 158.375<175.339 482.654>
LayerCount: 2
Fore
SplineSet
138.401367188 613.420898438 m 1
 306.440429688 684.025390625 l 1
 460.33984375 774.794921875 l 1
 513.955078125 661.89453125 l 1
 344.1171875 599.879882812 l 1
 185.368164062 513.965820312 l 1
 138.401367188 613.420898438 l 1
173.375 251.358398438 m 0
 173.375 174.052698396 217.572075721 124.858398438 287.025390625 124.858398438 c 0
 357.058782728 124.858398438 401.625 174.052698396 401.625 251.358398438 c 0
 401.625 323.867389618 357.058782728 370.008789062 287.025390625 370.008789062 c 0
 217.572075721 370.008789062 173.375 323.867389618 173.375 251.358398438 c 0
25 249.93359375 m 0
 25 406.989257812 117.166566604 506.93359375 262 506.93359375 c 0
 350.978718548 506.93359375 376.90234375 478.057617188 376.90234375 478.057617188 c 1
 334.377320704 633.857640778 172.021484375 698.267578125 172.021484375 698.267578125 c 1
 317.270507812 782.510742188 l 1
 317.270507812 782.510742188 560 639.959487241 560 312 c 0
 560 76.5609773511 453.83367778 -10.06640625 287 -10.06640625 c 0
 126.888778272 -10.06640625 25 91.0439453125 25 249.93359375 c 0
EndSplineSet
EndChar

StartChar: multiply
Encoding: 149 215 127
Width: 450
Flags: W
LayerCount: 2
Fore
SplineSet
333.034179688 568.0859375 m 1
 429 476.36328125 l 1
 274.92578125 335.126953125 l 1
 124.036132812 158.670898438 l 1
 23.12109375 256.7578125 l 1
 193.818359375 412.094726562 l 1
 333.034179688 568.0859375 l 1
119.086914062 568.0859375 m 1
 263.302734375 412.094726562 l 1
 429 256.7578125 l 1
 328.084960938 158.670898438 l 1
 179.6953125 335.126953125 l 1
 23.12109375 476.36328125 l 1
 119.086914062 568.0859375 l 1
EndSplineSet
EndChar

StartChar: divide
Encoding: 181 247 128
Width: 450
Flags: W
HStem: 135.5 150<165.383 284.617> 316.5 109<35 416> 453.5 150<165.383 284.617>
VStem: 145 160<155.812 265.188 473.812 583.188>
LayerCount: 2
Fore
SplineSet
145 528.5 m 0
 145 574.33391462 176.111111111 603.5 225 603.5 c 0
 273.888888889 603.5 305 574.33391462 305 528.5 c 0
 305 482.66608538 273.888888889 453.5 225 453.5 c 0
 176.111111111 453.5 145 482.66608538 145 528.5 c 0
34 425.5 m 1
 420 429.5 l 1
 416 312.5 l 1
 35 316.5 l 1
 34 425.5 l 1
145 210.5 m 0
 145 256.33391462 176.111111111 285.5 225 285.5 c 0
 273.888888889 285.5 305 256.33391462 305 210.5 c 0
 305 164.66608538 273.888888889 135.5 225 135.5 c 0
 176.111111111 135.5 145 164.66608538 145 210.5 c 0
EndSplineSet
EndChar

StartChar: Oslash
Encoding: 150 216 129
Width: 785
Flags: W
HStem: -10.0664 162.851<299.594 478.254> 576.083 162.851<299.594 478.254>
VStem: 30 171.487<258.997 466.685> 583.513 171.487<261.252 464.372>
LayerCount: 2
Fore
SplineSet
715.94921875 724.43359375 m 1
 437.330078125 347.299804688 l 1
 190.37890625 -83.5 l 1
 74.05078125 -14.5 l 1
 356.529296875 380.700195312 l 1
 606.220703125 796.43359375 l 1
 715.94921875 724.43359375 l 1
EndSplineSet
Refer: 43 79 N 1 0 0 1 0 0 2
EndChar

StartChar: oslash
Encoding: 182 248 130
Width: 565
Flags: W
HStem: -10.0664 133.425<216.59 347.694> 373.509 133.425<213.328 350.968>
VStem: 25 144.375<170.979 327.456> 395.125 144.875<172.16 326.301>
LayerCount: 2
Fore
SplineSet
508.0390625 503.638671875 m 1
 315.294921875 239.815429688 l 1
 142.185546875 -47.2802734375 l 1
 61.9609375 3.599609375 l 1
 257.09765625 268.624023438 l 1
 431.90625 556.37890625 l 1
 508.0390625 503.638671875 l 1
EndSplineSet
Refer: 3 111 N 1 0 0 1 0 0 2
EndChar

StartChar: Thorn
Encoding: 156 222 131
Width: 714
Flags: W
HStem: 0 21G<136.458 312.787> 119.934 134<313.238 485.418> 474.992 140<310.022 484.688> 590.084 140.927<26.248 140.779>
VStem: 136.458 176.329<0 169.434 289.877 438.428> 528.917 163<295.715 434.199>
LayerCount: 2
Fore
SplineSet
274.196289062 289.876953125 m 1xec
 274.196289062 289.876953125 310.075230129 253.93359375 402.916992188 253.93359375 c 0
 485.501179245 253.93359375 528.916992188 294.466568318 528.916992188 359.93359375 c 0
 528.916992188 436.975402256 487.467479674 474.9921875 395.916992188 474.9921875 c 0
 323.063362579 474.9921875 269.26953125 438.427734375 269.26953125 438.427734375 c 1
 238 565.840820312 l 1
 238 565.840820312 308.821096173 614.9921875 421.916992188 614.9921875 c 0
 588.48814174 614.9921875 691.916992188 520.322217725 691.916992188 354.93359375 c 0
 691.916992188 212.409383138 592.539009232 119.93359375 431.916992188 119.93359375 c 0
 315.407785301 119.93359375 245.2578125 169.43359375 245.2578125 169.43359375 c 1
 274.196289062 289.876953125 l 1xec
307.357421875 731.010742188 m 1xdc
 312.787109375 0 l 1
 136.458007812 0 l 1
 140.779296875 590.083984375 l 1
 22.6279296875 588.080078125 l 1
 26.248046875 731.010742188 l 1
 307.357421875 731.010742188 l 1xdc
EndSplineSet
EndChar

StartChar: thorn
Encoding: 188 254 132
Width: 672
Flags: W
HStem: -10.0664 130<311.815 453.141> 376.934 130<312.39 453.141> 634.084 120.927<13.6201 108.151>
VStem: 108.151 146.578<-174 634.084> 182 78.1592<80.5317 400.333> 500.5 146.5<171.107 327.383>
LayerCount: 2
Fore
SplineSet
264.5 249.93359375 m 0xe4
 264.5 170.488867188 310.194004803 119.93359375 382 119.93359375 c 0
 454.417397239 119.93359375 500.5 170.488867188 500.5 249.93359375 c 0
 500.5 327.545415189 454.417397239 376.93359375 382 376.93359375 c 0
 310.194004803 376.93359375 264.5 327.545415189 264.5 249.93359375 c 0xe4
182 247.93359375 m 0xec
 182 400.332816709 262.432681718 506.93359375 414 506.93359375 c 0
 556.389554208 506.93359375 647 406.989257812 647 249.93359375 c 0
 647 91.0439453125 556.389554208 -10.06640625 414 -10.06640625 c 0
 272.221778634 -10.06640625 182 80.5317314963 182 247.93359375 c 0xec
254.729492188 755.010742188 m 1xf4
 260.159179688 -174 l 1xec
 103.830078125 -174 l 1
 108.151367188 634.083984375 l 1
 10 632.080078125 l 1
 13.6201171875 755.010742188 l 1
 254.729492188 755.010742188 l 1xf4
EndSplineSet
EndChar

StartChar: kgreenlandic
Encoding: 246 312 133
Width: 613
Flags: W
HStem: 0 21G<118.83 275.159> 376.084 120.927<13.6201 123.151> 494 20G<446.31 488.34>
VStem: 118.83 156.329<0 376.084>
LayerCount: 2
Fore
SplineSet
466 514 m 1xb0
 571 420 l 1
 391 255 l 1
 593 87 l 1
 481 -17 l 1
 212 256 l 1
 466 514 l 1xb0
269.729492188 497.010742188 m 1xd0
 275.159179688 0 l 1
 118.830078125 0 l 1
 123.151367188 376.083984375 l 1
 10 374.080078125 l 1
 13.6201171875 497.010742188 l 1
 269.729492188 497.010742188 l 1xd0
EndSplineSet
EndChar

StartChar: Eng
Encoding: 264 330 134
Width: 830
Flags: W
HStem: 0 21G<133.83 310.159> 586.992 152<390.086 540.575> 590.084 140.927<23.6201 138.151>
VStem: 133.83 176.329<0 445.992> 600.372 175.5<78.3089 517.383>
LayerCount: 2
Back
SplineSet
242.872070312 445.9921875 m 1xb8
 269.833984375 629.037109375 354.87109375 738.9921875 530.872070312 738.9921875 c 0
 688.88671875 738.9921875 785.872070312 652.708007812 785.872070312 430.9921875 c 0
 785.872070312 211.653320312 768.03125 -15 768.03125 -15 c 1
 546.702148438 0 l 1
 546.702148438 0 566.872070312 216.249023438 566.872070312 393.9921875 c 0
 566.872070312 495.55078125 538.45703125 553.9921875 457.872070312 553.9921875 c 0
 375.891601562 553.9921875 326.822265625 510.404296875 300.872070312 398.9921875 c 1
 242.872070312 445.9921875 l 1xb8
334.729492188 731.010742188 m 1
 340.159179688 0 l 1
 123.830078125 0 l 1
 128.151367188 560.083984375 l 1
 10 558.080078125 l 1
 13.6201171875 731.010742188 l 1
 334.729492188 731.010742188 l 1
EndSplineSet
Fore
SplineSet
212.872070312 445.9921875 m 1xd8
 240.770352992 629.037109375 328.760551639 738.9921875 510.872070312 738.9921875 c 0
 670.08322598 738.9921875 775.872070312 652.708007812 775.872070312 430.9921875 c 0
 775.872070312 274.59375 761.301757812 29.9814453125 761.301757812 29.9814453125 c 1
 602.642578125 -192.018554688 l 1
 449.642578125 -105.018554688 l 1
 586.47265625 64.9814453125 l 1
 586.47265625 64.9814453125 600.372070312 268.727927578 600.372070312 398.9921875 c 0
 600.372070312 518.323535156 563.485007743 586.9921875 458.872070312 586.9921875 c 0
 360.704389078 586.9921875 301.946085819 534.124294355 270.872070312 398.9921875 c 1
 212.872070312 445.9921875 l 1xd8
304.729492188 731.010742188 m 1xb8
 310.159179688 0 l 1
 133.830078125 0 l 1
 138.151367188 590.083984375 l 1
 20 588.080078125 l 1
 23.6201171875 731.010742188 l 1
 304.729492188 731.010742188 l 1xb8
EndSplineSet
EndChar

StartChar: eng
Encoding: 265 331 135
Width: 643
Flags: W
HStem: 0 21G<113.83 270.159> 376.075 120.927<13.6201 118.151> 377.934 129<306.466 426.757>
VStem: 113.83 156.329<0 253.934> 456 152<16.0035 345.468>
LayerCount: 2
Back
SplineSet
188 253.93359375 m 5xb8
 210.000338808 411.989257812 279.388472577 506.93359375 423 506.93359375 c 4
 558.0703125 506.93359375 628 429.158131451 628 278.93359375 c 4
 628 134.376986611 610.159179688 -15 610.159179688 -15 c 5
 415.830078125 0 l 5
 415.830078125 0 436 138.277935542 436 251.93359375 c 4
 436 312.868913517 418.012695312 347.93359375 367 347.93359375 c 4
 307.390237894 347.93359375 282.693825662 311.094726562 266 216.93359375 c 5
 188 253.93359375 l 5xb8
EndSplineSet
Fore
SplineSet
456 251.93359375 m 0xb8
 456 331.911200944 432.798983808 377.93359375 367 377.93359375 c 0
 295.586324606 377.93359375 265.999533714 332.658344763 246 216.93359375 c 1
 178 253.93359375 l 1
 199.532246493 411.989257812 267.444036991 506.93359375 408 506.93359375 c 0
 539.775914634 506.93359375 608 429.158131451 608 278.93359375 c 0
 608 170.142989767 592.159179688 0 592.159179688 0 c 1
 468 -194 l 1
 328 -118 l 1
 437.830078125 18 l 1
 437.830078125 18 456 160.698425479 456 251.93359375 c 0xb8
264.729492188 497.001953125 m 1xd8
 270.159179688 0 l 1
 113.830078125 0 l 1
 118.151367188 376.075195312 l 1
 10 374.071289062 l 1
 13.6201171875 497.001953125 l 1
 264.729492188 497.001953125 l 1xd8
EndSplineSet
EndChar

StartChar: OE
Encoding: 272 338 136
Width: 1105
Flags: W
HStem: -10.0664 162.851<299.594 478.254> 0 141.293<794.064 1081.54> 293 142<766.684 1029> 302.5 130<677 935.316> 576.083 162.851<299.594 478.254> 588 143.011<791.104 1073.73>
VStem: 30 171.487<258.997 466.685> 583.513 171.487<261.252 464.372> 673 121.018<302.5 432.5>
LayerCount: 2
Fore
SplineSet
677 432.5 m 1x1280
 1033 435 l 1
 1029 293 l 1x2280
 673 302.5 l 1
 677 432.5 l 1x1280
1073.72949219 731.010742188 m 1x4680
 1079.61328125 584 l 1
 791.103515625 588 l 1
 794.017578125 141.48046875 l 1
 794.064453125 141.29296875 l 1
 1085.15917969 142.930664062 l 1
 1081.5390625 0 l 1
 618.4296875 0 l 1
 623.151367188 731.010742188 l 1
 1073.72949219 731.010742188 l 1x4680
EndSplineSet
Refer: 43 79 N 1 0 0 1 0 0 2
EndChar

StartChar: longs
Encoding: 317 383 138
Width: 401
Flags: W
HStem: 0 21G<113.335 268.637> 373.5 123.5<21 187>
VStem: 94.8691 153.533<495.76 622.913> 113.335 155.302<0 378.5 399.965 479.012> 115.994 71.0059<378.5 493>
LayerCount: 2
Fore
SplineSet
115.984375 412.096679688 m 2xd0
 115.990890722 413.106854977 115.994108927 414.107764169 115.994108927 415.099599442 c 0xc8
 115.994108927 495.588729918 94.869140625 516.320445797 94.869140625 580 c 0
 94.869140625 711.412976765 188.061410155 767.86158329 352.01953125 797.84375 c 1
 374.2265625 672.374023438 l 1
 282.677464788 653.591561854 248.40234375 621.441549288 248.40234375 561 c 0xe0
 248.40234375 518.413263121 263.871883933 479.012304531 264.637695312 399.96484375 c 2
 268.63671875 0 l 1
 113.334960938 0 l 1
 115.984375 412.096679688 l 2xd0
187 378.5 m 1
 17 373.5 l 1
 21 497 l 1
 190 493 l 1
 187 378.5 l 1
EndSplineSet
EndChar

StartChar: uni018F
Encoding: 318 399 139
Width: 761
Flags: W
HStem: -9.99805 157<288.319 464.38> 300.566 137.587<214.162 612.81> 589.13 165.548<179.663 367.446>
VStem: 30 700.81<197.889 391.999>
LayerCount: 2
Back
SplineSet
20 361.93359375 m 0
 20 592.358449127 162.722067273 738.9921875 387 738.9921875 c 0
 692.703602516 738.9921875 740.809570312 528.036293548 740.809570312 395.250976562 c 0
 740.809570312 330.260178936 729.916992188 282.840820312 729.916992188 282.840820312 c 5
 148 284 l 5
 137 441 l 1
 505.647460938 445.427734375 l 1
 505.647460938 445.427734375 494.816386769 543.9921875 381 543.9921875 c 0
 300.33283944 543.9921875 249 476.30370791 249 369.93359375 c 0
 249 231.45533579 353.417075805 194.391339376 594.1484375 183.364257812 c 1
 571.146484375 -25.68359375 l 1
 248.292348682 -22.428262906 20 98.1280331654 20 361.93359375 c 0
EndSplineSet
Fore
SplineSet
730.809570312 362.060546875 m 0
 730.809570312 134.691249164 593.143053107 -9.998046875 376.809570312 -9.998046875 c 0
 77.1542078589 -9.998046875 30 197.889319254 30 328.743164062 c 0
 30 391.999488584 40.892578125 438.153320312 40.892578125 438.153320312 c 1
 612.809570312 436.994140625 l 1
 623.809570312 304.994140625 l 1
 214.162109375 300.56640625 l 1
 214.162109375 300.56640625 213.828057449 294.380541663 214.77088662 286.000000227 c 0
 218.242774497 226.052065559 259.39077792 147.001953125 381.309570312 147.001953125 c 0
 483.671308144 147.001953125 548.809570312 222.523581474 548.809570312 354.060546875 c 0
 548.809570312 528.537193731 442.140109417 578.736234494 163.161132812 589.129882812 c 1
 179.663085938 754.677734375 l 1
 512.51722163 751.380411961 730.809570312 629.269021071 730.809570312 362.060546875 c 0
EndSplineSet
EndChar

StartChar: ordfeminine
Encoding: 104 170 140
Width: 478
Flags: W
HStem: 272 89<55 436> 402 100<149.826 260.339> 410 93<403 464> 648 100<150.417 258.233>
VStem: 18 112<521.803 627.141> 278 125<529.692 619.222> 286 115<589 741> 286 56<488.381 686.107>
LayerCount: 2
Fore
SplineSet
54 361 m 1x98
 440 365 l 1
 436 268 l 1
 55 272 l 1
 54 361 l 1x98
278 574 m 0xdc
 278 619.222222222 250.310344827 648 205 648 c 0
 160 648 130 619.222222222 130 574 c 0
 130 529.692307692 160 502 205 502 c 0
 250.310344827 502 278 529.692307692 278 574 c 0xdc
342 589 m 0xd9
 342 488.38071066 285 402 178 402 c 0
 80.0606060606 402 18 469 18 574 c 0
 18 680 80.0606060606 748 178 748 c 0
 278 748 342 686.107382551 342 589 c 0xd9
283 410 m 1xbc
 286 741 l 1
 401 741 l 1xba
 403 503 l 1
 466 505 l 1
 464 410 l 1
 283 410 l 1xbc
EndSplineSet
EndChar

StartChar: ordmasculine
Encoding: 120 186 141
Width: 399
Flags: W
HStem: 272 89<25 370> 403 104<145.065 253.736> 644 104<145.065 253.736>
VStem: 18 109<525.208 624.881> 272 109<524.67 627.559>
LayerCount: 2
Fore
SplineSet
24 361 m 1
 374 365 l 1
 370 268 l 1
 25 272 l 1
 24 361 l 1
127 576 m 0
 127 533.755102041 155.678571428 507 200 507 c 0
 244.509090909 507 272 533.755102041 272 576 c 0
 272 617.083333333 244.509090909 644 200 644 c 0
 155.678571428 644 127 617.083333333 127 576 c 0
18 577 m 0
 18 682 88.064516129 748 199 748 c 0
 309.951871658 748 381 682 381 577 c 0
 381 471 309.951871658 403 199 403 c 0
 88.064516129 403 18 471 18 577 c 0
EndSplineSet
EndChar

StartChar: germandbls
Encoding: 157 223 142
Width: 688
Flags: W
HStem: 0 21G<113.335 268.637> 378.5 114.5<21 115.984 116.002 188> 647.374 127.47<282.15 438.163>
VStem: 99.3691 151.533<495.981 615.782> 113.335 155.302<0 378.5 399.965 476.312> 116.002 71.9982<378.5 493> 330 161.432<320.759 380.658> 476.509 150.491<491.613 608.483> 498.438 159.852<129.01 195.24>
LayerCount: 2
Fore
SplineSet
190 493 m 1xe4
 188 378.5 l 1
 17 373.5 l 1
 21 497 l 1
 190 493 l 1xe4
115.984375 412.096679688 m 2
 115.995908186 413.890581134 116.001753435 415.655938752 116.001753435 417.393781972 c 0xe4
 116.001753435 494.57779083 99.369140625 515.107964344 99.369140625 577 c 0
 99.369140625 696.348092941 194.507760774 774.84375 362.01953125 774.84375 c 0
 521.32280429 774.84375 627 701.368348262 627 536.93359375 c 0xf1
 627 461.096644197 602.732421875 403.200195312 602.732421875 403.200195312 c 1
 602.732421875 403.200195312 491.431640625 397.893481413 491.431640625 352 c 0
 491.431640625 334.26988567 503.016190774 322.041004739 555.015625 299.580566406 c 0
 629.230911884 267.143553052 658.2890625 227.770884932 658.2890625 164.5 c 0
 658.2890625 -20.0535296764 368.0390625 -23.900390625 368.0390625 -23.900390625 c 1
 351.069335938 94.400390625 l 1
 351.069335938 94.400390625 498.4375 100.847032055 498.4375 159 c 0
 498.4375 184.295205032 479.611234841 197.540518946 432.036132812 218.200195312 c 0
 355.959969641 253.138629969 330 287.050127813 330 343.5 c 0xe280
 330 426.087323868 392.218115619 469.862704754 471.392578125 493.052734375 c 1
 471.392578125 493.052734375 476.508789062 511.568473179 476.508789062 541.916015625 c 0
 476.508789062 601.48997384 442.225379635 647.374023438 359 647.374023438 c 0
 279.758021948 647.374023438 250.90234375 605.346272607 250.90234375 555.5 c 0xf1
 250.90234375 514.367771927 263.874343065 476.311998738 264.637695312 399.96484375 c 2
 268.63671875 0 l 1
 113.334960938 0 l 1xe8
 115.984375 412.096679688 l 2
EndSplineSet
EndChar

StartChar: florin
Encoding: 319 402 144
Width: 433
Flags: W
HStem: 373.5 123.5<21 232.053> 480 20G<190 403.559>
VStem: 94.8691 153.533<496.466 622.913> 115.994 148.644<20 478.94>
LayerCount: 2
Fore
SplineSet
21 497 m 1x80
 190 493 l 1
 404 500 l 1x40
 401 364 l 1
 187 378.5 l 1
 17 373.5 l 1
 21 497 l 1x80
268.63671875 0 m 1
 144.477539062 -194 l 1
 4.4775390625 -118 l 1
 112.307617188 20 l 1
 115.984375 412.096679688 l 2
 115.994026862 413.125973228 115.994140625 414.120894614 115.994140625 415.099609375 c 0x10
 115.994140625 494.065459228 94.869140625 515.800022262 94.869140625 580 c 0
 94.869140625 711.412976765 188.061410155 767.86158329 352.01953125 797.84375 c 1
 374.2265625 672.374023438 l 1
 282.677464788 653.591561855 248.40234375 621.441549287 248.40234375 561 c 0x20
 248.40234375 518.413263121 263.848066732 478.940042744 264.637695312 399.96484375 c 2x10
 268.63671875 0 l 1
EndSplineSet
EndChar

StartChar: circumflex
Encoding: 427 710 145
Width: 332
Flags: W
HStem: 528 220
VStem: 5 322
LayerCount: 2
Fore
SplineSet
164 748 m 1
 327 607 l 1
 254 528 l 1
 165 630 l 1
 74 532 l 1
 5 601 l 1
 164 748 l 1
EndSplineSet
EndChar

StartChar: caron
Encoding: 428 711 146
Width: 332
Flags: W
HStem: 526 220
VStem: 5 322
LayerCount: 2
Fore
SplineSet
168 526 m 1
 5 667 l 1
 78 746 l 1
 167 644 l 1
 258 742 l 1
 327 673 l 1
 168 526 l 1
EndSplineSet
EndChar

StartChar: tilde
Encoding: 434 732 147
Width: 384
Flags: W
HStem: 540.687 206.975 713.706 20G<292.863 331.363>
LayerCount: 2
Fore
SplineSet
246.821289062 662.879882812 m 1x80
 310.98046875 733.706054688 l 1x40
 378.66015625 667.295898438 l 1
 246.280273438 540.686523438 l 1
 143.83984375 625.467773438 l 1
 71.6806640625 554.640625 l 1
 6 623.051757812 l 1
 143.380859375 747.661132812 l 1
 246.821289062 662.879882812 l 1x80
EndSplineSet
EndChar

StartChar: zero.superior
Encoding: 660 8304 148
Width: 449
Flags: W
HStem: 342 112.5<171.793 277.624> 730.5 112.5<171.793 277.624>
VStem: 15.625 115.625<499.08 684.682> 318.375 115.625<499.08 684.682>
LayerCount: 2
Fore
SplineSet
131.25 591 m 0
 131.25 508 167.375 454.5 224.625 454.5 c 0
 281.875 454.5 318.375 508 318.375 591 c 0
 318.375 676.625 281.875 730.5 224.625 730.5 c 0
 167.375 730.5 131.25 676.625 131.25 591 c 0
15.625 591 m 0
 15.625 745 97.125 843 224.625 843 c 0
 352.75 843 434 745 434 591 c 0
 434 439 352.75 342 224.625 342 c 0
 97.125 342 15.625 439 15.625 591 c 0
EndSplineSet
EndChar

StartChar: one.superior
Encoding: 119 185 149
Width: 244
Flags: W
HStem: 738.5 98.5<14.5 99.5>
VStem: 96.5 121.5<350 739.5>
LayerCount: 2
Fore
SplineSet
214.625 837 m 1
 218 350 l 1
 96.5 350 l 1
 99.5 739.5 l 1
 11.875 738.5 l 1
 14.5 837 l 1
 214.625 837 l 1
EndSplineSet
EndChar

StartChar: two.superior
Encoding: 112 178 150
Width: 396
Flags: W
HStem: 350 106.375<210.375 373.25> 735.25 107.75<84.7299 220.568>
VStem: 239.5 125.25<593.991 714.899>
LayerCount: 2
Fore
SplineSet
210.375 456.375 m 1
 377.75 460.375 l 1
 373.25 350 l 1
 24.875 350 l 1
 18.25 432.375 l 1
 18.25 432.375 239.5 539.625 239.5 657.125 c 0
 239.5 709.875 210.125 735.25 159.75 735.25 c 0
 96.375 735.25 58 693 58 693 c 1
 15.875 792.625 l 1
 15.875 792.625 78.5 843 183.625 843 c 0
 300.75 843 364.75 781 364.75 683 c 0
 364.75 533.25 210.375 456.375 210.375 456.375 c 1
EndSplineSet
EndChar

StartChar: three.superior
Encoding: 113 179 151
Width: 387
Flags: W
HStem: 343 99.5<37.3988 229.806> 728.625 108.375<24.875 202.125>
VStem: 244.625 123.875<458.392 541.148>
LayerCount: 2
Fore
SplineSet
244.375 630 m 1
 248.875 630 259 629 272.25 625.125 c 0
 314.375 614.125 368.5 578.5 368.5 494.375 c 0
 368.5 395.375 294 343 178 343 c 0
 60.375 343 10.25 372 10.25 372 c 1
 36.25 469.5 l 1
 36.25 469.5 87.625 442.5 159 442.5 c 0
 219.375 442.5 244.625 464.75 244.625 502 c 0
 244.625 534 219.125 555.5 168.5 555.5 c 0
 126.625 555.5 104 546.875 104 546.875 c 1
 86.625 609.5 l 1
 202.125 728.625 l 1
 19 725.75 l 1
 24.875 837 l 1
 348.125 837 l 1
 354.5 752 l 1
 244.375 630 l 1
EndSplineSet
EndChar

StartChar: four.superior
Encoding: 661 8308 152
Width: 464
Flags: W
HStem: 469.5 97.125<151.125 441.375>
LayerCount: 2
Fore
SplineSet
366.875 750.125 m 1
 370.875 350 l 1
 254 350 l 1
 258 750.125 l 1
 366.875 750.125 l 1
216.25 854 m 1
 311.75 795.125 l 1
 151.125 566.625 l 1
 444.25 568.5 l 1
 441.375 465.625 l 1
 34.75 469.5 l 1
 13.875 536.625 l 1
 216.25 854 l 1
EndSplineSet
EndChar

StartChar: five.superior
Encoding: 662 8309 153
Width: 396
Flags: W
HStem: 342.625 99.875<55.5439 236.318> 574.375 93.125<134.767 238.364> 733.25 103.75<149.25 343.375>
VStem: 256.25 120.875<461.694 557.061>
LayerCount: 2
Fore
SplineSet
343.375 732.25 m 1
 149.25 733.25 l 1
 134.75 649.875 l 1
 134.75 649.875 156.125 667.5 216.25 667.5 c 0
 330 667.5 377.125 605.5 377.125 511.75 c 0
 377.125 394.25 301.125 342.625 182.125 342.625 c 0
 61.5 342.625 10.25 379 10.25 379 c 1
 36.75 472.25 l 1
 36.75 472.25 91.375 442.5 166.5 442.5 c 0
 226.875 442.5 256.25 468.75 256.25 510.375 c 0
 256.25 549.375 227.75 574.375 171.25 574.375 c 0
 119.75 574.375 88.875 546.875 88.875 546.875 c 1
 19.375 602 l 1
 60.125 837 l 1
 343.375 837 l 1
 343.375 732.25 l 1
EndSplineSet
EndChar

StartChar: six.superior
Encoding: 663 8310 154
Width: 411
Flags: W
HStem: 342 100.25<158.157 262.568> 585.375 88.25<156.9 263.258> 744.25 104.75<232.396 330.019>
VStem: 18.25 121.75<461.208 622.114> 280.375 113.125<460.308 567.64>
LayerCount: 2
Fore
SplineSet
329.125 849 m 1
 342.5 744.25 l 1
 153.875 730.375 147.125 647.375 147.125 647.375 c 1
 147.125 647.375 172.5 673.625 241.875 673.625 c 0
 333.75 673.625 393.5 611.5 393.5 517.375 c 0
 393.5 420.5 342.625 342 210.375 342 c 0
 95.375 342 18.25 405.625 18.25 553 c 0
 18.25 695 92.75 835 329.125 849 c 1
140 514.5 m 0
 140 470.25 167.625 442.25 210.375 442.25 c 0
 253.375 442.25 280.375 470.25 280.375 514.5 c 0
 280.375 558.125 253.375 585.375 210.375 585.375 c 0
 167.625 585.375 140 558.125 140 514.5 c 0
EndSplineSet
EndChar

StartChar: seven.superior
Encoding: 664 8311 155
Width: 379
Flags: W
HStem: 729.5 107.5<126.375 247.75>
LayerCount: 2
Fore
SplineSet
9.875 640.5 m 1
 30.625 837 l 1
 349.875 837 l 1
 380.875 766.625 l 1
 219.375 338.625 l 1
 99.375 375.625 l 1
 247.75 730.5 l 1
 126.375 729.5 l 1
 115 631.125 l 1
 9.875 640.5 l 1
EndSplineSet
EndChar

StartChar: eight.superior
Encoding: 665 8312 156
Width: 407
Flags: W
HStem: 342 99.75<141.587 257.658> 746 97<155.265 256.877>
VStem: 18.25 112.125<454.481 542.86> 35.625 111.5<667.058 735.576> 266.875 104.25<654.287 735.85> 269.25 120.5<453.136 529.177>
LayerCount: 2
Fore
SplineSet
200.5 441.75 m 0xe4
 243.125 441.75 269.25 460.5 269.25 491.5 c 0xe4
 269.25 521.375 246.75 538.25 179.75 560.5 c 0
 83.5 592.875 35.625 637.375 35.625 708 c 0
 35.625 791 102.125 843 206.875 843 c 0
 307.625 843 371.125 796.625 371.125 712.625 c 0
 371.125 618 260.625 583.125 260.625 583.125 c 1
 198.625 620.125 l 1
 198.625 620.125 266.875 652.75 266.875 695.875 c 0
 266.875 727.25 243.875 746 206.5 746 c 0
 169.75 746 147.125 728.25 147.125 699.875 c 0xd8
 147.125 674.25 165.125 661.625 222.75 645.5 c 0
 345.125 611.75 389.75 570.75 389.75 490.375 c 0
 389.75 397.875 320.5 342 205.125 342 c 0
 93.375 342 18.25 397 18.25 481 c 0
 18.25 578.625 123.75 610.5 123.75 610.5 c 1
 190.25 569.125 l 1
 190.25 569.125 130.375 545.375 130.375 494.5 c 0
 130.375 462.5 157.75 441.75 200.5 441.75 c 0xe4
EndSplineSet
EndChar

StartChar: nine.superior
Encoding: 666 8313 157
Width: 411
Flags: W
HStem: 336 104.75<81.773 180.137> 511.75 87.875<148.96 255.492> 742.75 100.25<149.462 254.109>
VStem: 18.25 113.125<617.378 724.692> 272.125 121.75<562.886 723.792>
LayerCount: 2
Fore
SplineSet
82.625 336 m 1
 69.875 440.75 l 1
 258.875 454.625 265.25 538 265.25 538 c 1
 265.25 538 239.875 511.75 170.5 511.75 c 0
 78.625 511.75 18.25 573.5 18.25 667.625 c 0
 18.25 764.5 69.125 843 201.75 843 c 0
 316.75 843 393.875 779.375 393.875 632 c 0
 393.875 490 319.375 350 82.625 336 c 1
272.125 670.5 m 0
 272.125 714.75 245.125 742.75 202.375 742.75 c 0
 159 742.75 131.375 714.75 131.375 670.5 c 0
 131.375 626.875 159 599.625 202.375 599.625 c 0
 245.125 599.625 272.125 626.875 272.125 670.5 c 0
EndSplineSet
EndChar

StartChar: zero.inferior
Encoding: 667 8320 158
Width: 449
Flags: W
HStem: -358 112.5<171.793 277.624> 30.5 112.5<171.793 277.624>
VStem: 15.625 115.625<-200.92 -15.3175> 318.375 115.625<-200.92 -15.3175>
LayerCount: 2
Fore
SplineSet
131.25 -109 m 0
 131.25 -192 167.375 -245.5 224.625 -245.5 c 0
 281.875 -245.5 318.375 -192 318.375 -109 c 0
 318.375 -23.375 281.875 30.5 224.625 30.5 c 0
 167.375 30.5 131.25 -23.375 131.25 -109 c 0
15.625 -109 m 0
 15.625 45 97.125 143 224.625 143 c 0
 352.75 143 434 45 434 -109 c 0
 434 -261 352.75 -358 224.625 -358 c 0
 97.125 -358 15.625 -261 15.625 -109 c 0
EndSplineSet
EndChar

StartChar: one.inferior
Encoding: 668 8321 159
Width: 244
Flags: W
HStem: 38.5 98.5<14.5 99.5>
VStem: 96.5 121.5<-350 39.5>
LayerCount: 2
Fore
SplineSet
214.625 137 m 1
 218 -350 l 1
 96.5 -350 l 1
 99.5 39.5 l 1
 11.875 38.5 l 1
 14.5 137 l 1
 214.625 137 l 1
EndSplineSet
EndChar

StartChar: two.inferior
Encoding: 669 8322 160
Width: 396
Flags: W
HStem: -350 106.375<210.75 373.625> 35.25 107.75<83.838 220.676>
VStem: 239.875 125.25<-106.009 14.8995>
LayerCount: 2
Fore
SplineSet
210.75 -243.625 m 1
 378.125 -239.625 l 1
 373.625 -350 l 1
 24.875 -350 l 1
 18.25 -267.625 l 1
 18.25 -267.625 239.875 -160.375 239.875 -42.875 c 0
 239.875 9.875 210.125 35.25 159.75 35.25 c 0
 96.375 35.25 58 -6.375 58 -6.375 c 1
 15.875 92 l 1
 15.875 92 78.125 143 183.625 143 c 0
 300.75 143 365.125 81 365.125 -17 c 0
 365.125 -166.75 210.75 -243.625 210.75 -243.625 c 1
EndSplineSet
EndChar

StartChar: three.inferior
Encoding: 670 8323 161
Width: 387
Flags: W
HStem: -357.375 99.875<37.3988 229.62> 28.25 108.75<24.875 202.125>
VStem: 244.25 123.875<-241.67 -158.759>
LayerCount: 2
Fore
SplineSet
244 -69.625 m 1
 248.5 -69.625 258.625 -70.625 271.875 -74.5 c 0
 314 -85.5 368.125 -121.125 368.125 -205.625 c 0
 368.125 -305 294 -357.375 178 -357.375 c 0
 60.375 -357.375 10.25 -328 10.25 -328 c 1
 36.25 -230.5 l 1
 36.25 -230.5 87.625 -257.5 159 -257.5 c 0
 219 -257.5 244.25 -235.25 244.25 -198 c 0
 244.25 -166 218.75 -144.5 168.125 -144.5 c 0
 126.25 -144.5 103.625 -153.125 103.625 -153.125 c 1
 86.625 -90.125 l 1
 202.125 28.25 l 1
 19 25.375 l 1
 24.875 137 l 1
 347.75 137 l 1
 354.125 51.625 l 1
 244 -69.625 l 1
EndSplineSet
EndChar

StartChar: four.inferior
Encoding: 671 8324 162
Width: 464
Flags: W
HStem: -230.5 97.125<151.125 441.375>
LayerCount: 2
Fore
SplineSet
366.875 51.5 m 1
 370.875 -350 l 1
 254 -350 l 1
 258 51.5 l 1
 366.875 51.5 l 1
216.25 155.375 m 1
 311.75 96.5 l 1
 151.125 -133.375 l 1
 444.25 -131.5 l 1
 441.375 -234.375 l 1
 34.75 -230.5 l 1
 13.875 -163.375 l 1
 216.25 155.375 l 1
EndSplineSet
EndChar

StartChar: five.inferior
Encoding: 672 8325 163
Width: 396
Flags: W
HStem: -357.375 99.875<55.5439 236.318> -125.625 93.125<134.767 238.364> 33.25 103.75<149.25 343.375>
VStem: 256.25 120.875<-238.306 -142.939>
LayerCount: 2
Fore
SplineSet
343.375 32.25 m 1
 149.25 33.25 l 1
 134.75 -50.125 l 1
 134.75 -50.125 156.125 -32.5 216.25 -32.5 c 0
 330 -32.5 377.125 -94.5 377.125 -188.25 c 0
 377.125 -305.75 301.125 -357.375 182.125 -357.375 c 0
 61.5 -357.375 10.25 -321 10.25 -321 c 1
 36.75 -227.75 l 1
 36.75 -227.75 91.375 -257.5 166.5 -257.5 c 0
 226.875 -257.5 256.25 -231.25 256.25 -189.625 c 0
 256.25 -150.625 227.75 -125.625 171.25 -125.625 c 0
 119.75 -125.625 88.875 -153.125 88.875 -153.125 c 1
 19.375 -98 l 1
 60.125 137 l 1
 343.375 137 l 1
 343.375 32.25 l 1
EndSplineSet
EndChar

StartChar: six.inferior
Encoding: 673 8326 164
Width: 411
Flags: W
HStem: -358 100.25<158.095 262.68> -114.625 88.25<156.9 263.364> 44.25 104.75<232.555 330.394>
VStem: 18.25 121.75<-238.792 -77.886> 280.75 113.125<-239.692 -132.36>
LayerCount: 2
Fore
SplineSet
329.5 149 m 1
 342.875 44.25 l 1
 153.875 30.375 147.125 -52.625 147.125 -52.625 c 1
 147.125 -52.625 172.5 -26.375 241.875 -26.375 c 0
 333.75 -26.375 393.875 -88.5 393.875 -182.625 c 0
 393.875 -279.5 342.625 -358 210.375 -358 c 0
 95 -358 18.25 -294.375 18.25 -147 c 0
 18.25 -5 92.75 135 329.5 149 c 1
140 -185.5 m 0
 140 -229.75 167.625 -257.75 210.375 -257.75 c 0
 253.375 -257.75 280.75 -229.75 280.75 -185.5 c 0
 280.75 -141.875 253.375 -114.625 210.375 -114.625 c 0
 167.625 -114.625 140 -141.875 140 -185.5 c 0
EndSplineSet
EndChar

StartChar: seven.inferior
Encoding: 674 8327 165
Width: 379
Flags: W
HStem: 29.5 107.5<126.375 247.75>
LayerCount: 2
Fore
SplineSet
9.875 -59.5 m 1
 30.625 137 l 1
 349.875 137 l 1
 380.875 66.625 l 1
 219.375 -361.375 l 1
 99.375 -324.375 l 1
 247.75 30.5 l 1
 126.375 29.5 l 1
 115 -68.875 l 1
 9.875 -59.5 l 1
EndSplineSet
EndChar

StartChar: eight.inferior
Encoding: 675 8328 166
Width: 406
Flags: W
HStem: -358 99.75<141.42 257.291> 46 97<155.085 256.502>
VStem: 18.25 112.125<-245.389 -157.072> 35.625 111.5<-32.9423 37.3442> 266.5 104.25<-47.7606 35.5449> 268.875 120.5<-246.864 -170.823>
LayerCount: 2
Fore
SplineSet
200.5 -258.25 m 0xe4
 242.75 -258.25 268.875 -239.5 268.875 -208.5 c 0xe4
 268.875 -178.625 246.75 -161.75 179.75 -139.5 c 0
 83.5 -107.125 35.625 -62.625 35.625 8 c 0
 35.625 91 101.75 143 206.5 143 c 0
 307.25 143 370.75 96 370.75 12 c 0
 370.75 -82.25 259.875 -116.5 259.875 -116.5 c 1
 197.5 -80.5 l 1
 197.5 -80.5 266.5 -48.25 266.5 -4.125 c 0
 266.5 27.25 243.5 46 206.125 46 c 0
 169.75 46 147.125 28.25 147.125 -0.125 c 0xd8
 147.125 -25.75 165.125 -38.375 222.75 -54.5 c 0
 344.75 -88.25 389.375 -129.25 389.375 -209.625 c 0
 389.375 -302.125 320.125 -358 204.75 -358 c 0
 93 -358 18.25 -302 18.25 -219 c 0
 18.25 -121.375 123 -89.5 123 -89.5 c 1
 189.125 -130.5 l 1
 189.125 -130.5 130.375 -154.625 130.375 -205.5 c 0
 130.375 -237.5 157.75 -258.25 200.5 -258.25 c 0xe4
EndSplineSet
EndChar

StartChar: nine.inferior
Encoding: 676 8329 167
Width: 411
Flags: W
HStem: -364 104.75<81.773 180.137> -188.25 87.875<148.96 255.492> 42.75 100.25<149.462 254.109>
VStem: 18.25 113.125<-82.6223 24.6915> 272.125 121.75<-137.114 23.7919>
LayerCount: 2
Fore
SplineSet
82.625 -364 m 1
 69.875 -259.25 l 1
 258.875 -245.375 265.25 -162 265.25 -162 c 1
 265.25 -162 239.875 -188.25 170.5 -188.25 c 0
 78.625 -188.25 18.25 -126.5 18.25 -32.375 c 0
 18.25 64.5 69.125 143 201.75 143 c 0
 316.75 143 393.875 79.375 393.875 -68 c 0
 393.875 -210 319.375 -350 82.625 -364 c 1
272.125 -29.5 m 0
 272.125 14.75 245.125 42.75 202.375 42.75 c 0
 159 42.75 131.375 14.75 131.375 -29.5 c 0
 131.375 -73.125 159 -100.375 202.375 -100.375 c 0
 245.125 -100.375 272.125 -73.125 272.125 -29.5 c 0
EndSplineSet
EndChar

StartChar: fraction
Encoding: 655 8260 168
Width: 238
Flags: W
LayerCount: 2
Fore
SplineSet
416.829101562 677.43359375 m 1
 176.708984375 344.299804688 l 1
 -28.7412109375 -20.5 l 1
 -140.0703125 49.5 l 1
 103.908203125 383.700195312 l 1
 312.099609375 746.43359375 l 1
 416.829101562 677.43359375 l 1
EndSplineSet
EndChar

StartChar: perthousand
Encoding: 646 8240 169
Width: 1159
Flags: W
HStem: -10 112.058<621.612 718.821 899.499 996.692> 253.725 112.154<621.069 721.497 898.956 997.24> 363.113 112.058<162.88 265.432> 626.838 112.154<162.317 266>
VStem: 24.5205 119.304<494.943 607.999> 284.784 119.336<494.943 607.999> 484.521 118.304<121.249 235.453> 738.784 141.04<131.886 224.571> 779.521 59.5996<64.4329 294.137> 1015.78 118.336<121.249 235.453>
LayerCount: 2
Fore
SplineSet
143.82421875 551.870117188 m 0xbe40
 143.82421875 504.9984819 171.120358389 475.170898438 214.015625 475.170898438 c 0
 257.263132496 475.170898438 284.784179688 504.9984819 284.784179688 551.870117188 c 0
 284.784179688 597.683977195 257.263132496 626.837890625 214.015625 626.837890625 c 0
 171.120358389 626.837890625 143.82421875 597.683977195 143.82421875 551.870117188 c 0xbe40
24.5205078125 552.012695312 m 0
 24.5205078125 666.278236578 98.2066769981 738.9921875 214 738.9921875 c 0
 330.184715955 738.9921875 404.120117188 666.278236578 404.120117188 552.012695312 c 0
 404.120117188 436.573967411 330.184715955 363.11328125 214 363.11328125 c 0
 98.2066769981 363.11328125 24.5205078125 436.573967411 24.5205078125 552.012695312 c 0
879.82421875 178.756835938 m 0xdf40
 879.82421875 131.885834218 906.147585501 102.057617188 947.515625 102.057617188 c 0
 989.235373355 102.057617188 1015.78417969 131.885834218 1015.78417969 178.756835938 c 0
 1015.78417969 224.571000777 989.235373355 253.724609375 947.515625 253.724609375 c 0
 906.147585501 253.724609375 879.82421875 224.571000777 879.82421875 178.756835938 c 0xdf40
779.520507812 181.399414062 m 0xdec0
 779.520507812 294.136828688 846.401373465 365.87890625 951.5 365.87890625 c 0
 1063.10133505 365.87890625 1134.12011719 293.16460575 1134.12011719 178.899414062 c 0
 1134.12011719 63.4604013431 1063.10133505 -10 951.5 -10 c 0
 846.401373465 -10 779.520507812 64.4326171876 779.520507812 181.399414062 c 0xdec0
602.82421875 178.756835938 m 0
 602.82421875 131.88520065 629.148154629 102.057617188 670.515625 102.057617188 c 0
 712.23535269 102.057617188 738.784179688 131.88520065 738.784179688 178.756835938 c 0xdf40
 738.784179688 224.570695945 712.23535269 253.724609375 670.515625 253.724609375 c 0
 629.148154629 253.724609375 602.82421875 224.570695945 602.82421875 178.756835938 c 0
484.520507812 178.899414062 m 0
 484.520507812 293.164955328 555.290022206 365.87890625 666.5 365.87890625 c 0
 771.990253111 365.87890625 839.120117188 294.137173592 839.120117188 181.399414062 c 0xdec0
 839.120117188 64.4329057752 771.990253111 -10 666.5 -10 c 0
 555.290022206 -10 484.520507812 63.4606861611 484.520507812 178.899414062 c 0
EndSplineSet
Refer: 168 8260 N 1 0 0 1 304 0 2
EndChar

StartChar: uni2031
Encoding: 647 8241 170
Width: 1439
Flags: W
HStem: -10 112.058<621.862 721.199 896.36 992.317 1172.54 1271.59> 253.725 112.154<621.319 721.747 895.829 992.861 1172 1272.14> 363.113 112.058<162.88 265.432> 626.838 112.154<162.317 266>
VStem: 24.5205 119.304<494.943 607.999> 284.784 119.336<494.943 607.999> 484.521 118.804<121.249 235.453> 739.284 138.54<131.886 224.571> 769.521 69.5996<64.4329 294.137> 1011.78 142.54<131.886 224.571> 1059.52 59.5996<64.4326 294.137> 1290.28 123.836<119.772 236.335>
LayerCount: 2
Fore
SplineSet
143.82421875 551.870117188 m 0xbe10
 143.82421875 504.9984819 171.120358389 475.170898438 214.015625 475.170898438 c 0
 257.263132496 475.170898438 284.784179688 504.9984819 284.784179688 551.870117188 c 0
 284.784179688 597.683977195 257.263132496 626.837890625 214.015625 626.837890625 c 0
 171.120358389 626.837890625 143.82421875 597.683977195 143.82421875 551.870117188 c 0xbe10
24.5205078125 552.012695312 m 0
 24.5205078125 666.278236578 98.2066769981 738.9921875 214 738.9921875 c 0
 330.184715955 738.9921875 404.120117188 666.278236578 404.120117188 552.012695312 c 0
 404.120117188 436.573967411 330.184715955 363.11328125 214 363.11328125 c 0
 98.2066769981 363.11328125 24.5205078125 436.573967411 24.5205078125 552.012695312 c 0
1154.32421875 178.756835938 m 0xde50
 1154.32421875 131.885834218 1180.64758551 102.057617188 1222.015625 102.057617188 c 0
 1263.73537336 102.057617188 1290.28417969 131.885834218 1290.28417969 178.756835938 c 0
 1290.28417969 224.571000777 1263.73537336 253.724609375 1222.015625 253.724609375 c 0
 1180.64758551 253.724609375 1154.32421875 224.571000777 1154.32421875 178.756835938 c 0xde50
1059.52050781 181.399414062 m 0xde30
 1059.52050781 294.136828688 1126.40137347 365.87890625 1231.5 365.87890625 c 0
 1343.10133505 365.87890625 1414.12011719 294.136828688 1414.12011719 181.399414062 c 0
 1414.12011719 64.4326171876 1343.10133505 -10 1231.5 -10 c 0
 1126.40137347 -10 1059.52050781 64.4326171875 1059.52050781 181.399414062 c 0xde30
877.82421875 178.756835938 m 0xdf50
 877.82421875 131.885834218 903.564275857 102.057617188 944.015625 102.057617188 c 0
 985.429817243 102.057617188 1011.78417969 131.885834218 1011.78417969 178.756835938 c 0
 1011.78417969 224.571000777 985.429817243 253.724609375 944.015625 253.724609375 c 0
 903.564275857 253.724609375 877.82421875 224.571000777 877.82421875 178.756835938 c 0xdf50
769.520507812 181.399414062 m 0xdeb0
 769.520507812 294.136828688 837.373594989 365.87890625 944 365.87890625 c 0
 1051.01799547 365.87890625 1119.12011719 294.136828688 1119.12011719 181.399414062 c 0
 1119.12011719 64.4326171875 1051.01799547 -10 944 -10 c 0
 837.373594989 -10 769.520507812 64.4326171875 769.520507812 181.399414062 c 0xdeb0
603.32421875 178.756835938 m 0
 603.32421875 131.88520065 629.648154629 102.057617188 671.015625 102.057617188 c 0
 712.73535269 102.057617188 739.284179688 131.88520065 739.284179688 178.756835938 c 0xdf10
 739.284179688 224.570695945 712.73535269 253.724609375 671.015625 253.724609375 c 0
 629.648154629 253.724609375 603.32421875 224.570695945 603.32421875 178.756835938 c 0
484.520507812 178.899414062 m 0
 484.520507812 293.164955328 555.290022206 365.87890625 666.5 365.87890625 c 0
 771.990253111 365.87890625 839.120117188 294.137173592 839.120117188 181.399414062 c 0xde90
 839.120117188 64.4329057751 771.990253111 -10 666.5 -10 c 0
 555.290022206 -10 484.520507812 63.4606861611 484.520507812 178.899414062 c 0
EndSplineSet
Refer: 168 8260 N 1 0 0 1 304 0 2
EndChar

StartChar: Lslash
Encoding: 255 321 171
Width: 620
Flags: W
HStem: 0 141.293<309.065 601.539> 495 20G<405.247 448.714> 590.084 140.927<18.6201 138.151>
VStem: 133.43 175.635<141.293 590.084>
LayerCount: 2
Fore
SplineSet
443 515 m 9
 477 396 l 17
 259 320.293945312 l 1
 49 207 l 9
 11 329 l 17
 233 403.75 l 1
 443 515 l 9
EndSplineSet
Refer: 44 76 N 1 0 0 1 0 0 2
EndChar

StartChar: lslash
Encoding: 256 322 172
Width: 397
Flags: W
HStem: 0 121.397<279.129 383.539> 634.075 120.927<23.6201 128.151>
VStem: 123.83 155.299<121.397 634.075>
LayerCount: 2
Fore
SplineSet
363 555 m 9
 397 436 l 17
 219 360.293945312 l 1
 49 257 l 9
 11 379 l 17
 193 443.75 l 1
 363 555 l 9
EndSplineSet
Refer: 8 108 N 1 0 0 1 0 0 2
EndChar

StartChar: quoteright
Encoding: 635 8217 173
Width: 229
Flags: W
HStem: 445 320
VStem: 11 202
LayerCount: 2
Fore
SplineSet
11 723 m 9
 159 765 l 1
 213 626 l 1
 115 445 l 1
 17 487 l 17
 79 601 l 1
 11 723 l 9
EndSplineSet
EndChar

StartChar: uni2120
Encoding: 702 8480 179
Width: 540
Flags: W
VStem: 10.501 85.9072<651.043 692.302> 95.0488 89.3857<543.468 593.832>
LayerCount: 2
Fore
SplineSet
150.276367188 765.357421875 m 1x80
 150.276367188 765.357421875 10.5009765625 762.795898438 10.5009765625 671.666015625 c 0x80
 10.5009765625 637.87626923 24.8888959623 617.077140226 69.361328125 596.0625 c 0
 89.7585837243 586.539212552 95.048828125 578.618420512 95.048828125 568.400390625 c 0
 95.048828125 535.350101864 18.888671875 531.673828125 18.888671875 531.673828125 c 1
 29.77734375 462.049804688 l 1
 29.77734375 462.049804688 184.434570312 464.396484375 184.434570312 570.418945312 c 0x40
 184.434570312 602.61928747 172.598009125 623.543761409 140.114257812 639.260742188 c 0
 102.735403463 657.46822242 96.408203125 663.458811592 96.408203125 672.774414062 c 0
 96.408203125 697.518652476 162.6171875 702.837890625 162.6171875 702.837890625 c 1
 150.276367188 765.357421875 l 1x80
239.827148438 693.084960938 m 1
 193.5 690.631835938 l 1
 191.748046875 762.404296875 l 1
 329.091796875 766.404296875 l 1
 375 659.799804688 l 1
 431.599609375 766 l 1
 509.700195312 762.400390625 l 1
 533.299804688 472 l 1
 452 466.400390625 l 1
 440.400390625 641.400390625 l 1
 372.200195312 528 l 1
 308.799804688 637.799804688 l 1
 295.200195312 467.599609375 l 1
 222.299804688 473.599609375 l 1
 239.827148438 693.084960938 l 1
EndSplineSet
EndChar

StartChar: trademark
Encoding: 703 8482 180
Width: 608
Flags: W
HStem: 698.2 12.833<76.9609 155.142> 698.232 64.1719<7.94824 76.9609 155.142 224.992>
VStem: 75.2324 81.5312<470 710.2>
LayerCount: 2
Fore
SplineSet
155.141601562 710.200195312 m 1xa0
 156.763671875 470 l 1
 75.232421875 470 l 1
 76.9609375 711.033203125 l 1
 155.141601562 710.200195312 l 1xa0
116.841796875 698.200195312 m 1
 6.5 698.232421875 l 1
 7.9482421875 762.404296875 l 1
 224.9921875 762.404296875 l 1x60
 227.345703125 696.599609375 l 1
 116.841796875 698.200195312 l 1
307.02734375 693.084960938 m 1
 260.700195312 690.631835938 l 1
 258.948242188 762.404296875 l 1
 396.291992188 766.404296875 l 1
 442.200195312 659.799804688 l 1
 498.799804688 766 l 1
 576.900390625 762.400390625 l 1
 600.5 472 l 1
 519.200195312 466.400390625 l 1
 507.599609375 641.400390625 l 1
 439.400390625 528 l 1
 376 637.799804688 l 1
 362.400390625 467.599609375 l 1
 289.5 473.599609375 l 1
 307.02734375 693.084960938 l 1
EndSplineSet
EndChar

StartChar: uni2117
Encoding: 701 8471 181
Width: 795
Flags: W
HStem: -10.0664 85.877<280.157 516.269> 252.858 91.5<378.308 486.448> 483.068 100.725<379.196 483.383> 483.068 25.8799<309.554 376.457> 655.64 83.2939<284.742 516.269>
VStem: 25 93<243.323 482.912> 269.717 108.739<140.398 279.559 362.924 508.948> 502.455 106.5<361.826 463.705> 684.117 85.8828<243.323 482.912>
LayerCount: 2
Fore
SplineSet
378.456054688 140.3984375 m 1xdf80
 269.716796875 140.3984375 l 1
 273.418945312 508.948242188 l 1
 376.45703125 508.948242188 l 1
 378.456054688 140.3984375 l 1xdf80
356.072265625 362.923828125 m 1
 356.072265625 362.923828125 375.760089382 344.358398438 426.705078125 344.358398438 c 0
 476.35374485 344.358398438 502.454833984 370.226624662 502.454833984 412.0078125 c 0
 502.454833984 459.589074067 474.266064188 483.068359375 412.004882812 483.068359375 c 0
 309.554095781 483.068359375 218.341064453 440.129882812 218.341064453 440.129882812 c 1
 193.579345703 539.302734375 l 1
 193.579345703 539.302734375 261.769059599 583.79296875 422.205078125 583.79296875 c 0xef80
 537.416789899 583.79296875 608.955078125 520.165363829 608.955078125 409.0078125 c 0
 608.955078125 314.305378556 546.748283025 252.858398438 446.205078125 252.858398438 c 0
 379.108005015 252.858398438 338.708984375 279.55859375 338.708984375 279.55859375 c 1
 356.072265625 362.923828125 l 1
25 361.93359375 m 0
 25 592.322641811 169.666509605 738.93359375 397 738.93359375 c 0
 624.944915062 738.93359375 770 592.322641811 770 361.93359375 c 0
 770 134.599173678 624.944915062 -10.06640625 397 -10.06640625 c 0
 169.666509605 -10.06640625 25 134.599173678 25 361.93359375 c 0
118 361.93359375 m 0
 118 187.080244542 226.887916667 75.810546875 398 75.810546875 c 0
 572.849853685 75.810546875 684.1171875 187.080244542 684.1171875 361.93359375 c 0
 684.1171875 541.422047698 572.849853685 655.639648438 398 655.639648438 c 0
 226.887916667 655.639648438 118 541.422047698 118 361.93359375 c 0
EndSplineSet
EndChar

StartChar: lira
Encoding: 679 8356 182
Width: 576
Flags: W
HStem: 0 141.293<224.064 546.539> 220.5 104<232.844 423> 228.5 95<19 377.066> 360.5 104<248.88 433> 368.5 95<29 397.9>
LayerCount: 2
Back
SplineSet
14 326 m 1
 430 327 l 1
 428 218 l 1
 12 226 l 1
 14 326 l 1
24 466 m 1
 440 467 l 1
 438 358 l 1
 22 366 l 1
 24 466 l 1
EndSplineSet
Fore
SplineSet
19 323.5 m 1xa0
 208 318.966796875 l 1
 425 324.5 l 1
 423 220.5 l 1xc0
 190 229.077148438 l 1
 17 228.5 l 1
 19 323.5 l 1xa0
29 463.5 m 1x88
 225 459.5 l 1
 435 464.5 l 1
 433 360.5 l 1x90
 215 368.788085938 l 1
 27 368.5 l 1
 29 463.5 l 1x88
224.064453125 141.29296875 m 1
 550.159179688 142.930664062 l 1
 546.5390625 0 l 1
 38.4296875 0 l 1
 59.6821020855 452.125433501 151.902785269 633.005046291 441.930664062 747.6640625 c 1
 508.798828125 617.854492188 l 1
 328.562792165 548.089694583 239.735992423 407.951456 224.064453125 141.29296875 c 1
EndSplineSet
EndChar

StartChar: Euro
Encoding: 684 8364 183
Width: 541
Flags: W
HStem: 246 100<22 251.14> 378 109<364.723 452.978>
LayerCount: 2
Fore
SplineSet
22 346 m 1
 238 339.5078125 l 1
 446.83984375 347 l 1
 426.7734375 238 l 1
 232 252.213867188 l 1
 20 246 l 1
 22 346 l 1
25 486 m 1
 248 472.45703125 l 1
 473.043945312 487 l 1
 452.977539062 378 l 1
 240 387.963867188 l 1
 23 386 l 1
 25 486 l 1
483 -33.06640625 m 1
 225.11093294 -11.8298471102 61 120.543550932 61 361.93359375 c 0
 61 598.46956446 228.999817608 728.46176596 493 748.9921875 c 1
 512 593.9921875 l 1
 343.9434155 567.017819212 237 503.748476756 237 361.93359375 c 0
 237 215.877519531 327.672460938 151.728774472 505 122.93359375 c 1
 483 -33.06640625 l 1
EndSplineSet
EndChar

StartChar: uni20B5
Encoding: 691 8373 184
Width: 461
Flags: W
HStem: 0 21G<235.82 352.82> 91.9014 93.0986<247.82 338.82> 544 75.457<245.82 336.82> 719 20G<231.82 348.82>
VStem: 30 163.22<276.901 441.206>
LayerCount: 2
Fore
SplineSet
352.8203125 0 m 1
 235.8203125 0 l 1
 247.8203125 185 l 1
 338.8203125 185 l 1
 352.8203125 0 l 1
231.8203125 739 m 1
 348.8203125 739 l 1
 336.8203125 544 l 1
 245.8203125 544 l 1
 231.8203125 739 l 1
30 357.576171875 m 0
 30 517.614257812 132.563277387 619.45703125 293.735351562 619.45703125 c 0
 406.329101562 619.45703125 454.184570312 569.0703125 454.184570312 569.0703125 c 1
 410.112304688 458.358398438 l 1
 410.112304688 458.358398438 371.099791559 488.0390625 310.436523438 488.0390625 c 0
 238.802989822 488.0390625 193.219726562 439.687739251 193.219726562 363.708007812 c 0
 193.219726562 278.812249194 234.542005979 224.787109375 315.35546875 224.787109375 c 0
 396.963068951 224.787109375 438.297851562 256.900390625 438.297851562 256.900390625 c 1
 471.774414062 132.869140625 l 1
 471.774414062 132.869140625 428.375976562 91.9013671875 293.735351562 91.9013671875 c 0
 132.563277387 91.9013671875 30 195.21875 30 357.576171875 c 0
EndSplineSet
EndChar

StartChar: uni20B2
Encoding: 688 8370 185
Width: 542
Flags: W
HStem: 0 21G<235.82 352.82> 91.9014 93.0986<247.82 338.82> 258.989 102.445<469.916 530.564> 544 75.457<245.82 336.82> 719 20G<231.82 348.82>
VStem: 30 163.22<272.358 441.206> 349.688 180.877<258.989 361.435>
LayerCount: 2
Fore
SplineSet
231.8203125 739 m 1
 348.8203125 739 l 1
 336.8203125 544 l 1
 245.8203125 544 l 1
 231.8203125 739 l 1
352.8203125 0 m 1
 235.8203125 0 l 1
 247.8203125 185 l 1
 338.8203125 185 l 1
 352.8203125 0 l 1
30 357.576171875 m 0
 30 517.614257812 132.563277386 619.45703125 293.735351562 619.45703125 c 0
 406.329101562 619.45703125 454.184570312 567.5703125 454.184570312 567.5703125 c 1
 410.112304688 456.858398438 l 1
 410.112304688 456.858398438 371.099791559 488.0390625 310.436523438 488.0390625 c 0
 238.802989822 488.0390625 193.219726562 439.68773925 193.219726562 363.708007812 c 0
 193.219726562 278.812249194 231.15871713 224.787109375 305.35546875 224.787109375 c 0
 334.485983669 224.787109375 348.556640625 232.848632812 348.556640625 232.848632812 c 1
 349.6875 361.434570312 l 1
 530.564453125 361.434570312 l 1
 532.12109375 258.02734375 l 1
 469.916015625 258.989257812 l 1
 471.774414062 132.369140625 l 1
 471.774414062 132.369140625 418.375976562 91.9013671875 293.735351562 91.9013671875 c 0
 132.563277386 91.9013671875 30 195.21875 30 357.576171875 c 0
EndSplineSet
EndChar

StartChar: uni20AD
Encoding: 685 8365 186
Width: 702
Flags: W
HStem: 0 21G<138.83 315.159> 304.5 118.5<34 233.362> 314.686 98.782<123.638 451.253> 590.084 140.927<23.6201 143.151>
VStem: 138.83 176.329<0 590.084>
LayerCount: 2
Fore
SplineSet
34 423 m 1xd8
 321 413.467632849 l 1
 655 424 l 1
 653 296.5 l 1
 325 314.685652694 l 1xb8
 32 304.5 l 1
 34 423 l 1xd8
309.729492188 731.010742188 m 1
 315.159179688 0 l 1
 138.830078125 0 l 1
 143.151367188 590.083984375 l 1
 20 588.080078125 l 1
 23.6201171875 731.010742188 l 1
 309.729492188 731.010742188 l 1
508 745.0078125 m 1
 657 651.0078125 l 1
 416 364 l 1
 682 78 l 1
 528 -27 l 1
 244 364 l 1
 508 745.0078125 l 1
EndSplineSet
EndChar

StartChar: uni20AE
Encoding: 686 8366 187
Width: 550
Flags: W
HStem: 0 21G<181.83 358.159> 480 20G<411.224 470.381> 588 30<186.151 354.104> 588.08 142.931<23.6201 186.151 354.104 518.729>
VStem: 181.83 176.329<0 618>
LayerCount: 2
Fore
SplineSet
54.3798828125 200.21484375 m 1xc8
 269.721679688 260.334960938 l 1
 478.76953125 338.85546875 l 1
 512.74609375 223.865234375 l 1
 292.53515625 176.268554688 l 1
 83.9306640625 99.556640625 l 1
 54.3798828125 200.21484375 l 1xc8
40.08203125 361.359375 m 1
 255.423828125 421.48046875 l 1
 464.471679688 500 l 1
 498.448242188 385.009765625 l 1
 278.237304688 337.412109375 l 1
 69.6328125 260.700195312 l 1
 40.08203125 361.359375 l 1
354.103515625 618 m 1xe8
 358.159179688 0 l 1
 181.830078125 0 l 1
 186.151367188 620.083984375 l 1
 354.103515625 618 l 1xe8
272.103515625 588 m 1
 20 588.080078125 l 1
 23.6201171875 731.010742188 l 1
 518.729492188 731.010742188 l 1xd8
 524.61328125 584 l 1
 272.103515625 588 l 1
EndSplineSet
EndChar

StartChar: uni20B1
Encoding: 687 8369 188
Width: 722
Flags: W
HStem: 0 21G<112.771 284.003> 179.934 142<284.684 420.781> 288.5 95<17 214.906> 298.5 89.4668<489 650.323> 377.967 41.8213<178 233.234> 387.967 41.8213<575 672.975> 418.5 95<19 230.695> 428.5 90<499 667.819> 577.992 161<22.6803 412.043> 577.992 56.2578<132.581 280.67>
VStem: 112.771 171.232<0 204.434 290.077 345.877 377.967 419.788 508.5 634.25> 497 132.917<428.5 523.5>
LayerCount: 2
Fore
SplineSet
489 393.5 m 1x9030
 568 387.966796875 l 1
 700 394.5 l 1
 698 290.5 l 1
 550 300.077148438 l 1
 487 298.5 l 1
 489 393.5 l 1x9030
499 523.5 m 1
 585 518.5 l 1x8130
 707 524.5 l 1
 705 420.5 l 1
 575 429.788085938 l 1x8430
 497 428.5 l 1x8130
 499 523.5 l 1
17 383.5 m 1xa030
 178 377.966796875 l 1x8830
 243 384.5 l 1
 241 280.5 l 1
 160 290.077148438 l 1
 15 288.5 l 1
 17 383.5 l 1xa030
19 513.5 m 1x8230
 195 508.5 l 1
 251 514.5 l 1
 249 410.5 l 1
 185 419.788085938 l 1x8830
 17 418.5 l 1
 19 513.5 l 1x8230
284.002929688 0 m 1
 112.770507812 0 l 1
 118.940429688 634.25 l 1
 280.669921875 634.25 l 1x8070
 284.002929688 0 l 1
219.196289062 345.876953125 m 1
 219.196289062 345.876953125 256.414582067 321.93359375 340.916992188 321.93359375 c 0
 425.611039806 321.93359375 468.916992188 369.766786596 468.916992188 444.93359375 c 0
 468.916992188 526.247459005 422.854236949 577.9921875 316.416992188 577.9921875 c 0
 132.580956717 577.9921875 24.26953125 556.427734375 24.26953125 556.427734375 c 1
 8 714.840820312 l 1
 8 714.840820312 94.7212620967 738.9921875 321.916992188 738.9921875 c 0
 510.138899125 738.9921875 629.916992188 623.469925908 629.916992188 441.93359375 c 0
 629.916992188 281.821289062 525.694560757 179.93359375 361.916992188 179.93359375 c 0xc0b0
 254.770507812 179.93359375 190.2578125 204.43359375 190.2578125 204.43359375 c 1
 219.196289062 345.876953125 l 1
EndSplineSet
EndChar

StartChar: uni20B3
Encoding: 689 8371 189
Width: 768
Flags: W
HStem: 113.212 104<103.25 756> 121.212 95<12 662.75> 253.212 104<133.25 716> 261.212 95<52 632.75> 564.069 156.931<93.8193 240.508> 711 20G<89.4395 468.375>
LayerCount: 2
Fore
SplineSet
240.5078125 569.112304688 m 1x04
 93.8193359377 564.069335938 l 1
 89.439453125 721 l 1x08
 461.548828125 731 l 1
 706.450195312 13.4111328125 l 1
 538.676757812 -15 l 1
 374.818359375 526.8671875 l 1
 204.319335938 -15 l 1
 38.2734375 17.5 l 1
 240.5078125 569.112304688 l 1x04
52 356.211914062 m 1x10
 718 357.211914062 l 1
 716 253.211914062 l 1x20
 50 261.211914062 l 1
 52 356.211914062 l 1x10
12 216.211914062 m 1x40
 758 217.211914062 l 1
 756 113.211914062 l 1x80
 10 121.211914062 l 1
 12 216.211914062 l 1x40
EndSplineSet
EndChar

StartChar: uni20B4
Encoding: 690 8372 190
Width: 598
Flags: W
HStem: 230.5 104<328.19 546> 238.5 95<22 450.001> 370.5 104<347.643 576> 378.5 95<32 202.052 273 489.339> 718.393 20G<161.569 164.646>
VStem: 78 185.715<193.781 282.932> 318.067 187.269<475.184 550.778>
LayerCount: 2
Fore
SplineSet
164.645507812 738.392578125 m 1x0e
 164.645507812 738.392578125 505.3359375 732.083977763 505.3359375 507.662109375 c 0
 505.3359375 427.742240917 473.145507812 373.221191406 350.434570312 317.655273438 c 0
 277.597795996 286.206611929 263.71484375 266.15960009 263.71484375 236 c 0
 263.71484375 142.125786314 474.115234375 131.682617188 474.115234375 131.682617188 c 1
 454.893554688 -19.8779296875 l 1
 454.893554688 -19.8779296875 78 -14.2263647058 78 241.044921875 c 0
 78 324.819999357 110.283499273 376.990174669 202.051757812 420.150390625 c 0
 297.663085938 465.093261719 318.067382812 485.530955295 318.067382812 516.93359375 c 0
 318.067382812 584.967059755 143.294921875 599.592773438 143.294921875 599.592773438 c 1
 164.645507812 738.392578125 l 1x0e
22 333.5 m 1x4e
 266 327.966796875 l 1
 548 334.5 l 1
 546 230.5 l 1x8e
 248 240.077148438 l 1
 20 238.5 l 1
 22 333.5 l 1x4e
32 473.5 m 1x1e
 283 468.5 l 1
 578 474.5 l 1
 576 370.5 l 1x2e
 273 379.788085938 l 1
 30 378.5 l 1
 32 473.5 l 1x1e
EndSplineSet
EndChar

StartChar: uni20B8
Encoding: 692 8376 191
Width: 590
Flags: W
HStem: 0 21G<201.83 378.159> 408 32.084<206.151 374.104> 408.08 122.931<23.6201 206.151 374.104 558.729> 598.08 132.931<33.6201 548.729>
VStem: 201.83 176.329<0 438>
LayerCount: 2
Fore
SplineSet
282.103515625 408 m 1xd8
 20 408.080078125 l 1
 23.6201171875 531.010742188 l 1
 558.729492188 531.010742188 l 1xb8
 564.61328125 404 l 1
 282.103515625 408 l 1xd8
374.103515625 438 m 1
 378.159179688 0 l 1
 201.830078125 0 l 1
 206.151367188 440.083984375 l 1xd8
 374.103515625 438 l 1
30 598.080078125 m 1
 33.6201171875 731.010742188 l 1
 548.729492188 731.010742188 l 1
 554.61328125 594 l 1
 30 598.080078125 l 1
EndSplineSet
EndChar

StartChar: uni20B9
Encoding: 693 8377 192
Width: 646
Flags: W
HStem: 411.934 109<463.472 624> 419.934 100<120 563.08> 592.992 146<40.6255 305.868>
VStem: 369.917 169<348.748 596.636>
LayerCount: 2
Fore
SplineSet
120 519.93359375 m 1x70
 421 514.93359375 l 1
 626 520.93359375 l 1
 624 411.93359375 l 1xb0
 411 421.221679688 l 1
 118 419.93359375 l 1
 120 519.93359375 l 1x70
129.196289062 371.876953125 m 1
 129.196289062 371.876953125 164.885810621 354.93359375 245.916992188 354.93359375 c 0
 327.963007096 354.93359375 369.916992188 396.932927912 369.916992188 462.93359375 c 0
 369.916992188 542.414550686 315.422018611 592.9921875 203.916992188 592.9921875 c 0
 91.8697267773 592.9921875 29.26953125 567.427734375 29.26953125 567.427734375 c 1
 8 710.840820312 l 1
 8 710.840820312 59.8726741239 738.9921875 226.916992188 738.9921875 c 0
 417.58418454 738.9921875 538.916992188 650.858398438 538.916992188 480.93359375 c 0
 538.916992188 300.562953098 394.771482838 259.770761971 350.844564797 246.927632116 c 0
 340.987316913 242.83089945 334.740234375 241.040039062 334.740234375 241.040039062 c 1
 529.770507812 103 l 1
 425.770507812 -37 l 1
 93.2578125 248.43359375 l 1
 129.196289062 371.876953125 l 1
EndSplineSet
EndChar

StartChar: uni20BA
Encoding: 694 8378 193
Width: 643
Flags: W
HStem: -9.99805 155.877<292.848 407.888> 711.01 20G<120.621 286.797>
VStem: 115.348 175.635<150.293 380.335 457.412 731.01>
LayerCount: 2
Fore
SplineSet
15.7978515625 320.21484375 m 1
 231.139648438 380.334960938 l 1
 440.1875 458.85546875 l 1
 474.6640625 343.865234375 l 1
 254.453125 296.268554688 l 1
 45.8486328125 219.556640625 l 1
 15.7978515625 320.21484375 l 1
1.5 481.359375 m 1
 216.841796875 541.48046875 l 1
 425.889648438 620 l 1
 460.366210938 505.009765625 l 1
 240.155273438 457.412109375 l 1
 31.55078125 380.700195312 l 1
 1.5 481.359375 l 1
290.982421875 150.29296875 m 1
 290.982421875 150.29296875 304.930057694 145.87890625 331.380859375 145.87890625 c 0
 398.999210486 145.87890625 453.782142505 173.215978098 467.91796875 284 c 1
 621.91796875 256 l 1
 598.198542216 105.546875 531.531638272 -9.998046875 299.91796875 -9.998046875 c 0
 188.04375494 -9.998046875 115.34765625 0 115.34765625 0 c 1
 120.76953125 731.009765625 l 1
 286.647460938 731.009765625 l 1
 290.982421875 150.29296875 l 1
EndSplineSet
EndChar

StartChar: breve
Encoding: 430 728 194
Width: 332
Flags: W
HStem: 586 105<102.784 236.243>
VStem: 5 322
LayerCount: 2
Fore
SplineSet
168 586 m 0
 68.1052590446 586 5 664 5 664 c 1
 63 748 l 1
 63 748 106.282819864 691 167 691 c 0
 226.162790698 691 273 742 273 742 c 1
 327 670 l 1
 327 670 279.01775148 586 168 586 c 0
EndSplineSet
EndChar

StartChar: dotaccent
Encoding: 431 729 195
Width: 240
Flags: W
HStem: 589.008 150<64.1085 175.891>
VStem: 45 150<608.116 719.899>
LayerCount: 2
Fore
SplineSet
45 664.0078125 m 0
 45 709.841441762 74.1663707387 739.0078125 120 739.0078125 c 0
 165.833629262 739.0078125 195 709.841441762 195 664.0078125 c 0
 195 618.174183238 165.833629262 589.0078125 120 589.0078125 c 0
 74.1663707387 589.0078125 45 618.174183238 45 664.0078125 c 0
EndSplineSet
EndChar

StartChar: ogonek
Encoding: 433 731 196
Width: 207
Flags: W
HStem: -248 76<129.221 195.553>
VStem: 25 94<-161.725 -56.5904>
LayerCount: 2
Fore
SplineSet
190 18 m 1
 190 18 119 -65.7008797666 119 -124 c 0
 119 -160.883431557 142.854545454 -171.345454546 201 -172 c 1
 195 -248 l 1
 82.817258883 -242 25 -216.730463477 25 -136 c 0
 25 -47.52 107 22 107 22 c 1
 190 18 l 1
EndSplineSet
EndChar

StartChar: ring
Encoding: 432 730 197
Width: 307
Flags: W
HStem: 488.113 79.3027<119.175 189.865> 659.593 79.3994<118.941 190.102>
VStem: 25 88.3838<573.104 654.696> 196.184 86.416<572.012 653.741>
LayerCount: 2
Fore
SplineSet
113.383789062 614.416015625 m 0
 113.383789062 585.694248745 129.364802387 567.416015625 154.479492188 567.416015625 c 0
 179.965378486 567.416015625 196.18359375 585.694248745 196.18359375 614.416015625 c 0
 196.18359375 642.024350973 179.965378486 659.592773438 154.479492188 659.592773438 c 0
 129.364802387 659.592773438 113.383789062 642.024350973 113.383789062 614.416015625 c 0
25 614.512695312 m 0
 25 690.583460451 75.35309973 738.9921875 154.479492188 738.9921875 c 0
 232.775226229 738.9921875 282.599609375 687.661854568 282.599609375 607 c 0
 282.599609375 534.346701915 232.775226229 488.11328125 154.479492188 488.11328125 c 0
 75.3530997299 488.11328125 25 537.268286482 25 614.512695312 c 0
EndSplineSet
EndChar

StartChar: hungarumlaut
Encoding: 435 733 198
Width: 420
Flags: W
HStem: 509.248 235.246
LayerCount: 2
Fore
SplineSet
315.5078125 744.494140625 m 1
 412.631835938 672.544921875 l 1
 263.493164062 509.248046875 l 1
 201.208984375 555.534179688 l 1
 315.5078125 744.494140625 l 1
125.5078125 744.494140625 m 1
 222.631835938 672.544921875 l 1
 73.4931640625 509.248046875 l 1
 11.208984375 555.534179688 l 1
 125.5078125 744.494140625 l 1
EndSplineSet
EndChar

StartChar: partialdiff
Encoding: 714 8706 199
Width: 615
Flags: W
HStem: -10.0664 142.425<225.233 363.171> 372.509 124.425<232.112 372.045>
VStem: 30 151.875<177.551 323.922> 413.125 171.875<182.205 451.398>
LayerCount: 2
Fore
SplineSet
181.875 248.858398438 m 0
 181.875 177.663820928 226.444113835 132.358398438 292.025390625 132.358398438 c 0
 367.700967124 132.358398438 413.125 181.552698396 413.125 258.858398438 c 0
 413.125 328.3118164 370.697657339 372.508789062 304.025390625 372.508789062 c 0
 229.377608958 372.508789062 181.875 324.422962836 181.875 248.858398438 c 0
30 239.93359375 m 0
 30 403.100373145 122.166879197 496.93359375 267 496.93359375 c 0
 380.457672219 496.93359375 431.40234375 434.057617188 431.40234375 434.057617188 c 1
 409.374126188 528.381065993 348.525028298 589.005803634 177.521484375 619.267578125 c 1
 212.770507812 753.510742188 l 1
 469.819017098 732.027172961 585 570.795761438 585 332 c 0
 585 103.182430662 462.72265625 -10.06640625 279 -10.06640625 c 0
 133.008261191 -10.06640625 30 87.155085637 30 239.93359375 c 0
EndSplineSet
EndChar

StartChar: emptyset
Encoding: 715 8709 200
Width: 795
Flags: W
HStem: -10.0664 100.877<283.004 518.138> 640.64 98.2939<286.076 524.103>
VStem: 20 108<243.344 482.978> 674.117 100.883<243.344 482.978>
LayerCount: 2
Fore
SplineSet
710.94921875 726.93359375 m 1
 442.330078125 339.799804688 l 1
 185.37890625 -81 l 1
 84.05078125 -17 l 1
 366.529296875 378.200195312 l 1
 616.220703125 793.93359375 l 1
 710.94921875 726.93359375 l 1
20 361.93359375 m 0
 20 592.322641811 166.610951939 738.93359375 397 738.93359375 c 0
 628.000476926 738.93359375 775 592.322641811 775 361.93359375 c 0
 775 134.599173678 628.000476926 -10.06640625 397 -10.06640625 c 0
 166.610951939 -10.06640625 20 134.599173678 20 361.93359375 c 0
128 361.93359375 m 0
 128 196.246930926 232.9990625 90.810546875 398 90.810546875 c 0
 566.738726451 90.810546875 674.1171875 196.246930926 674.1171875 361.93359375 c 0
 674.1171875 532.255308483 566.738726451 640.639648438 398 640.639648438 c 0
 232.9990625 640.639648438 128 532.255308483 128 361.93359375 c 0
EndSplineSet
EndChar

StartChar: Delta
Encoding: 716 8710 201
Width: 670
Flags: W
HStem: 0 148.317<204.086 462.606> 564.069 156.931<55.8193 202.508> 711 20G<51.4395 430.896>
LayerCount: 2
Fore
SplineSet
202.5078125 569.112304688 m 1xa0
 55.8193359375 564.069335938 l 1
 51.439453125 721 l 1xc0
 423.548828125 731 l 1
 655 101 l 1
 638 0 l 1
 32 0 l 1
 15 97 l 1
 202.5078125 569.112304688 l 1xa0
462.606445312 149.631835938 m 1
 336.818359375 526.8671875 l 1
 204.0859375 148.317382812 l 1
 462.606445312 149.631835938 l 1
EndSplineSet
EndChar

StartChar: notequal
Encoding: 726 8800 202
Width: 450
Flags: W
HStem: 182 116.5<155.333 416> 192.5 114.5<27.5 285.667> 358 124.5<95.8824 422> 366.5 111.5<28.5 352.118>
LayerCount: 2
Fore
SplineSet
261.526367188 595.734375 m 1x00
 363.124023438 561.322265625 l 1
 258.0859375 316.234375 l 1
 187.477539062 79.1787109375 l 1
 86.7880859375 114.673828125 l 1
 188.328125 342.390625 l 1
 261.526367188 595.734375 l 1x00
EndSplineSet
Refer: 19 61 N 1 0 0 1 0 0 2
EndChar

StartChar: approxequal
Encoding: 725 8776 203
Width: 450
Flags: W
LayerCount: 2
Fore
SplineSet
284.991210938 271.168945312 m 1
 394.650390625 334.280273438 l 1
 446.330078125 249 l 1
 284.950195312 136.959960938 l 1
 165.009765625 227.791015625 l 1
 65.3505859375 162.1796875 l 1
 3.669921875 249.959960938 l 1
 165.05078125 362 l 1
 284.991210938 271.168945312 l 1
284.991210938 481.168945312 m 1
 394.650390625 544.280273438 l 1
 446.330078125 459 l 1
 284.950195312 346.959960938 l 1
 165.009765625 437.791015625 l 1
 65.3505859375 372.1796875 l 1
 3.669921875 459.959960938 l 1
 165.05078125 572 l 1
 284.991210938 481.168945312 l 1
EndSplineSet
EndChar

StartChar: product
Encoding: 717 8719 204
Width: 853
Flags: W
HStem: 580.084 150.927<23.6201 128.151 295.838 557.979 726.073 830.369>
VStem: 123.83 176.329<-173.994 580.084> 553.83 176.329<-173.994 578.628>
LayerCount: 2
Fore
SplineSet
123.830078125 -173.994140625 m 1
 128.151367188 580.083984375 l 1
 20 578.080078125 l 1
 23.6201171875 731.010742188 l 1
 830.369140625 731.010742188 l 1
 833.989257812 578.080078125 l 1
 726.073242188 580.080078125 l 1
 730.159179688 -173.994140625 l 1
 553.830078125 -173.994140625 l 1
 557.979492188 578.627929688 l 1
 295.837890625 580.083984375 l 1
 300.159179688 -173.994140625 l 1
 123.830078125 -173.994140625 l 1
EndSplineSet
EndChar

StartChar: summation
Encoding: 718 8721 205
Width: 670
Flags: W
HStem: -173.994 141.48<241.018 641.539> 588.08 142.931<23.6201 138.151 318.104 633.729>
LayerCount: 2
Fore
SplineSet
633.729492188 731.010742188 m 1
 639.61328125 584 l 1
 318.103515625 588 l 1
 474 301 l 1
 241.017578125 -32.513671875 l 1
 271.064453125 -32.701171875 l 1
 645.159179688 -31.0634765625 l 1
 641.5390625 -173.994140625 l 1
 63.4296875 -173.994140625 l 1
 54.87109375 -32.994140625 l 1
 291 302 l 1
 138.151367188 590.083984375 l 1
 20 588.080078125 l 1
 23.6201171875 731.010742188 l 1
 633.729492188 731.010742188 l 1
EndSplineSet
EndChar

StartChar: integral
Encoding: 724 8747 206
Width: 523
Flags: W
LayerCount: 2
Fore
SplineSet
375.01953125 797.84375 m 1
 497.7265625 697.874023438 l 1
 337.637695312 539.96484375 l 1
 288.63671875 10 l 1
 141.477539062 -204 l 1
 -0.5224609375 -118 l 1
 132.307617188 30 l 1
 185.984375 592.096679688 l 1
 375.01953125 797.84375 l 1
EndSplineSet
EndChar

StartChar: angleleft
Encoding: 729 9001 268
Width: 382
Flags: W
LayerCount: 2
Fore
SplineSet
177.13671875 300.836914062 m 1
 371 -153.994140625 l 1
 231 -198.994140625 l 1
 11 301.005859375 l 1
 231 791.001953125 l 1
 371 746.001953125 l 1
 177.13671875 300.836914062 l 1
EndSplineSet
EndChar

StartChar: angleright
Encoding: 730 9002 269
Width: 382
Flags: W
LayerCount: 2
Fore
SplineSet
204.86328125 291.170898438 m 1
 11 746.001953125 l 1
 151 791.001953125 l 1
 371 291.001953125 l 1
 151 -198.994140625 l 1
 11 -153.994140625 l 1
 204.86328125 291.170898438 l 1
EndSplineSet
EndChar

StartChar: dcroat
Encoding: 207 273 271
Width: 677
Flags: W
HStem: -10.0664 130<218.859 353.363> 0 120.927<566.849 663.38> 376.934 130<218.859 360.185> 544 100<292 599.38> 735.002 20G<416.875 564.254>
VStem: 25 146.5<169.484 325.761> 407.5 159.349<169.322 326.378> 412.271 77.7295<121.651 416.323> 417 147.17<273.934 755.002>
LayerCount: 2
Fore
SplineSet
292 644 m 1x3c
 493 639 l 1
 648 645 l 1
 646 536 l 1
 483 545.288085938 l 1
 290 544 l 1
 292 644 l 1x3c
EndSplineSet
Refer: 5 100 S 1 0 0 1 0 0 2
EndChar

StartChar: Hbar
Encoding: 228 294 272
Width: 830
Flags: W
HStem: 0 21G<133.83 310.159 553.83 730.159> 200 142<371.091 604> 211 127<242 470.909> 402.934 99<133.308 818> 411 90<31 713.692> 590.084 140.927<23.6201 138.151 443.62 558.151>
VStem: 133.83 176.329<0 211 338 590.084> 238 72.1592<211 338> 553.83 176.329<0 200 342 590.084>
LayerCount: 2
Fore
SplineSet
304.729492188 731.010742188 m 1x8680
 310.159179688 0 l 1
 133.830078125 0 l 1
 138.151367188 590.083984375 l 1
 20 588.080078125 l 1
 23.6201171875 731.010742188 l 1
 304.729492188 731.010742188 l 1x8680
724.729492188 731.010742188 m 1
 730.159179688 0 l 1
 553.830078125 0 l 1
 558.151367188 590.083984375 l 1
 440 588.080078125 l 1
 443.620117188 731.010742188 l 1
 724.729492188 731.010742188 l 1
242 338 m 1xa580
 608 342 l 1
 604 200 l 1xc580
 238 211 l 1
 242 338 l 1xa580
31 501 m 1x8c80
 820 501.93359375 l 1
 818 402.93359375 l 1x9480
 29 411 l 1
 31 501 l 1x8c80
EndSplineSet
EndChar

StartChar: hbar
Encoding: 229 295 273
Width: 648
Flags: W
HStem: 0 21G<118.83 275.159> 377.934 129<310.885 431.757> 554 99<244.24 401> 562 90<17 341.51> 735.002 20G<123.037 269.873>
VStem: 118.83 156.329<0 253.934 563.288 755.002> 461 152<-1.22201 345.468>
LayerCount: 2
Fore
SplineSet
183 253.93359375 m 1xce
 204.532395967 411.989257812 272.444236289 506.93359375 413 506.93359375 c 0
 544.775878906 506.93359375 613 429.158167288 613 278.93359375 c 0
 613 134.376969868 595.159179688 -15 595.159179688 -15 c 1
 440.830078125 0 l 1
 440.830078125 0 461 138.278127927 461 251.93359375 c 0
 461 331.911019259 437.798828125 377.93359375 372 377.93359375 c 0
 300.586232228 377.93359375 265.999744862 332.658203125 251 216.93359375 c 1
 183 253.93359375 l 1xce
17 652 m 1xde
 203 647 l 1
 403 653 l 1
 401 554 l 1xee
 193 563.288085938 l 1
 15 562 l 1
 17 652 l 1xde
269.729492188 755.001953125 m 1
 275.159179688 0 l 1
 118.830078125 0 l 1
 123.151367188 755.001953125 l 1
 269.729492188 755.001953125 l 1
EndSplineSet
EndChar

StartChar: Tbar
Encoding: 292 358 275
Width: 590
Flags: W
HStem: 0 21G<201.83 378.159> 249 129<373.092 512> 259 117<80 415.947> 588 30<206.151 374.104> 588.08 142.931<18.6201 206.151 374.104 563.729>
VStem: 201.83 176.329<0 618>
LayerCount: 2
Fore
SplineSet
80 376 m 1xa4
 295 372 l 1
 516 378 l 1
 512 249 l 1xc4
 288 260.288085938 l 1
 76 259 l 1
 80 376 l 1xa4
EndSplineSet
Refer: 61 84 N 1 0 0 1 0 0 2
EndChar

StartChar: tbar
Encoding: 293 359 276
Width: 434
Flags: W
HStem: 198.212 104<242.508 395.5> 206.212 95<11.5 337.44> 373.5 123.5<12.5 262.125> 480 20G<181.5 404.067>
VStem: 111.33 145.799<168.478 471.647>
LayerCount: 2
Fore
SplineSet
11.5 301.211914062 m 1x48
 202.5 296.211914062 l 1
 397.5 302.211914062 l 1
 395.5 198.211914062 l 1x88
 192.5 207.5 l 1
 9.5 206.211914062 l 1
 11.5 301.211914062 l 1x48
EndSplineSet
Refer: 7 116 N 1 0 0 1 0 0 2
EndChar

StartChar: .notdef
Encoding: 738 -1 362
Width: 795
Flags: W
HStem: -10.0664 85.877<280.157 516.269> 141.077 115.8<327.601 422.399> 291.083 113.003<335.485 413.917> 511.952 82.3549<318.581 399.32> 655.64 83.2939<284.742 516.269>
VStem: 25 93<243.323 482.912> 317.1 115.8<151.578 246.376> 429.825 103.274<412.502 486.006> 684.117 85.8828<243.323 482.912>
LayerCount: 2
Fore
SplineSet
303.900390625 511.951782226 m 1xfd80
 319.944335938 594.306640625 l 1
 466.121193371 574.524979031 533.099609375 530.359347308 533.099609375 445.283203125 c 0
 533.099609375 381.617808748 486.04191136 352.566437372 446.639282227 341.384277344 c 0
 433.082148421 337.385675154 419.671020508 335.927001953 419.671020508 335.927001953 c 1
 413.924926758 286.202148438 l 1
 413.924926758 286.202148438 402.55582961 291.082641601 376.200195312 291.082641601 c 0
 349.572246845 291.082641601 335.475097656 285.001953125 335.475097656 285.001953125 c 1
 329.268432617 405.901489258 l 1
 329.268432617 405.901489258 341.998543345 404.08581543 367.349609375 404.08581543 c 0
 403.736489097 404.08581543 429.825195312 416.643477356 429.825195312 450.077148438 c 0
 429.825195312 485.489471107 394.615440528 500.972671269 303.900390625 511.951782226 c 1xfd80
317.099853516 198.976928711 m 0xfe80
 317.099853516 234.36058002 339.616348691 256.877075195 375 256.877075195 c 0
 410.383651309 256.877075195 432.900146484 234.36058002 432.900146484 198.976928711 c 0
 432.900146484 163.593501199 410.383651309 141.077148438 375 141.077148438 c 0
 339.616348691 141.077148438 317.099853516 163.593501199 317.099853516 198.976928711 c 0xfe80
25 361.93359375 m 0
 25 592.322641811 169.666509605 738.93359375 397 738.93359375 c 0
 624.944915062 738.93359375 770 592.322641811 770 361.93359375 c 0
 770 134.599173678 624.944915062 -10.06640625 397 -10.06640625 c 0
 169.666509605 -10.06640625 25 134.599173678 25 361.93359375 c 0
118 361.93359375 m 0
 118 187.080244542 226.887916667 75.810546875 398 75.810546875 c 0
 572.849853685 75.810546875 684.1171875 187.080244542 684.1171875 361.93359375 c 0
 684.1171875 541.422047698 572.849853685 655.639648438 398 655.639648438 c 0
 226.887916667 655.639648438 118 541.422047698 118 361.93359375 c 0
EndSplineSet
EndChar

StartChar: uni0326
Encoding: 452 806 363
Width: 0
Flags: W
HStem: -206.337 211.029
VStem: 0 180.796
LayerCount: 2
Fore
SplineSet
72.78125 4.6923828125 m 25
 180.795898438 -60.037109375 l 25
 62.78125 -206.336914062 l 25
 0 -168 l 25
 72.78125 4.6923828125 l 25
EndSplineSet
EndChar

StartChar: dcaron
Encoding: 205 271 403
Width: 677
Flags: W
HStem: -10.0664 130<218.859 353.363> 0 120.927<566.849 663.38> 376.934 130<218.859 360.185> 735.002 20G<416.875 564.254>
VStem: 25 146.5<169.484 325.761> 407.5 159.349<169.322 326.378> 412.271 77.7295<121.651 416.323> 417 147.17<273.934 755.002>
LayerCount: 2
Fore
SplineSet
782 734.4921875 m 1x38
 719 477.5 l 25
 635 484 l 1
 625 751 l 25
 782 734.4921875 l 1x38
EndSplineSet
Refer: 5 100 N 1 0 0 1 0 0 2
EndChar

StartChar: Lcaron
Encoding: 251 317 404
Width: 620
Flags: W
HStem: 0 141.293<309.065 601.539> 590.084 140.927<18.6201 138.151>
VStem: 133.43 175.635<141.293 590.084>
LayerCount: 2
Fore
SplineSet
622 730.4921875 m 1
 551.5 477.5 l 1
 465 484 l 1
 462.5 751 l 1
 622 730.4921875 l 1
EndSplineSet
Refer: 44 76 N 1 0 0 1 0 0 2
EndChar

StartChar: lcaron
Encoding: 252 318 405
Width: 397
Flags: W
HStem: 0 121.397<279.129 383.539> 634.075 120.927<23.6201 128.151>
VStem: 123.83 155.299<121.397 634.075>
LayerCount: 2
Fore
SplineSet
516 730.4921875 m 1
 445.5 477.5 l 25
 359 484 l 1
 356.5 751 l 25
 516 730.4921875 l 1
EndSplineSet
Refer: 8 108 N 1 0 0 1 0 0 2
EndChar

StartChar: tcaron
Encoding: 291 357 409
Width: 434
Flags: W
HStem: 373.5 123.5<12.5 262.125> 480 20G<181.5 404.067>
VStem: 111.33 145.799<168.478 471.647>
LayerCount: 2
Fore
SplineSet
472 731.9921875 m 1x20
 410.5 551 l 25
 331.5 549 l 1
 334.5 751 l 25
 472 731.9921875 l 1x20
EndSplineSet
Refer: 7 116 N 1 0 0 1 0 0 2
EndChar

StartChar: uni030F
Encoding: 448 783 435
Width: 0
Flags: W
HStem: 509.248 235.246
LayerCount: 2
Fore
SplineSet
102.124023438 744.494140625 m 1
 216.422851562 555.534179688 l 1
 154.138671875 509.248046875 l 1
 5 672.544921875 l 1
 102.124023438 744.494140625 l 1
292.124023438 744.494140625 m 1
 406.422851562 555.534179688 l 1
 344.138671875 509.248046875 l 1
 195 672.544921875 l 1
 292.124023438 744.494140625 l 1
EndSplineSet
EndChar

StartChar: uni031B
Encoding: 450 795 463
Width: 0
Flags: W
VStem: 75.5 129<525.591 677.516>
LayerCount: 2
Fore
SplineSet
28.5 717 m 1
 159.5 750 l 1
 159.5 750 204.5 696.444114829 204.5 611 c 0
 204.5 470.322793149 68.5 414 68.5 414 c 1
 14.5 483 l 1
 14.5 483 75.5 521 75.5 597.989257812 c 0
 75.5 661 28.5 717 28.5 717 c 1
EndSplineSet
EndChar

StartChar: Uhorn
Encoding: 322 431 464
Width: 847
Flags: W
HStem: -10 152<351.721 505.149> 590.084 140.927<23.6201 145.151 430.62 547.151>
VStem: 133.517 168.643<193.352 589.079> 555.83 166.812<195.472 587.664> 697 125<734.307 783.051>
LayerCount: 2
Fore
SplineSet
652 795 m 1xe8
 759 860.93359375 l 1
 759 860.93359375 822 822.728182649 822 756 c 0
 822 675.223214286 761 649.919642857 681 647 c 1
 634 731.0078125 l 1
 677 731.0078125 697 735.363055062 697 755 c 0
 697 779.864864865 652 795 652 795 c 1xe8
EndSplineSet
Refer: 53 85 N 1 0 0 1 0 0 2
EndChar

StartChar: uhorn
Encoding: 323 432 465
Width: 687
Flags: W
HStem: -9.93164 129<215.654 323.058> 0 120.927<527.849 629.38> 477.002 20G<54.3408 207.17 377.81 525.312>
VStem: 35 152<151.119 499.319> 378 147.17<213.068 497.002> 537 125<506.581 579.639>
LayerCount: 2
Fore
SplineSet
489 595.002929688 m 1x3c
 594 654.936523438 l 1
 594 654.936523438 662 608.304399326 662 533.5 c 0
 662 449.445529181 598.510638298 420.627863103 506 418.002929688 c 1
 454 497.010742188 l 1
 510.650793651 497.010742188 537 506.850379954 537 538.502929688 c 0
 537 580.874746469 489 595.002929688 489 595.002929688 c 1x3c
EndSplineSet
Refer: 27 117 N 1 0 0 1 0 0 2
EndChar

StartChar: uni01B7
Encoding: 324 439 466
Width: 644
Flags: W
HStem: -183.994 148.5<115.017 362.406> 570.008 161<39 363.348>
VStem: 427.917 185<25.1075 168.871>
LayerCount: 2
Fore
SplineSet
364 350 m 1
 364 350 381.458922634 349.72638042 408.184081404 344.228170793 c 0
 492.623691023 332.134008485 612.916992188 267.856498306 612.916992188 92.056640625 c 0
 612.916992188 -88.7996716611 480.306007359 -183.994140625 271.916992188 -183.994140625 c 0
 83.2072104287 -183.994140625 3 -123.842773438 3 -123.842773438 c 1
 51.5 17.572265625 l 1
 51.5 17.572265625 120.785670038 -35.494140625 248.916992188 -35.494140625 c 0
 375.040407835 -35.494140625 427.916992188 15.8586516575 427.916992188 96.556640625 c 0
 427.916992188 174.345898225 380.14644129 224.4921875 270.916992188 224.4921875 c 0
 189.45464844 224.4921875 152.7578125 205.43359375 152.7578125 205.43359375 c 1
 124 312 l 1
 363.34765625 576.0078125 l 1
 31 570.0078125 l 1
 39 731.0078125 l 1
 564.016601562 731.0078125 l 1
 589.016601562 611.0078125 l 1
 364 350 l 1
EndSplineSet
EndChar

StartChar: uni0292
Encoding: 426 658 467
Width: 498
Flags: W
HStem: -183.994 128.5<68.8015 282.638> 366 131.011<38 263.848>
VStem: 318.417 153.5<-21.6754 88.1372>
LayerCount: 2
Back
SplineSet
20 338 m 5
 30 497 l 5
 399.016601562 497 l 5
 431.016601562 369 l 5
 257.168945312 164 l 5
 441.016601562 170 l 5
 431.016601562 0 l 5
 41 0 l 5
 12 128 l 5
 193.84765625 344 l 5
 20 338 l 5
EndSplineSet
Fore
SplineSet
290.5 218.5 m 1
 290.5 218.5 303.997481444 218.300897163 320.37206673 214 c 0
 392.5484646 204.928901392 471.916992188 147.898218894 471.916992188 32.5415039062 c 0
 471.916992188 -115.157966999 370.417088843 -183.994140625 210.916992188 -183.994140625 c 0
 71.3290030521 -183.994140625 12 -144.842773438 12 -144.842773438 c 1
 40.5 -18.927734375 l 1
 40.5 -18.927734375 87.0961538462 -55.494140625 200.5 -55.494140625 c 0
 276.262123746 -55.494140625 318.416992188 -21.4640193204 318.416992188 32.056640625 c 0
 318.416992188 84.9165782991 280.693188476 118.9921875 206.916992188 118.9921875 c 0
 149.704978353 118.9921875 115.2578125 104.93359375 115.2578125 104.93359375 c 1
 90 199.5 l 1
 263.84765625 370.5 l 1
 30 366 l 1
 38 497.010742188 l 1
 424.516601562 497 l 1
 452.016601562 395.5 l 1
 290.5 218.5 l 1
EndSplineSet
EndChar

StartChar: infinity
Encoding: 723 8734 470
Width: 579
Flags: W
HStem: 221 100.59<358.659 443.859> 221 91.5879<135.4 235.14> 414.634 100.051<137.045 224.961> 422.315 92.3691<341.972 441.992>
VStem: 25 102.069<321.226 404.576> 451.665 103.119<330.017 411.819>
LayerCount: 2
Fore
SplineSet
451.665039062 370.404296875 m 0xac
 451.665039062 401.839821974 429.921701567 422.315429688 396.541992188 422.315429688 c 0
 344.240009719 422.315429688 319.979492188 374.119140625 319.979492188 374.119140625 c 1
 276.788085938 438.2109375 l 1
 276.788085938 438.2109375 318.250976562 514.684570312 414.331054688 514.684570312 c 0
 498.682706881 514.684570312 554.784179688 455.794921875 554.784179688 367.248046875 c 0
 554.784179688 276.083984375 496.978945255 221 401.311523438 221 c 0x9c
 319.325059176 221 275.436479663 257.99609375 242.903320312 354.533203125 c 0
 228.300122953 398.377067493 211.673177522 414.633789062 182.170898438 414.633789062 c 0
 148.190567553 414.633789062 127.069335938 394.954110674 127.069335938 363.291015625 c 0
 127.069335938 331.762138616 147.849941352 312.587890625 182.021484375 312.587890625 c 0
 237.489761688 312.587890625 271.307617188 377.428710938 271.307617188 377.428710938 c 1
 309.377929688 306.271484375 l 1
 309.377929688 306.271484375 269.056640625 221 162.53515625 221 c 0x6c
 78.2515741045 221 25 280.737304688 25 367.000976562 c 0
 25 457.278320312 83.4001530624 514.684570312 175.237304688 514.684570312 c 0
 258.285902073 514.684570312 306.251090678 463.3125 335.504882812 388.341796875 c 0
 355.474371493 336.626137569 372.202157659 321.58984375 400.116210938 321.58984375 c 0
 432.083123956 321.58984375 451.665039062 340.13260562 451.665039062 370.404296875 c 0xac
EndSplineSet
EndChar

StartChar: radical
Encoding: 722 8730 471
Width: 659
Flags: W
HStem: 0 21G<240.489 420.866> 491 20G<10 234.743>
LayerCount: 2
Fore
SplineSet
414.607421875 0 m 1
 247.174804688 0 l 1
 120.151367188 380 l 1
 17.0458984375 372 l 1
 10 497 l 1
 228.546875 511 l 1
 332.905273438 174.1328125 l 1
 503 783 l 1
 649 749 l 1
 414.607421875 0 l 1
EndSplineSet
EndChar

StartChar: lessequal
Encoding: 727 8804 472
Width: 450
Flags: W
HStem: 78.5 127<145.6 420> 88.5 116<31 302.4>
LayerCount: 2
Fore
SplineSet
259.37109375 441.5 m 1x00
 425.349609375 361 l 1
 370.349609375 242 l 1
 24.650390625 432 l 1
 370.349609375 651 l 1
 425.349609375 532 l 1
 259.37109375 441.5 l 1x00
31 204.5 m 1x40
 422 205.5 l 1
 420 78.5 l 1x80
 28 88.5 l 1
 31 204.5 l 1x40
EndSplineSet
EndChar

StartChar: greaterequal
Encoding: 728 8805 473
Width: 450
Flags: W
HStem: 78.5 127<145.6 420> 88.5 116<31 302.4>
LayerCount: 2
Fore
SplineSet
190.62890625 451.5 m 1x00
 24.650390625 532 l 1
 79.650390625 651 l 1
 425.349609375 461 l 1
 79.650390625 242 l 1
 24.650390625 361 l 1
 190.62890625 451.5 l 1x00
31 204.5 m 1x40
 422 205.5 l 1
 420 78.5 l 1x80
 28 88.5 l 1
 31 204.5 l 1x40
EndSplineSet
EndChar

StartChar: three.ss01.superior
Encoding: 739 -1 507
Width: 390
Flags: W
HStem: 342 99.75<39.6349 237.019> 554.75 87.5<98.8843 225.871> 741 102<57.86 226.21>
VStem: 236.25 123.875<655.874 728.045> 252.25 120.875<459.735 538.542>
LayerCount: 2
Fore
SplineSet
36.25 469.875 m 1xe8
 36.25 469.875 87.75 441.75 159.25 441.75 c 0
 222.125 441.75 252.25 464.25 252.25 500 c 0xe8
 252.25 533.875 224.125 554.75 160.875 554.75 c 0
 111.5 554.75 98.875 550.75 98.875 550.75 c 1
 98.875 644.875 l 1
 98.875 644.875 110.875 642.25 151.25 642.25 c 0
 211.25 642.25 236.25 661.75 236.25 690.875 c 0
 236.25 722.25 211.75 741 155.875 741 c 0
 89 741 44.875 712.625 44.875 712.625 c 1
 18.875 813.625 l 1
 18.875 813.625 66 843 175.625 843 c 0
 290.25 843 360.125 793 360.125 712 c 0xf0
 360.125 627.5 280.75 604.125 280.75 604.125 c 1
 280.75 604.125 373.125 583.875 373.125 480.375 c 0
 373.125 395.375 298 342 180 342 c 0
 60.75 342 10.25 372 10.25 372 c 1
 36.25 469.875 l 1xe8
EndSplineSet
EndChar

StartChar: five.ss02.superior
Encoding: 740 -1 508
Width: 397
Flags: W
HStem: 343 99.5<56.0572 237.513> 574.75 92.75<135.86 239.679> 732.25 150.75<269 351.625> 733.25 103.75<150.375 263.625>
VStem: 257.75 120.875<461.805 557.253> 269 82.625<837 881.375>
LayerCount: 2
Fore
SplineSet
351.625 732.25 m 1xe4
 150.375 733.25 l 1
 135.5 650.25 l 1
 135.5 650.25 157.25 667.5 217.375 667.5 c 0
 331.125 667.5 378.625 605.125 378.625 511.75 c 0
 378.625 394.25 302.25 343 182.875 343 c 0
 61.875 343 10.25 379 10.25 379 c 1
 37.5 472.25 l 1
 37.5 472.25 92.125 442.5 167.625 442.5 c 0
 228.375 442.5 257.75 469.125 257.75 510.75 c 0
 257.75 550.125 229.25 574.75 172.75 574.75 c 0
 121.25 574.75 90 546.875 90 546.875 c 1
 20.125 602.375 l 1
 61.625 837 l 1
 263.625 837 l 1xd8
 269 881.375 l 1
 351.625 883 l 1
 351.625 732.25 l 1xe4
EndSplineSet
EndChar

StartChar: three.ss01.inferior
Encoding: 741 -1 509
Width: 390
Flags: W
HStem: -358 99.75<39.6059 236.919> -145.25 87.5<98.6349 225.942> 41 102<58.3505 226.164>
VStem: 236.25 123.875<-45.329 27.963> 252.25 120.875<-239.958 -161.146>
LayerCount: 2
Fore
SplineSet
36.25 -230.125 m 1xe8
 36.25 -230.125 87.5 -258.25 159 -258.25 c 0
 221.5 -258.25 252.25 -235.75 252.25 -200 c 0xe8
 252.25 -166.125 224.25 -145.25 161 -145.25 c 0
 112 -145.25 98.625 -149.25 98.625 -149.25 c 1
 98.625 -54.75 l 1
 98.625 -54.75 111 -57.75 151.625 -57.75 c 0
 211.875 -57.75 236.25 -38.25 236.25 -9.125 c 0
 236.25 22.25 211.375 41 155.875 41 c 0
 88.75 41 44.625 12 44.625 12 c 1
 18.875 113 l 1
 18.875 113 66 143 175.625 143 c 0
 290.25 143 360.125 92 360.125 12 c 0xf0
 360.125 -72.5 281.125 -95.25 281.125 -95.25 c 1
 281.125 -95.25 373.125 -115.5 373.125 -219 c 0
 373.125 -304 298 -358 180 -358 c 0
 60.75 -358 10.25 -328 10.25 -328 c 1
 36.25 -230.125 l 1xe8
EndSplineSet
EndChar

StartChar: five.ss02.inferior
Encoding: 742 -1 510
Width: 397
Flags: W
HStem: -357 99.5<53.8583 237.432> -125.25 92.75<135.779 239.74> 32.25 149.75<269 351.625> 33.25 103.75<150.375 263.625>
VStem: 257.75 120.875<-238.195 -142.747> 269 82.625<137 182>
LayerCount: 2
Fore
SplineSet
351.625 32.25 m 1xe4
 150.375 33.25 l 1
 135.5 -49.75 l 1
 135.5 -49.75 157.25 -32.5 217.375 -32.5 c 0
 331.125 -32.5 378.625 -94.875 378.625 -188.25 c 0
 378.625 -305.75 302.25 -357 182.875 -357 c 0
 61.875 -357 10.25 -321.375 10.25 -321.375 c 1
 37.5 -228.375 l 1
 37.5 -228.375 91.75 -257.5 167.25 -257.5 c 0
 228 -257.5 257.75 -230.875 257.75 -189.25 c 0
 257.75 -149.875 229.625 -125.25 172.75 -125.25 c 0
 120.875 -125.25 90 -153.125 90 -153.125 c 1
 20.125 -97.625 l 1
 61.625 137 l 1
 263.625 137 l 1xd8
 269 182 l 1
 351.625 183 l 1
 351.625 32.25 l 1xe4
EndSplineSet
EndChar

StartChar: guilsinglleft
Encoding: 651 8249 511
Width: 382
Flags: W
HStem: 491 20G<260.024 303.128>
LayerCount: 2
Fore
SplineSet
190.720703125 258.5 m 1
 371.69921875 96 l 1
 281.69921875 2 l 1
 1 252 l 1
 281.69921875 511 l 1
 371.69921875 427 l 1
 190.720703125 258.5 l 1
EndSplineSet
EndChar

StartChar: guilsinglright
Encoding: 652 8250 512
Width: 382
Flags: W
HStem: 491 20G<81.3511 122.956>
LayerCount: 2
Fore
SplineSet
191.478515625 254.5 m 1
 10.5 417 l 1
 100.5 511 l 1
 381.19921875 261 l 1
 100.5 2 l 1
 10.5 86 l 1
 191.478515625 254.5 l 1
EndSplineSet
EndChar

StartChar: dagger
Encoding: 640 8224 513
Width: 520
Flags: W
HStem: 410.934 140<23.5 223.142> 415.345 127.524<53.8584 364.966>
VStem: 174 168.329<-170 75.1627 673.558 788.992> 192.616 131.554<236.837 649.016>
LayerCount: 2
Fore
SplineSet
23.5 550.93359375 m 1x80
 253.5 542.869140625 l 1
 499.5 554.93359375 l 1
 496.5 399.93359375 l 1
 255.5 415.344726562 l 1x40
 20.5 410.93359375 l 1
 23.5 550.93359375 l 1x80
336.899414062 788.9921875 m 1
 324.169921875 478 l 1x10
 342.329101562 -170 l 1
 174 -170 l 1x20
 192.616210938 482 l 1x10
 180.169921875 788.9921875 l 1
 336.899414062 788.9921875 l 1
EndSplineSet
EndChar

StartChar: daggerdbl
Encoding: 641 8225 514
Width: 520
Flags: W
HStem: 119.934 140<13.5 221.822> 124.345 127.524<45.1784 369.508> 420.934 140<13.5 221.822> 425.345 127.524<45.1784 369.508>
VStem: 174 168.329<-170 -23 688.152 788.992> 193 130.898<115.94 610.043>
LayerCount: 2
Fore
SplineSet
13.5 259.93359375 m 1x80
 253.5 251.869140625 l 1
 509.5 263.93359375 l 1
 506.5 108.93359375 l 1
 255.5 124.344726562 l 1x40
 10.5 119.93359375 l 1
 13.5 259.93359375 l 1x80
13.5 560.93359375 m 1x20
 253.5 552.869140625 l 1
 509.5 564.93359375 l 1
 506.5 409.93359375 l 1
 255.5 425.344726562 l 1x10
 10.5 420.93359375 l 1
 13.5 560.93359375 l 1x20
336.899414062 788.9921875 m 1
 322.169921875 488 l 1
 323.8984375 229 l 1x04
 342.329101562 -170 l 1
 174 -170 l 1x08
 193 229 l 1x04
 194.616210938 492 l 1
 180.169921875 788.9921875 l 1
 336.899414062 788.9921875 l 1
EndSplineSet
EndChar

StartChar: uni20A6
Encoding: 680 8358 515
Width: 831
Flags: W
HStem: -10 21G<529.529 701.539> 0 21G<135.21 301.539> 228.5 95<32 221.349> 238.5 89.4668<583 752.712> 317.967 41.8213<198 243> 327.967 41.8213<674 775.743> 358.5 95<34 247.125> 368.5 90<593 770.389> 711.011 20G<542.819 696.258>
VStem: 34 264.926<230.077 317.967 359.788 441.793> 135.21 166.329<0 230.077 317.967 359.788> 543 153.109<327.967 368.5 458.5 731.011>
LayerCount: 2
Fore
SplineSet
583 333.5 m 1x1090
 667 327.966796875 l 1
 804 334.5 l 1
 802 230.5 l 1
 649 240.077148438 l 1
 581 238.5 l 1
 583 333.5 l 1x1090
593 463.5 m 1
 684 458.5 l 1x0190
 811 464.5 l 1
 809 360.5 l 1
 674 369.788085938 l 1x0490
 591 368.5 l 1x0190
 593 463.5 l 1
32 323.5 m 1x2090
 198 317.966796875 l 1x0890
 243 324.5 l 1
 241 220.5 l 1
 180 230.077148438 l 1
 30 228.5 l 1
 32 323.5 l 1x2090
34 453.5 m 1x02d0
 215 448.5 l 1
 266 454.5 l 1
 264 350.5 l 1
 205 359.788085938 l 1x08d0
 32 358.5 l 1
 34 453.5 l 1x02d0
696.109375 731.010742188 m 1
 701.5390625 0 l 1x40b0
 540.209960938 -10 l 1
 298.92578125 441.79296875 l 1x80d0
 301.5390625 0 l 1
 135.209960938 0 l 1x40b0
 139.53125 589.083984375 l 1
 24.3798828125 583.080078125 l 1
 20 731.010742188 l 1
 321.109375 741.010742188 l 1
 539.151367188 304.888671875 l 1
 543 731.010742188 l 1
 696.109375 731.010742188 l 1
EndSplineSet
EndChar

StartChar: peseta
Encoding: 681 8359 516
Width: 732
Flags: W
HStem: 0 21G<117.771 289.003> 179.934 142<289.684 425.781> 358.5 95<34 237.125> 577.992 161<292.27 419.003> 577.992 51.2578<155.68 285.67>
VStem: 117.771 171.232<0 204.434 345.877 359.788 448.5 629.25> 514 120.917<368.5 463.5>
LayerCount: 2
Fore
SplineSet
514 463.5 m 1xe6
 595 458.5 l 1
 712 464.5 l 1
 710 360.5 l 1
 585 369.788085938 l 1
 512 368.5 l 1
 514 463.5 l 1xe6
34 453.5 m 1
 205 448.5 l 1
 256 454.5 l 1
 254 350.5 l 1
 195 359.788085938 l 1
 32 358.5 l 1
 34 453.5 l 1
289.002929688 0 m 1
 117.770507812 0 l 1
 123.940429688 629.25 l 1
 285.669921875 629.25 l 1xee
 289.002929688 0 l 1
224.196289062 345.876953125 m 1
 224.196289062 345.876953125 261.414653432 321.93359375 345.916992188 321.93359375 c 0
 430.611039806 321.93359375 473.916992188 369.766786596 473.916992188 444.93359375 c 0
 473.916992188 526.247459005 432.6068543 577.9921875 328.916992188 577.9921875 c 0
 155.6796875 577.9921875 29.26953125 526.427734375 29.26953125 526.427734375 c 1
 -2 684.840820312 l 1
 -2 684.840820312 96.10249859 738.9921875 326.916992188 738.9921875 c 0xf6
 515.138899125 738.9921875 634.916992188 623.469925908 634.916992188 441.93359375 c 0
 634.916992188 281.821289062 530.694560757 179.93359375 366.916992188 179.93359375 c 0
 259.770507812 179.93359375 195.2578125 204.43359375 195.2578125 204.43359375 c 1
 224.196289062 345.876953125 l 1
EndSplineSet
EndChar

StartChar: uni20A9
Encoding: 682 8361 517
Width: 1082
Flags: W
HStem: 0 21G<309.861 492.279 638.578 820.127> 237.577 92.8896<794 1021.28> 241.5 104<116 342> 367.288 93.7119<834 1060> 375.533 92.8896<169.998 321> 716 20G<865.719 971.814>
LayerCount: 2
Fore
SplineSet
321 370 m 1x8c
 252 375.533203125 l 1
 90 371.5 l 1
 92 475.5 l 1
 230 468.422851562 l 1
 323 470 l 1
 321 370 l 1x8c
342 240 m 1
 266 245 l 1
 114 241.5 l 1
 116 345.5 l 1xa4
 256 338.711914062 l 1
 344 340 l 1
 342 240 l 1
794 336 m 1
 883 330.466796875 l 1
 1025 334.5 l 1
 1023 230.5 l 1
 865 237.577148438 l 1xc4
 792 236 l 1
 794 336 l 1
834 466 m 1
 930 461 l 1
 1062 464.5 l 1
 1060 360.5 l 1
 920 367.288085938 l 1x94
 832 366 l 1
 834 466 l 1
486.107421875 0 m 1
 315.174804688 0 l 1
 158.151367188 591 l 1
 27.0458984375 583 l 1
 20 732 l 1
 283.546875 746 l 1
 409.905273438 219.1328125 l 1
 538.904296875 759 l 1
 710.450195312 727 l 1
 486.107421875 0 l 1
813.607421875 0 m 1
 644.174804688 0 l 1
 523 433 l 1
 626.395507812 623 l 1
 736.905273438 219.1328125 l 1
 870.904296875 736 l 1
 1042.45019531 702 l 1
 813.607421875 0 l 1
EndSplineSet
EndChar

StartChar: dong
Encoding: 683 8363 518
Width: 682
Flags: W
HStem: -51 102<179 627> -42 97<52 499> 99.9336 122<212.071 354.89> 110 120.927<556.849 658.38> 434.934 122<216.062 354.447> 589 95<302 592.24> 735.002 20G<406.853 554.272>
VStem: 30 144.5<259.781 395.491> 394.5 162.349<262.766 392.934> 402.271 77.7295<210.78 472.156> 407 147.17<590.288 755.002>
LayerCount: 2
Fore
SplineSet
52 55 m 1x4f
 628 51 l 1
 627 -51 l 1x8f
 51 -42 l 1
 52 55 l 1x4f
394.5 326.93359375 m 0x2f80
 394.5 392.933828125 351.917076374 434.93359375 285 434.93359375 c 0
 217.471540972 434.93359375 174.5 392.933828125 174.5 326.93359375 c 0
 174.5 262.766339804 217.471540972 221.93359375 285 221.93359375 c 0
 351.917076374 221.93359375 394.5 262.766339804 394.5 326.93359375 c 0x2f80
480 338.93359375 m 0x2f40
 480 210.780386373 402.167512734 99.93359375 255.5 99.93359375 c 0
 117.693800541 99.93359375 30 188.211275687 30 326.93359375 c 0
 30 467.489821214 117.693800541 556.93359375 255.5 556.93359375 c 0
 392.694873692 556.93359375 480 472.156346342 480 338.93359375 c 0x2f40
402.270507812 110 m 1x1f40
 407 755.001953125 l 1
 554.169921875 755.001953125 l 1x1f20
 556.848632812 230.926757812 l 1x1f80
 662 232.930664062 l 1
 658.379882812 110 l 1
 402.270507812 110 l 1x1f40
302 684 m 1
 493 679 l 1
 638 685 l 1
 636 581 l 1
 483 590.288085938 l 1
 300 589 l 1
 302 684 l 1
EndSplineSet
EndChar

